<?xml version="1.0" encoding="iso-8859-1"?>
<!-- Generator: Adobe Illustrator 16.0.0, SVG Export Plug-In . SVG Version: 6.00 Build 0)  -->
<!DOCTYPE svg PUBLIC "-//W3C//DTD SVG 1.1//EN" "http://www.w3.org/Graphics/SVG/1.1/DTD/svg11.dtd">
<svg version="1.1" xmlns="http://www.w3.org/2000/svg" xmlns:xlink="http://www.w3.org/1999/xlink" x="0px" y="0px"
	 width="160.226px" height="199.966px" viewBox="0 0 160.226 199.966" style="enable-background:new 0 0 160.226 199.966;"
	 xml:space="preserve">
<g id="noseSet">
	<path style="fill:none;stroke:#FFFFFF;stroke-width:5;stroke-miterlimit:10;" d="M36.747,13.028c0,0,0,25.135,0,25.136
		c0,3.302,2.678,5.979,5.979,5.979c3.303,0,5.979-2.677,5.979-5.979"/>
	<path style="fill:none;stroke:#FFFFFF;stroke-width:5;stroke-miterlimit:10;" d="M72.898,44.143l17.773-17.773
		c-2.334,2.334-6.12,2.334-8.455,0.001c-2.335-2.335-2.334-6.12,0-8.455c2.336-2.335,6.121-2.337,8.455,0
		c0.001-0.001,10.082,10.079,10.082,10.079c2.334,2.335,6.12,2.334,8.454,0c2.335-2.335,2.335-6.121,0-8.455
		c-2.334-2.334-6.119-2.335-8.454,0.002l17.773-17.773"/>
	<path style="fill:none;stroke:#FFFFFF;stroke-width:5;stroke-miterlimit:10;" d="M145.226,109.036c6.902,0,12.5,5.598,12.5,12.5
		c-0.001,6.904-5.598,12.501-12.5,12.5c0,6.902-5.598,12.5-12.5,12.5c-6.904-0.001-12.501-5.598-12.5-12.5
		c-6.902,0-12.5-5.598-12.5-12.5c0.001-6.904,5.598-12.5,12.5-12.5"/>
	<path style="fill:none;stroke:#FFFFFF;stroke-width:5;stroke-miterlimit:10;" d="M126.747,58.105c3.302,0,5.979,2.677,5.979,5.979
		s-2.677,5.979-5.979,5.979s-5.979-2.677-5.979-5.979c0.001,0-43.521,43.521-43.522,43.521c-6.902,0-12.499,5.596-12.5,12.5
		c0.001,6.902,5.598,12.5,12.501,12.5l43.521,43.521c4.882,4.881,4.881,12.797,0.001,17.678c-4.883,4.882-12.797,4.881-17.678,0"/>
	<path style="fill:none;stroke:#FFFFFF;stroke-width:5;stroke-miterlimit:10;" d="M39.457,134.051c0,3.303-2.676,5.979-5.979,5.979
		c-3.301,0-5.979-2.676-5.979-5.979v-0.272c0,6.902-5.597,12.5-12.5,12.5s-12.5-5.598-12.5-12.5l68.492-68.492"/>
</g>
<g id="Layer_1">
</g>
</svg>
