<?xml version="1.0" encoding="iso-8859-1"?>
<!-- Generator: Adobe Illustrator 16.0.0, SVG Export Plug-In . SVG Version: 6.00 Build 0)  -->
<!DOCTYPE svg PUBLIC "-//W3C//DTD SVG 1.1//EN" "http://www.w3.org/Graphics/SVG/1.1/DTD/svg11.dtd">
<svg version="1.1" xmlns="http://www.w3.org/2000/svg" xmlns:xlink="http://www.w3.org/1999/xlink" x="0px" y="0px"
	 width="588.629px" height="726.4px" viewBox="0 0 588.629 726.4" style="enable-background:new 0 0 588.629 726.4;"
	 xml:space="preserve">
<g id="head">
	
		<rect x="181.32" y="152.794" transform="matrix(0.863 0.5052 -0.5052 0.863 153.0279 -65.799)" style="fill:#F9E270;" width="33.032" height="192.929"/>
	<rect x="14.772" y="187.928" style="fill:#F9E270;" width="162.331" height="538.473"/>
	
		<rect x="7.3" y="63.715" transform="matrix(0.9933 -0.1152 0.1152 0.9933 -14.5924 3.1771)" style="fill:#F9E270;" width="25.761" height="128.155"/>
	
		<rect x="56.733" y="27.438" transform="matrix(0.9986 -0.052 0.052 0.9986 -5.6363 3.7697)" style="fill:#F9E270;" width="25.761" height="165.49"/>
	<rect x="104.974" style="fill:#F9E270;" width="25.762" height="192.928"/>
	
		<rect x="156.59" y="40.296" transform="matrix(0.9964 0.0852 -0.0852 0.9964 10.5191 -14.0194)" style="fill:#F9E270;" width="25.761" height="151.81"/>
	
		<rect x="374.277" y="152.794" transform="matrix(-0.863 0.5052 -0.5052 -0.863 853.9736 266.9376)" style="fill:#F9E270;" width="33.031" height="192.929"/>
	<rect x="411.525" y="187.928" style="fill:#F9E270;" width="162.332" height="538.473"/>
	<rect x="151.436" y="525.369" style="fill:#596B56;" width="267.4" height="92.732"/>
	
		<rect x="555.568" y="63.716" transform="matrix(-0.9933 -0.1152 0.1152 -0.9933 1118.3824 320.2425)" style="fill:#F9E270;" width="25.761" height="128.155"/>
	
		<rect x="506.135" y="27.438" transform="matrix(-0.9986 -0.052 0.052 -0.9986 1031.5983 247.2099)" style="fill:#F9E270;" width="25.761" height="165.49"/>
	<rect x="457.895" style="fill:#F9E270;" width="25.762" height="192.928"/>
	
		<rect x="406.278" y="40.296" transform="matrix(-0.9964 0.0852 -0.0852 -0.9964 846.6959 196.2605)" style="fill:#F9E270;" width="25.762" height="151.81"/>
	<rect x="74.186" y="288.062" style="fill:#596B56;" width="421.9" height="140.404"/>
</g>
<g id="Layer_1">
</g>
</svg>
