<?xml version="1.0" encoding="iso-8859-1"?>
<!-- Generator: Adobe Illustrator 16.0.0, SVG Export Plug-In . SVG Version: 6.00 Build 0)  -->
<!DOCTYPE svg PUBLIC "-//W3C//DTD SVG 1.1//EN" "http://www.w3.org/Graphics/SVG/1.1/DTD/svg11.dtd">
<svg version="1.1" xmlns="http://www.w3.org/2000/svg" xmlns:xlink="http://www.w3.org/1999/xlink" x="0px" y="0px"
	 width="298.99px" height="263.703px" viewBox="0 0 298.99 263.703" style="enable-background:new 0 0 298.99 263.703;"
	 xml:space="preserve">
<g id="browR">
	<path style="fill:#C77966;" d="M124.202,153.908c42.5,42.502,111.408,42.502,153.908,0L124.201,0
		C81.701,42.5,81.701,111.407,124.202,153.908z"/>
	<path style="fill:#7E827A;" d="M108.829,153.342C108.831,93.236,60.105,44.509,0,44.511v217.66
		C60.104,262.171,108.829,213.445,108.829,153.342z"/>
	<path style="fill:#C77966;" d="M188.628,263.702l87.392,0.001c-0.001-24.133-19.564-43.696-43.696-43.696
		C208.19,220.007,188.628,239.57,188.628,263.702z"/>
	<path style="fill:#E3CDA4;" d="M232.323,86.674v22c24.669,0,44.667,19.998,44.667,44.666s-19.998,44.667-44.667,44.667v22
		c36.819,0,66.667-29.849,66.667-66.667S269.143,86.674,232.323,86.674z"/>
</g>
<g id="Layer_1">
</g>
</svg>
