<?xml version="1.0" encoding="iso-8859-1"?>
<!-- Generator: Adobe Illustrator 16.0.0, SVG Export Plug-In . SVG Version: 6.00 Build 0)  -->
<!DOCTYPE svg PUBLIC "-//W3C//DTD SVG 1.1//EN" "http://www.w3.org/Graphics/SVG/1.1/DTD/svg11.dtd">
<svg version="1.1" xmlns="http://www.w3.org/2000/svg" xmlns:xlink="http://www.w3.org/1999/xlink" x="0px" y="0px"
	 width="328.182px" height="598.629px" viewBox="0 0 328.182 598.629" style="enable-background:new 0 0 328.182 598.629;"
	 xml:space="preserve">
<g id="browL">
	<path style="fill:#C77966;" d="M328.182,497.66V0C190.757,0.004,79.35,111.408,79.35,248.831
		C79.35,386.255,190.755,497.66,328.182,497.66z"/>
	<path style="fill:#703030;" d="M31.876,396.479c42.5,42.502,111.408,42.502,153.908,0L31.875,242.57
		C-10.625,285.07-10.625,353.977,31.876,396.479z"/>
	<path style="fill:#C77966;" d="M15.863,598.628l87.392,0.001c-0.001-24.133-19.564-43.696-43.696-43.696
		C35.425,554.933,15.863,574.496,15.863,598.628z"/>
	<path style="fill:#E3CDA4;" d="M59.559,421.678v22c24.669,0,44.667,19.998,44.667,44.666s-19.998,44.667-44.667,44.667v22
		c36.819,0,66.667-29.849,66.667-66.667S96.378,421.678,59.559,421.678z"/>
</g>
<g id="Layer_1">
</g>
</svg>
