<?xml version="1.0" encoding="iso-8859-1"?>
<!-- Generator: Adobe Illustrator 16.0.0, SVG Export Plug-In . SVG Version: 6.00 Build 0)  -->
<!DOCTYPE svg PUBLIC "-//W3C//DTD SVG 1.1//EN" "http://www.w3.org/Graphics/SVG/1.1/DTD/svg11.dtd">
<svg version="1.1" xmlns="http://www.w3.org/2000/svg" xmlns:xlink="http://www.w3.org/1999/xlink" x="0px" y="0px"
	 width="126.99px" height="143.548px" viewBox="0 0 126.99 143.548" style="enable-background:new 0 0 126.99 143.548;"
	 xml:space="preserve">
<g id="littleShapes">
	<path style="fill:none;stroke:#4E589E;stroke-width:4;stroke-linecap:round;stroke-linejoin:round;stroke-miterlimit:10;" d="
		M13.495,37.904c0-3.174-2.573-5.748-5.747-5.748C4.573,32.156,2,34.73,2,37.904v91.627"/>
	<path style="fill:none;stroke:#4E589E;stroke-width:4;stroke-linecap:round;stroke-linejoin:round;stroke-miterlimit:10;" d="
		M43.126,105.325c0-3.174-2.573-5.748-5.747-5.748c-3.175,0-5.748,2.574-5.748,5.748v36.223"/>
	<path style="fill:none;stroke:#A96F99;stroke-width:4;stroke-linecap:round;stroke-linejoin:round;stroke-miterlimit:10;" d="
		M100.491,28.936c0-3.175-2.573-5.748-5.747-5.748c-3.175,0-5.748,2.573-5.748,5.748c0-3.175-2.573-5.748-5.747-5.748
		c-3.175,0-5.748,2.573-5.748,5.748c0-3.175-2.573-5.748-5.747-5.748c-3.175,0-5.748,2.573-5.748,5.748"/>
	
		<circle style="fill:none;stroke:#FFC541;stroke-width:4;stroke-linecap:round;stroke-linejoin:round;stroke-miterlimit:10;" cx="95.498" cy="74.75" r="29.492"/>
	
		<circle style="fill:none;stroke:#FFC541;stroke-width:4;stroke-linecap:round;stroke-linejoin:round;stroke-miterlimit:10;" cx="31.093" cy="60.395" r="5.604"/>
	
		<line style="fill:none;stroke:#F3662F;stroke-width:4;stroke-linecap:round;stroke-linejoin:round;stroke-miterlimit:10;" x1="66.006" y1="133.53" x2="66.006" y2="107.594"/>
	
		<polyline style="fill:none;stroke:#3A963E;stroke-width:4;stroke-linecap:round;stroke-linejoin:round;stroke-miterlimit:10;" points="
		55.16,2 50.347,2 50.347,6.812 45.533,6.812 45.533,11.625 40.72,11.625 40.72,16.438 35.906,16.438 35.906,21.251 31.093,21.251 
		31.093,26.062 	"/>
</g>
<g id="Layer_1">
</g>
</svg>
