<?xml version="1.0" encoding="iso-8859-1"?>
<!-- Generator: Adobe Illustrator 16.0.0, SVG Export Plug-In . SVG Version: 6.00 Build 0)  -->
<!DOCTYPE svg PUBLIC "-//W3C//DTD SVG 1.1//EN" "http://www.w3.org/Graphics/SVG/1.1/DTD/svg11.dtd">
<svg version="1.1" xmlns="http://www.w3.org/2000/svg" xmlns:xlink="http://www.w3.org/1999/xlink" x="0px" y="0px"
	 width="1103.202px" height="969.312px" viewBox="0 0 1103.202 969.312" style="enable-background:new 0 0 1103.202 969.312;"
	 xml:space="preserve">
<g id="eyeL">
	<rect x="828.867" y="274.34" style="fill:#333745;" width="54.868" height="54.868"/>
	<rect x="609.402" y="274.34" style="fill:#333745;" width="54.867" height="54.868"/>
	<path style="fill:#333745;" d="M609.396,274.334v0.013h54.867v-54.868C633.965,219.479,609.402,244.039,609.396,274.334z"/>
	<path style="fill:#333745;" d="M828.873,219.479h-0.012v54.867h54.867C883.729,244.048,859.17,219.485,828.873,219.479z"/>
	<path style="fill:#F6F792;" d="M774.012,274.34c30.298,0.007,54.856,24.571,54.856,54.868V274.34H774.012z"/>
	<path style="fill:#333745;" d="M774.012,274.34H774v54.868h54.868C828.868,298.911,804.31,274.347,774.012,274.34z"/>
	<g>
		<path style="fill:#FF2D00;" d="M-511.81,636.331c91.933,0.021,166.453,74.553,166.453,166.491V636.331H-511.81z"/>
		<path style="fill:#FF8C00;" d="M-511.81,636.331h-0.039v166.491h166.492C-345.357,710.884-419.877,636.353-511.81,636.331z"/>
	</g>
	<path style="fill:#F6F792;" d="M828.867,329.195c0.007-30.295,24.569-54.855,54.868-54.855h-54.868V329.195z"/>
	<path style="fill:#333745;" d="M609.396,329.195v0.013h54.868V274.34C633.965,274.34,609.402,298.9,609.396,329.195z"/>
	<g>
		<path style="fill:#FF8C00;" d="M-345.3,469.821c91.934,0.021,166.453,74.553,166.453,166.491V469.821H-345.3z"/>
		<path style="fill:#FF2D00;" d="M-345.3,469.821h-0.038v166.491h166.491C-178.847,544.374-253.366,469.842-345.3,469.821z"/>
	</g>
	<g>
		<path style="fill:#FF8C00;" d="M-178.847,636.351c-0.021,91.934-74.553,166.453-166.491,166.453h166.491V636.351z"/>
		<path style="fill:#FF2D00;" d="M-178.847,636.351v-0.038h-166.491v166.491C-253.399,802.804-178.867,728.284-178.847,636.351z"/>
	</g>
	<path style="fill:#F6F792;" d="M828.873,219.486c-0.006,30.296-24.569,54.854-54.867,54.854h54.867V219.486z"/>
	<path style="fill:#F6F792;" d="M664.27,219.486c-0.006,30.296-24.569,54.854-54.867,54.854h54.867V219.486z"/>
	<path style="fill:#F6F792;" d="M883.723,274.34c-30.297-0.007-54.855-24.569-54.855-54.867v54.867H883.723z"/>
	<path style="fill:#333745;" d="M664.251,219.473h0.013v-54.868h-54.868C609.396,194.903,633.955,219.465,664.251,219.473z"/>
	<path style="fill:#333745;" d="M609.408,109.736h-0.012v54.868h54.867C664.264,134.306,639.705,109.744,609.408,109.736z"/>
	<path style="fill:#F6F792;" d="M609.383,164.604h0.014v-54.868h-54.869C554.527,140.035,579.088,164.597,609.383,164.604z"/>
	<path style="fill:#F6F792;" d="M554.539,54.869h-0.012v54.868h54.867C609.395,79.438,584.836,54.876,554.539,54.869z"/>
	<path style="fill:#333745;" d="M554.515,109.736h0.013V54.869h-54.868C499.659,85.167,524.219,109.729,554.515,109.736z"/>
	<path style="fill:#FF8C00;" d="M-178.866,969.312h0.039v-166.49h-166.492C-345.319,894.76-270.799,969.291-178.866,969.312z"/>
	<path style="fill:#F6F792;" d="M664.264,329.195c0.008-30.295,24.569-54.855,54.868-54.855h-54.868V329.195z"/>
	<path style="fill:#333745;" d="M664.264,329.195v0.013h54.868V274.34C688.833,274.34,664.271,298.9,664.264,329.195z"/>
	<path style="fill:#F6F792;" d="M609.408,274.34c30.298,0.007,54.855,24.569,54.855,54.868V274.34H609.408z"/>
	<path style="fill:#F6F792;" d="M499.666,54.868c30.298,0.007,54.856,24.569,54.856,54.868V54.868H499.666z"/>
	<path style="fill:#F6F792;" d="M554.521,54.869C524.223,54.861,499.666,30.3,499.666,0v54.868H554.521z"/>
	<path style="fill:#F6F792;" d="M828.867,329.201c30.299,0.008,54.856,24.569,54.856,54.868v-54.868H828.867z"/>
	<path style="fill:#F6F792;" d="M719.119,274.34c-30.297-0.007-54.855-24.569-54.855-54.867v54.867H719.119z"/>
	<path style="fill:#333745;" d="M719.119,274.34h0.013v-54.867h-54.868C664.264,249.771,688.822,274.333,719.119,274.34z"/>
	<path style="fill:#F6F792;" d="M828.875,219.485c-0.008,30.297-24.569,54.855-54.867,54.855h54.867V219.485z"/>
	<path style="fill:#333745;" d="M828.875,219.485v-0.013h-54.867v54.868C804.306,274.341,828.867,249.782,828.875,219.485z"/>
	<path style="fill:#F6F792;" d="M719.119,219.473c-30.297-0.007-54.855-24.569-54.855-54.868v54.868H719.119z"/>
	<path style="fill:#333745;" d="M828.86,219.473h-0.012v-54.868h54.867C883.716,194.903,859.157,219.465,828.86,219.473z"/>
	<path style="fill:#333745;" d="M883.703,109.736h0.013v54.868h-54.868C828.848,134.306,853.407,109.744,883.703,109.736z"/>
	<path style="fill:#F6F792;" d="M883.729,164.604h-0.013v-54.868h54.868C938.584,140.035,914.024,164.597,883.729,164.604z"/>
	<path style="fill:#F6F792;" d="M938.572,54.869h0.013v54.868h-54.868C883.717,79.438,908.276,54.876,938.572,54.869z"/>
	<path style="fill:#333745;" d="M938.597,109.736h-0.012V54.869h54.867C993.452,85.167,968.894,109.729,938.597,109.736z"/>
	<path style="fill:#F6F792;" d="M993.446,54.868c-30.298,0.007-54.855,24.569-54.855,54.868V54.868H993.446z"/>
	<path style="fill:#F6F792;" d="M938.591,54.869C968.889,54.861,993.446,30.3,993.446,0v54.868H938.591z"/>
	<path style="fill:#F6F792;" d="M773.993,219.473c30.297-0.007,54.855-24.569,54.855-54.868v54.868H773.993z"/>
	<rect x="719.132" y="274.34" style="fill:#F6F792;" width="54.868" height="54.868"/>
	<path style="fill:#F6F792;" d="M746.572,246.907c14.987,0,27.158,12.016,27.428,26.938v-54.366h-54.868v54.868l0,0
		C719.132,259.192,731.417,246.907,746.572,246.907z"/>
	<path style="fill:#333745;" d="M774,273.845c-0.27-14.922-12.44-26.938-27.428-26.938c-15.155,0-27.44,12.285-27.44,27.44H774
		V273.845z"/>
	<path style="fill:#333745;" d="M1048.334,542.47h0.013v-54.867h-54.868C993.479,517.9,1018.038,542.462,1048.334,542.47z"/>
	<path style="fill:#333745;" d="M993.491,432.733h-0.012v54.867h54.867C1048.347,457.303,1023.788,432.741,993.491,432.733z"/>
	<path style="fill:#F6F792;" d="M993.466,487.601h0.014v-54.867H938.61C938.61,463.032,963.171,487.594,993.466,487.601z"/>
	<path style="fill:#F6F792;" d="M938.622,377.866h-0.012v54.867h54.867C993.478,402.435,968.919,377.873,938.622,377.866z"/>
	<path style="fill:#333745;" d="M938.598,432.733h0.013v-54.867h-54.868C883.742,408.164,908.302,432.726,938.598,432.733z"/>
	<path style="fill:#F6F792;" d="M883.748,377.865c30.298,0.007,54.856,24.569,54.856,54.868v-54.868H883.748z"/>
	<path style="fill:#F6F792;" d="M938.604,377.866c-30.299-0.008-54.856-24.569-54.856-54.869v54.869H938.604z"/>
	<path style="fill:#F6F792;" d="M1103.202,542.47c-30.297-0.008-54.855-24.569-54.855-54.867v54.867H1103.202z"/>
	<path style="fill:#F6F792;" d="M664.261,329.201c-30.299,0.008-54.856,24.569-54.856,54.868v-54.868H664.261z"/>
	<path style="fill:#333745;" d="M444.794,542.47h-0.013v-54.867h54.868C499.649,517.9,475.09,542.462,444.794,542.47z"/>
	<path style="fill:#333745;" d="M499.637,432.733h0.012v54.867h-54.867C444.781,457.303,469.34,432.741,499.637,432.733z"/>
	<path style="fill:#F6F792;" d="M499.662,487.601h-0.014v-54.867h54.869C554.518,463.032,529.957,487.594,499.662,487.601z"/>
	<path style="fill:#F6F792;" d="M554.506,377.866h0.012v54.867H499.65C499.65,402.435,524.209,377.873,554.506,377.866z"/>
	<path style="fill:#333745;" d="M554.53,432.733h-0.013v-54.867h54.868C609.386,408.164,584.826,432.726,554.53,432.733z"/>
	<path style="fill:#F6F792;" d="M609.38,377.865c-30.298,0.007-54.856,24.569-54.856,54.868v-54.868H609.38z"/>
	<path style="fill:#F6F792;" d="M554.523,377.866c30.299-0.008,54.856-24.569,54.856-54.869v54.869H554.523z"/>
	<path style="fill:#F6F792;" d="M389.926,542.47c30.297-0.008,54.855-24.569,54.855-54.867v54.867H389.926z"/>
</g>
<g id="Layer_1">
</g>
</svg>
