<?xml version="1.0" encoding="iso-8859-1"?>
<!-- Generator: Adobe Illustrator 16.0.0, SVG Export Plug-In . SVG Version: 6.00 Build 0)  -->
<!DOCTYPE svg PUBLIC "-//W3C//DTD SVG 1.1//EN" "http://www.w3.org/Graphics/SVG/1.1/DTD/svg11.dtd">
<svg version="1.1" xmlns="http://www.w3.org/2000/svg" xmlns:xlink="http://www.w3.org/1999/xlink" x="0px" y="0px"
	 width="713.276px" height="542.469px" viewBox="0 0 713.276 542.469" style="enable-background:new 0 0 713.276 542.469;"
	 xml:space="preserve">
<g id="head">
	<rect x="438.941" y="274.339" style="fill:#333745;" width="54.868" height="54.868"/>
	<rect x="219.476" y="274.339" style="fill:#333745;" width="54.868" height="54.868"/>
	<path style="fill:#333745;" d="M219.471,274.334v0.012h54.867v-54.868C244.039,219.478,219.477,244.038,219.471,274.334z"/>
	<path style="fill:#333745;" d="M438.947,219.479h-0.012v54.867h54.867C493.803,244.047,469.244,219.484,438.947,219.479z"/>
	<path style="fill:#F6F792;" d="M384.086,274.339c30.298,0.007,54.856,24.571,54.856,54.868v-54.868H384.086z"/>
	<path style="fill:#333745;" d="M384.086,274.339h-0.012v54.868h54.868C438.942,298.91,414.384,274.346,384.086,274.339z"/>
	<path style="fill:#F6F792;" d="M438.941,329.194c0.007-30.296,24.569-54.855,54.868-54.855h-54.868V329.194z"/>
	<path style="fill:#333745;" d="M219.47,329.194v0.013h54.868v-54.868C244.039,274.339,219.477,298.898,219.47,329.194z"/>
	<path style="fill:#F6F792;" d="M438.947,219.485c-0.006,30.296-24.569,54.854-54.867,54.854h54.867V219.485z"/>
	<path style="fill:#F6F792;" d="M274.344,219.485c-0.006,30.296-24.569,54.854-54.867,54.854h54.867V219.485z"/>
	<path style="fill:#F6F792;" d="M493.797,274.339c-30.297-0.007-54.855-24.569-54.855-54.867v54.867H493.797z"/>
	<path style="fill:#333745;" d="M274.325,219.472h0.013v-54.868H219.47C219.47,194.902,244.029,219.464,274.325,219.472z"/>
	<path style="fill:#333745;" d="M219.483,109.735h-0.013v54.868h54.868C274.338,134.305,249.779,109.743,219.483,109.735z"/>
	<path style="fill:#F6F792;" d="M219.458,164.603h0.013v-54.868h-54.868C164.602,140.034,189.162,164.596,219.458,164.603z"/>
	<path style="fill:#F6F792;" d="M164.614,54.868h-0.013v54.868h54.868C219.469,79.437,194.91,54.875,164.614,54.868z"/>
	<path style="fill:#333745;" d="M164.589,109.735h0.013V54.868h-54.868C109.733,85.166,134.293,109.728,164.589,109.735z"/>
	<path style="fill:#F6F792;" d="M274.338,329.194c0.007-30.296,24.569-54.855,54.868-54.855h-54.868V329.194z"/>
	<path style="fill:#333745;" d="M274.338,329.194v0.013h54.868v-54.868C298.907,274.339,274.345,298.898,274.338,329.194z"/>
	<path style="fill:#F6F792;" d="M219.482,274.339c30.298,0.007,54.855,24.569,54.855,54.868v-54.868H219.482z"/>
	<path style="fill:#F6F792;" d="M109.74,54.867c30.298,0.007,54.855,24.569,54.855,54.868V54.867H109.74z"/>
	<path style="fill:#F6F792;" d="M164.595,54.868C134.297,54.86,109.74,30.299,109.74,0v54.868H164.595z"/>
	<path style="fill:#F6F792;" d="M438.941,329.2c30.299,0.008,54.856,24.569,54.856,54.868V329.2H438.941z"/>
	<path style="fill:#F6F792;" d="M329.193,274.339c-30.297-0.007-54.855-24.569-54.855-54.867v54.867H329.193z"/>
	<path style="fill:#333745;" d="M329.193,274.339h0.013v-54.867h-54.868C274.338,249.77,298.896,274.332,329.193,274.339z"/>
	<path style="fill:#F6F792;" d="M438.949,219.484c-0.008,30.297-24.569,54.855-54.867,54.855h54.867V219.484z"/>
	<path style="fill:#333745;" d="M438.949,219.484v-0.013h-54.867v54.868C414.38,274.34,438.941,249.781,438.949,219.484z"/>
	<path style="fill:#F6F792;" d="M329.193,219.472c-30.297-0.007-54.855-24.569-54.855-54.868v54.868H329.193z"/>
	<path style="fill:#333745;" d="M438.935,219.472h-0.012v-54.868h54.867C493.79,194.902,469.231,219.464,438.935,219.472z"/>
	<path style="fill:#333745;" d="M493.777,109.735h0.013v54.868h-54.868C438.922,134.305,463.481,109.743,493.777,109.735z"/>
	<path style="fill:#F6F792;" d="M493.803,164.603h-0.013v-54.868h54.868C548.658,140.034,524.099,164.596,493.803,164.603z"/>
	<path style="fill:#F6F792;" d="M548.646,54.868h0.013v54.868h-54.868C493.791,79.437,518.351,54.875,548.646,54.868z"/>
	<path style="fill:#333745;" d="M548.671,109.735h-0.012V54.868h54.867C603.526,85.166,578.968,109.728,548.671,109.735z"/>
	<path style="fill:#F6F792;" d="M603.521,54.867c-30.298,0.007-54.855,24.569-54.855,54.868V54.867H603.521z"/>
	<path style="fill:#F6F792;" d="M548.665,54.868C578.963,54.86,603.521,30.299,603.521,0v54.868H548.665z"/>
	<path style="fill:#F6F792;" d="M384.067,219.472c30.297-0.007,54.855-24.569,54.855-54.868v54.868H384.067z"/>
	<rect x="329.206" y="274.339" style="fill:#F6F792;" width="54.868" height="54.868"/>
	<path style="fill:#F6F792;" d="M356.646,246.906c14.987,0,27.158,12.016,27.428,26.938v-54.366h-54.868v54.868l0,0
		C329.206,259.191,341.491,246.906,356.646,246.906z"/>
	<path style="fill:#333745;" d="M384.074,273.844c-0.27-14.922-12.44-26.938-27.428-26.938c-15.155,0-27.44,12.285-27.44,27.44
		h54.868V273.844z"/>
	<path style="fill:#333745;" d="M658.408,542.469h0.013v-54.867h-54.868C603.553,517.899,628.112,542.461,658.408,542.469z"/>
	<path style="fill:#333745;" d="M603.565,432.732h-0.012V487.6h54.867C658.421,457.302,633.862,432.74,603.565,432.732z"/>
	<path style="fill:#F6F792;" d="M603.54,487.6h0.014v-54.867h-54.869C548.685,463.031,573.245,487.593,603.54,487.6z"/>
	<path style="fill:#F6F792;" d="M548.696,377.865h-0.012v54.867h54.867C603.552,402.434,578.993,377.872,548.696,377.865z"/>
	<path style="fill:#333745;" d="M548.672,432.732h0.013v-54.867h-54.868C493.816,408.163,518.376,432.725,548.672,432.732z"/>
	<path style="fill:#F6F792;" d="M493.822,377.864c30.298,0.007,54.856,24.569,54.856,54.868v-54.868H493.822z"/>
	<path style="fill:#F6F792;" d="M548.679,377.865c-30.299-0.008-54.856-24.569-54.856-54.869v54.869H548.679z"/>
	<path style="fill:#F6F792;" d="M713.276,542.469c-30.297-0.008-54.855-24.569-54.855-54.867v54.867H713.276z"/>
	<path style="fill:#F6F792;" d="M274.335,329.2c-30.299,0.008-54.856,24.569-54.856,54.868V329.2H274.335z"/>
	<path style="fill:#333745;" d="M54.868,542.469h-0.013v-54.867h54.868C109.724,517.899,85.164,542.461,54.868,542.469z"/>
	<path style="fill:#333745;" d="M109.711,432.732h0.012V487.6H54.855C54.855,457.302,79.414,432.74,109.711,432.732z"/>
	<path style="fill:#F6F792;" d="M109.736,487.6h-0.014v-54.867h54.869C164.592,463.031,140.031,487.593,109.736,487.6z"/>
	<path style="fill:#F6F792;" d="M164.58,377.865h0.012v54.867h-54.867C109.725,402.434,134.283,377.872,164.58,377.865z"/>
	<path style="fill:#333745;" d="M164.604,432.732h-0.013v-54.867h54.868C219.46,408.163,194.9,432.725,164.604,432.732z"/>
	<path style="fill:#F6F792;" d="M219.454,377.864c-30.298,0.007-54.856,24.569-54.856,54.868v-54.868H219.454z"/>
	<path style="fill:#F6F792;" d="M164.598,377.865c30.299-0.008,54.856-24.569,54.856-54.869v54.869H164.598z"/>
	<path style="fill:#F6F792;" d="M0,542.469c30.297-0.008,54.855-24.569,54.855-54.867v54.867H0z"/>
</g>
<g id="Layer_1">
</g>
</svg>
