<?xml version="1.0" encoding="iso-8859-1"?>
<!-- Generator: Adobe Illustrator 16.0.0, SVG Export Plug-In . SVG Version: 6.00 Build 0)  -->
<!DOCTYPE svg PUBLIC "-//W3C//DTD SVG 1.1//EN" "http://www.w3.org/Graphics/SVG/1.1/DTD/svg11.dtd">
<svg version="1.1" xmlns="http://www.w3.org/2000/svg" xmlns:xlink="http://www.w3.org/1999/xlink" x="0px" y="0px"
	 width="400.06px" height="949.614px" viewBox="0 0 400.06 949.614" style="enable-background:new 0 0 400.06 949.614;"
	 xml:space="preserve">
<g id="head">
	<rect y="300.724" style="fill:#EC7263;" width="21.666" height="126.833"/>
	<rect x="21.666" y="209.221" style="fill:#57385C;" width="21.666" height="188.333"/>
	<rect x="43.332" y="153.889" style="fill:#A75265;" width="21.666" height="253.667"/>
	<rect x="64.998" y="113.885" style="fill:#57385C;" width="21.666" height="253.667"/>
	<rect x="86.664" y="154.885" style="fill:#EC7263;" width="21.666" height="212.667"/>
	<rect x="108.33" y="105.886" style="fill:#A75265;" width="21.666" height="271.667"/>
	<rect x="129.996" y="103.884" style="fill:#57385C;" width="21.666" height="253.667"/>
	<rect x="151.662" y="194.889" style="fill:#A75265;" width="21.666" height="212.667"/>
	<rect x="173.328" y="0.001" style="fill:#EC7263;" width="21.666" height="397.554"/>
	<rect x="194.994" y="239.224" style="fill:#57385C;" width="21.666" height="188.333"/>
	<rect x="216.66" y="93.017" style="fill:#57385C;" width="21.666" height="314.539"/>
	<rect x="238.326" y="30.889" style="fill:#A75265;" width="21.666" height="376.667"/>
	<rect x="259.992" y="173.891" style="fill:#57385C;" width="21.666" height="253.667"/>
	<rect x="281.658" y="154.885" style="fill:#EC7263;" width="21.666" height="212.667"/>
	<rect x="303.324" y="115.887" style="fill:#A75265;" width="21.666" height="271.667"/>
	<rect x="324.99" y="123.02" style="fill:#57385C;" width="21.666" height="314.539"/>
	<rect x="346.656" y="194.889" style="fill:#A75265;" width="21.666" height="212.667"/>
	<rect x="368.322" y="291.724" style="fill:#EC7263;" width="21.666" height="135.833"/>
	<rect x="378.395" y="512.941" style="fill:#57385C;" width="21.666" height="188.333"/>
	<rect x="356.729" y="542.944" style="fill:#57385C;" width="21.666" height="314.539"/>
	<rect x="335.062" y="572.947" style="fill:#A75265;" width="21.666" height="376.667"/>
	<rect x="313.396" y="512.941" style="fill:#57385C;" width="21.666" height="253.667"/>
	<rect x="291.73" y="532.943" style="fill:#EC7263;" width="21.666" height="314.539"/>
	<rect x="270.064" y="512.941" style="fill:#A75265;" width="21.666" height="347.258"/>
	<rect x="248.398" y="532.943" style="fill:#57385C;" width="21.666" height="314.539"/>
	<rect x="226.732" y="512.942" style="fill:#A75265;" width="21.666" height="359.258"/>
	<rect x="205.068" y="482.94" style="fill:#EC7263;" width="21.666" height="434.253"/>
	<rect x="182.766" y="488.942" style="fill:#57385C;" width="21.666" height="399.755"/>
	<rect x="161.101" y="532.943" style="fill:#57385C;" width="21.665" height="314.539"/>
	<rect x="139.435" y="572.947" style="fill:#A75265;" width="21.666" height="376.666"/>
	<rect x="117.769" y="532.943" style="fill:#57385C;" width="21.666" height="314.539"/>
	<rect x="96.103" y="582.948" style="fill:#EC7263;" width="21.666" height="303.189"/>
	<rect x="74.437" y="523.943" style="fill:#A75265;" width="21.666" height="271.666"/>
	<rect x="52.771" y="532.943" style="fill:#57385C;" width="21.666" height="314.539"/>
	<rect x="31.104" y="552.945" style="fill:#A75265;" width="21.666" height="212.666"/>
	<rect x="9.438" y="532.943" style="fill:#EC7263;" width="21.666" height="135.833"/>
</g>
<g id="Layer_1">
</g>
</svg>
