<?xml version="1.0" encoding="iso-8859-1"?>
<!-- Generator: Adobe Illustrator 16.0.0, SVG Export Plug-In . SVG Version: 6.00 Build 0)  -->
<!DOCTYPE svg PUBLIC "-//W3C//DTD SVG 1.1//EN" "http://www.w3.org/Graphics/SVG/1.1/DTD/svg11.dtd">
<svg version="1.1" xmlns="http://www.w3.org/2000/svg" xmlns:xlink="http://www.w3.org/1999/xlink" x="0px" y="0px"
	 width="340.178px" height="637.998px" viewBox="0 0 340.178 637.998" style="enable-background:new 0 0 340.178 637.998;"
	 xml:space="preserve">
<g id="rootEyeL">
	<path style="fill:#CC4200;" d="M173.196,2.177C56.988-12.534,5.505,49.984,0.354,109.56
		c-5.063,58.588,44.448,113.93,129.449,128.712c84.583,14.71,200.079-5.226,209.617-63.252
		C348.244,121.327,279.252,15.6,173.196,2.177z"/>
	<ellipse style="fill:#FFFFFF;" cx="306.556" cy="161.227" rx="5.896" ry="5.628"/>
	<path style="fill:#FFFFFF;" d="M217.125,231.565c-1.357,1.358-3.606,1.306-5.03-0.117c-1.42-1.42-1.474-3.672-0.114-5.03
		c1.354-1.355,3.607-1.303,5.031,0.117C218.431,227.958,218.481,230.209,217.125,231.565z"/>
	<path style="fill:#FFFFFF;" d="M154.374,221.934c-3.042,3.045-8.084,2.928-11.278-0.261c-3.184-3.185-3.305-8.235-0.257-11.281
		c3.038-3.04,8.089-2.922,11.282,0.264C157.305,213.844,157.417,218.895,154.374,221.934z"/>
	<ellipse id="dummy_14_" style="fill:#00FF00;" cx="306.556" cy="161.227" rx="5.896" ry="5.628"/>
	<g id="Layer_3">
		<path style="fill:#998D12;" d="M276.631,281.437c-24.722-44.52-70.484-51.082-97.233-31.221
			c-20.656,15.338-24.573,55.984-9.309,89.498c22.71,49.851,76.138,74.247,98.824,62.116
			C297.858,386.349,302.146,327.385,276.631,281.437z"/>
		<path style="fill:#FFFFFF;" d="M222.636,260.939c-2.337,2.337-6.251,2.205-8.757-0.298c-2.498-2.499-2.634-6.42-0.295-8.758
			c2.335-2.334,6.257-2.201,8.759,0.298C224.843,254.684,224.973,258.604,222.636,260.939z"/>
		<path style="fill:#FFFFFF;" d="M207.56,373.852c-0.944,0.947-2.479,0.938-3.429-0.013c-0.953-0.95-0.96-2.487-0.016-3.432
			s2.479-0.936,3.432,0.015C208.498,371.373,208.502,372.91,207.56,373.852z"/>
		<path id="dummy_8_" style="fill:#00FF00;" d="M222.636,260.939c-2.337,2.337-6.251,2.205-8.757-0.298
			c-2.498-2.499-2.634-6.42-0.295-8.758c2.335-2.334,6.257-2.201,8.759,0.298C224.843,254.684,224.973,258.604,222.636,260.939z"/>
		<g id="Layer_5">
			<path style="fill:#CC4200;" d="M212.806,394.938c-24.665-46.9-87.262-41.213-111.024-20.564
				c-35.136,30.531-45.622,73.09-30.836,108.639c22.006,52.878,97.852,59.13,124.355,44.199
				C229.111,508.161,238.262,443.341,212.806,394.938z"/>
			<path style="fill:#FFFFFF;" d="M194.117,387.847c-1.825,1.826-4.852,1.755-6.768-0.158c-1.911-1.91-1.984-4.942-0.154-6.77
				c1.821-1.824,4.855-1.753,6.767,0.156C195.876,382.989,195.943,386.021,194.117,387.847z"/>
			<path style="fill:#FFFFFF;" d="M208.58,507.548c-1.357,1.355-3.606,1.303-5.029-0.119c-1.42-1.418-1.475-3.672-0.115-5.027
				c1.354-1.357,3.607-1.305,5.029,0.117C209.886,503.937,209.937,506.19,208.58,507.548z"/>
			<path id="dummy_18_" style="fill:#00FF00;" d="M194.117,387.847c-1.825,1.826-4.852,1.755-6.768-0.158
				c-1.911-1.91-1.984-4.942-0.154-6.77c1.821-1.824,4.855-1.753,6.767,0.156C195.876,382.989,195.943,386.021,194.117,387.847z"/>
			<g id="Layer_7">
				<path style="fill:#998D12;" d="M275.228,517.844c-13.164-25.175-49.14-23.957-59.904-10.698
					c-10.362,12.764-15.491,30.552-7.628,49.647c11.711,28.403,43.262,40.482,57.626,32.351
					C283.653,578.768,288.815,543.83,275.228,517.844z"/>
				
					<ellipse transform="matrix(0.7068 0.7074 -0.7074 0.7068 427.7922 -1.0446)" style="fill:#FFFFFF;" cx="215.156" cy="515.548" rx="2.361" ry="2.254"/>
				
					<ellipse transform="matrix(0.7072 0.707 -0.707 0.7072 476.0027 6.8792)" style="fill:#FFFFFF;" cx="229.696" cy="578.145" rx="2.359" ry="2.253"/>
				
					<ellipse id="dummy_12_" transform="matrix(0.7068 0.7074 -0.7074 0.7068 427.7922 -1.0446)" style="fill:#00FF00;" cx="215.156" cy="515.548" rx="2.361" ry="2.254"/>
				<g id="Layer_8">
					<path style="fill:#CC4200;" d="M235.887,620.75c11.539-15.133,3.085-32.911-11.172-40.103
						c-11.009-5.554-27.933-1.515-37.424,8.644c-14.118,15.108-10.824,38.124-0.586,44.856
						C199.769,642.745,223.979,636.367,235.887,620.75z"/>
					
						<ellipse transform="matrix(0.7069 0.7073 -0.7073 0.7069 479.7153 14.0777)" style="fill:#FFFFFF;" cx="222.873" cy="585.827" rx="1.012" ry="0.966"/>
					
						<ellipse id="dummy_20_" transform="matrix(0.7069 0.7073 -0.7073 0.7069 479.7153 14.0777)" style="fill:#00FF00;" cx="222.873" cy="585.827" rx="1.012" ry="0.966"/>
				</g>
			</g>
		</g>
	</g>
	<g id="Layer_4">
		<path style="fill:#CC4200;" d="M152,307.331c19.855-26.042,5.306-56.636-19.228-69.012c-18.945-9.557-48.066-2.606-64.402,14.874
			c-24.295,26.003-18.626,65.608-1.007,77.2C89.845,345.184,131.508,334.211,152,307.331z"/>
		
			<ellipse transform="matrix(0.707 0.7072 -0.7072 0.707 255.548 37.7259)" style="fill:#FFFFFF;" cx="82.247" cy="327.254" rx="3.638" ry="3.474"/>
		<path style="fill:#FFFFFF;" d="M123.071,251.606c-1.826,1.827-4.851,1.756-6.767-0.157c-1.912-1.912-1.985-4.943-0.155-6.771
			c1.822-1.824,4.856-1.754,6.768,0.158C124.83,246.751,124.897,249.781,123.071,251.606z"/>
		<path id="dummy_9_" style="fill:#00FF00;" d="M123.071,251.606c-1.826,1.827-4.851,1.756-6.767-0.157
			c-1.912-1.912-1.985-4.943-0.155-6.771c1.822-1.824,4.856-1.754,6.768,0.158C124.83,246.751,124.897,249.781,123.071,251.606z"/>
		<g id="Layer_6">
			<path style="fill:#998D12;" d="M80.313,379.64c13.907,3.126,23.367-8.182,23.811-20.132c0.341-9.23-7.693-19.485-17.574-22.777
				c-14.696-4.892-29.333,4.539-30.718,13.613C54.061,361.921,65.962,376.411,80.313,379.64z"/>
			
				<ellipse transform="matrix(0.7074 0.7069 -0.7069 0.7074 265.3345 43.6954)" style="fill:#FFFFFF;" cx="79.896" cy="342.295" rx="2.435" ry="2.415"/>
			
				<ellipse id="dummy_16_" transform="matrix(0.7074 0.7069 -0.7069 0.7074 265.3345 43.6954)" style="fill:#00FF00;" cx="79.896" cy="342.295" rx="2.435" ry="2.415"/>
		</g>
	</g>
</g>
<g id="Layer_1">
</g>
</svg>
