<?xml version="1.0" encoding="iso-8859-1"?>
<!-- Generator: Adobe Illustrator 16.0.0, SVG Export Plug-In . SVG Version: 6.00 Build 0)  -->
<!DOCTYPE svg PUBLIC "-//W3C//DTD SVG 1.1//EN" "http://www.w3.org/Graphics/SVG/1.1/DTD/svg11.dtd">
<svg version="1.1" xmlns="http://www.w3.org/2000/svg" xmlns:xlink="http://www.w3.org/1999/xlink" x="0px" y="0px"
	 width="340.175px" height="631.24px" viewBox="0 0 340.175 631.24" style="enable-background:new 0 0 340.175 631.24;"
	 xml:space="preserve">
<g id="rootEyeR">
	<path style="fill:#CC4200;" d="M0.758,175.019c9.54,58.026,125.036,77.963,209.618,63.252
		c85.001-14.782,134.511-70.124,129.444-128.712C334.674,49.983,283.191-12.534,166.983,2.176
		C60.926,15.6-8.064,121.327,0.758,175.019z"/>
	<ellipse style="fill:#FFFFFF;" cx="45.124" cy="162.91" rx="8.616" ry="8.224"/>
	
		<ellipse transform="matrix(0.7071 0.7071 -0.7071 0.7071 204.9179 -29.6179)" style="fill:#FFFFFF;" cx="138.211" cy="232.549" rx="3.639" ry="3.476"/>
	<ellipse id="dummy_1_" style="fill:#00FF00;" cx="45.124" cy="162.91" rx="8.616" ry="8.224"/>
	<g id="Layer_10">
		<path style="fill:#998D12;" d="M195.491,279.293c-24.723-44.521-72.443-46.975-94.334-29.257
			c-19.998,16.185-44.491,50.728-20.332,100.042c24.103,49.192,89.263,54.826,120.996,36.047
			C230.068,369.405,221.006,325.241,195.491,279.293z"/>
		<path style="fill:#FFFFFF;" d="M144.373,257.415c-2.017,2.018-5.361,1.94-7.479-0.172c-2.112-2.112-2.189-5.459-0.17-7.476
			c2.013-2.016,5.358-1.937,7.475,0.173C146.311,252.053,146.384,255.4,144.373,257.415z"/>
		<path style="fill:#FFFFFF;" d="M157.611,387.581c-0.797,0.794-2.11,0.764-2.944-0.07c-0.833-0.828-0.862-2.148-0.067-2.941
			c0.792-0.793,2.109-0.763,2.942,0.069C158.373,385.471,158.402,386.787,157.611,387.581z"/>
		<path style="fill:#FFFFFF;" d="M197.594,305.671c-0.797,0.794-2.112,0.764-2.945-0.068c-0.832-0.832-0.862-2.148-0.066-2.943
			c0.792-0.792,2.108-0.762,2.942,0.069C198.354,303.561,198.384,304.878,197.594,305.671z"/>
		<path id="dummy_22_" style="fill:#00FF00;" d="M144.373,257.415c-2.017,2.018-5.361,1.94-7.479-0.172
			c-2.112-2.112-2.189-5.459-0.17-7.476c2.013-2.016,5.358-1.937,7.475,0.173C146.311,252.053,146.384,255.4,144.373,257.415z"/>
		<g id="Layer_15">
			<path style="fill:#CC4200;" d="M250.863,340.476c27.309,6.142,45.885-16.065,46.756-39.532
				c0.67-18.122-15.104-38.263-34.51-44.726c-28.857-9.602-57.598,8.912-60.32,26.733
				C199.314,305.685,222.681,334.136,250.863,340.476z"/>
			<path style="fill:#FFFFFF;" d="M217.114,299.7c-1.138,1.135-3.016,1.091-4.205-0.098c-1.191-1.187-1.233-3.067-0.097-4.202
				c1.131-1.131,3.012-1.088,4.202,0.099C218.203,296.686,218.244,298.568,217.114,299.7z"/>
			<path id="dummy_3_" style="fill:#00FF00;" d="M217.114,299.7c-1.138,1.135-3.016,1.091-4.205-0.098
				c-1.191-1.187-1.233-3.067-0.097-4.202c1.131-1.131,3.012-1.088,4.202,0.099C218.203,296.686,218.244,298.568,217.114,299.7z"/>
		</g>
		<g id="Layer_11">
			<path style="fill:#CC4200;" d="M178.42,462.793c23.221-16.617,17.339-52.021,2.808-60.771
				c-13.984-8.427-32.269-10.962-50.154-0.45c-26.605,15.635-34.464,48.562-24.543,61.611
				C119.185,479.829,154.458,479.942,178.42,462.793z"/>
			<path style="fill:#FFFFFF;" d="M110.301,442.747c-0.795,0.796-2.11,0.764-2.943-0.067c-0.834-0.832-0.863-2.148-0.067-2.943
				c0.791-0.792,2.108-0.764,2.941,0.068C111.063,440.637,111.092,441.955,110.301,442.747z"/>
			
				<ellipse transform="matrix(0.7072 0.707 -0.707 0.7072 368.8452 43.0531)" style="fill:#FFFFFF;" cx="132.441" cy="466.864" rx="2.129" ry="2.033"/>
			<path style="fill:#FFFFFF;" d="M157.892,405.271c-1.356,1.359-3.607,1.308-5.031-0.115c-1.422-1.422-1.475-3.672-0.115-5.031
				c1.354-1.354,3.605-1.303,5.029,0.117C159.196,401.667,159.245,403.916,157.892,405.271z"/>
			<path id="dummy_4_" style="fill:#00FF00;" d="M157.892,405.271c-1.356,1.359-3.607,1.308-5.031-0.115
				c-1.422-1.422-1.475-3.672-0.115-5.031c1.354-1.354,3.605-1.303,5.029,0.117C159.196,401.667,159.245,403.916,157.892,405.271z"
				/>
			<g id="Layer_12">
				<path style="fill:#998D12;" d="M174.973,508.58c-16.57-31.678-48.932-42.723-72.573-24.235
					c-22.057,17.248-28.701,40.612-23.577,60.618c12.864,50.232,64.553,54.502,80.054,48.824
					C194.007,580.923,194.007,544.963,174.973,508.58z"/>
				<path style="fill:#FFFFFF;" d="M132.934,481.792c-1.357,1.357-3.607,1.303-5.032-0.117c-1.422-1.42-1.474-3.672-0.114-5.03
					c1.354-1.355,3.604-1.305,5.029,0.117C134.237,478.182,134.285,480.437,132.934,481.792z"/>
				<path style="fill:#FFFFFF;" d="M159.258,586.062c-1.358,1.358-3.609,1.305-5.032-0.117c-1.422-1.42-1.474-3.672-0.115-5.029
					c1.354-1.355,3.605-1.303,5.03,0.117C160.562,582.455,160.609,584.707,159.258,586.062z"/>
				<path id="dummy_6_" style="fill:#00FF00;" d="M132.934,481.792c-1.357,1.357-3.607,1.303-5.032-0.117
					c-1.422-1.42-1.474-3.672-0.114-5.03c1.354-1.355,3.604-1.305,5.029,0.117C134.237,478.182,134.285,480.437,132.934,481.792z"/>
				<g id="Layer_14">
					<path style="fill:#CC4200;" d="M190.467,617.887c8.933-11.716,2.388-25.476-8.649-31.045
						c-8.523-4.299-21.622-1.175-28.972,6.69c-10.93,11.697-8.379,29.516-0.452,34.729
						C162.506,634.915,181.25,629.979,190.467,617.887z"/>
					<path style="fill:#FFFFFF;" d="M164.404,600.393c-0.625,0.628-1.664,0.603-2.316-0.051c-0.656-0.656-0.68-1.693-0.055-2.317
						c0.625-0.625,1.661-0.603,2.315,0.053C165.005,598.734,165.027,599.771,164.404,600.393z"/>
					<path id="dummy_26_" style="fill:#00FF00;" d="M164.404,600.393c-0.625,0.628-1.664,0.603-2.316-0.051
						c-0.656-0.656-0.68-1.693-0.055-2.317c0.625-0.625,1.661-0.603,2.315,0.053C165.005,598.734,165.027,599.771,164.404,600.393z"
						/>
				</g>
			</g>
			<g id="Layer_13">
				<path style="fill:#CC4200;" d="M99.365,448.741c8.932-11.717,2.387-25.479-8.65-31.046c-8.523-4.302-21.623-1.174-28.973,6.69
					c-10.93,11.697-8.379,29.515-0.451,34.729C71.404,465.768,90.148,460.832,99.365,448.741z"/>
				<path style="fill:#FFFFFF;" d="M99.358,440.43c-0.795,0.795-2.11,0.763-2.943-0.067c-0.834-0.833-0.862-2.148-0.066-2.944
					c0.79-0.791,2.107-0.762,2.94,0.068C100.121,438.318,100.149,439.637,99.358,440.43z"/>
				<path id="dummy_24_" style="fill:#00FF00;" d="M99.358,440.43c-0.795,0.795-2.11,0.763-2.943-0.067
					c-0.834-0.833-0.862-2.148-0.066-2.944c0.79-0.791,2.107-0.762,2.94,0.068C100.121,438.318,100.149,439.637,99.358,440.43z"/>
			</g>
		</g>
	</g>
</g>
<g id="Layer_1">
</g>
</svg>
