<?xml version="1.0" encoding="iso-8859-1"?>
<!-- Generator: Adobe Illustrator 16.0.0, SVG Export Plug-In . SVG Version: 6.00 Build 0)  -->
<!DOCTYPE svg PUBLIC "-//W3C//DTD SVG 1.1//EN" "http://www.w3.org/Graphics/SVG/1.1/DTD/svg11.dtd">
<svg version="1.1" xmlns="http://www.w3.org/2000/svg" xmlns:xlink="http://www.w3.org/1999/xlink" x="0px" y="0px"
	 width="839.837px" height="1149.061px" viewBox="0 0 839.837 1149.061" style="enable-background:new 0 0 839.837 1149.061;"
	 xml:space="preserve">
<g id="head">
	<polygon style="fill:#EF6F56;" points="420.849,453.49 0,451.788 281.304,285.181 422.684,0 	"/>
	<polygon style="fill:#76D6D2;" points="420.849,453.49 0,451.788 302.503,319.181 521.837,0 	"/>
	<polygon style="fill:#596B56;" points="420.849,453.49 0,451.788 335.837,359.042 635.837,35.181 	"/>
	<polygon style="fill:#EF6F56;" points="420.849,453.49 0,451.788 328.109,405.848 743.837,73.181 	"/>
	<polygon style="fill:#76D6D2;" points="420.849,453.49 0,451.788 328.109,405.848 839.837,193.181 	"/>
	<polygon style="fill:#EF6F56;" points="352.912,726.325 89.158,725.259 264.399,882.104 351.205,1148.437 	"/>
	<polygon style="fill:#76D6D2;" points="352.912,726.325 89.158,725.259 277.9,850.592 413.344,1149.061 	"/>
	<polygon style="fill:#596B56;" points="352.912,726.325 89.158,725.259 299.041,813.701 485.009,1117.034 	"/>
	<polygon style="fill:#EF6F56;" points="352.912,726.325 89.158,725.259 294.493,770.086 552.931,1082.345 	"/>
	<polygon style="fill:#76D6D2;" points="352.912,726.325 89.158,725.259 294.493,770.086 613.851,971.256 	"/>
</g>
<g id="Layer_1">
</g>
</svg>
