<?xml version="1.0" encoding="iso-8859-1"?>
<!-- Generator: Adobe Illustrator 16.0.0, SVG Export Plug-In . SVG Version: 6.00 Build 0)  -->
<!DOCTYPE svg PUBLIC "-//W3C//DTD SVG 1.1//EN" "http://www.w3.org/Graphics/SVG/1.1/DTD/svg11.dtd">
<svg version="1.1" xmlns="http://www.w3.org/2000/svg" xmlns:xlink="http://www.w3.org/1999/xlink" x="0px" y="0px"
	 width="833.297px" height="763.049px" viewBox="0 0 833.297 763.049" style="enable-background:new 0 0 833.297 763.049;"
	 xml:space="preserve">
<g id="head">
	<polygon style="opacity:0.4;fill:#EF6F56;" points="71.696,71.696 229.695,229.696 387.696,71.696 	"/>
	<polygon style="opacity:0.5;fill:#76D6D2;" points="445.6,387.696 603.599,229.696 761.6,387.696 	"/>
	<polygon style="opacity:0.4;fill:#F9E270;" points="71.696,387.696 387.696,387.696 416.648,761.354 	"/>
	<polygon style="fill:#F9E270;" points="2.5,71.696 2.5,2.5 71.696,71.696 	"/>
	<polygon style="fill:#EF6F56;" points="2.5,456.893 71.696,387.696 71.696,456.893 	"/>
	<polygon style="fill:#76D6D2;" points="761.6,456.893 761.6,387.696 830.797,456.893 	"/>
	<polygon style="fill:#596B56;" points="761.6,71.696 830.797,2.5 830.797,71.696 	"/>
	<circle style="fill:#EF6F56;" cx="505.268" cy="242.687" r="14.585"/>
	<rect x="71.696" y="71.696" style="fill:none;stroke:#F9E270;stroke-width:5;stroke-miterlimit:10;" width="316" height="316"/>
	
		<rect x="2.5" y="387.696" style="fill:none;stroke:#F9E270;stroke-width:5;stroke-miterlimit:10;" width="69.196" height="69.196"/>
	<rect x="445.6" y="71.696" style="fill:none;stroke:#F9E270;stroke-width:5;stroke-miterlimit:10;" width="316" height="316"/>
	
		<rect x="761.6" y="387.696" style="fill:none;stroke:#F9E270;stroke-width:5;stroke-miterlimit:10;" width="69.197" height="69.196"/>
	<rect x="761.6" y="2.5" style="fill:none;stroke:#F9E270;stroke-width:5;stroke-miterlimit:10;" width="69.197" height="69.196"/>
	<rect x="2.5" y="2.5" style="fill:none;stroke:#F9E270;stroke-width:5;stroke-miterlimit:10;" width="69.196" height="69.196"/>
	<line style="fill:none;stroke:#F9E270;stroke-width:5;stroke-miterlimit:10;" x1="2.5" y1="2.5" x2="387.696" y2="387.696"/>
	<line style="fill:none;stroke:#F9E270;stroke-width:5;stroke-miterlimit:10;" x1="445.6" y1="387.696" x2="830.797" y2="2.5"/>
	<line style="fill:none;stroke:#F9E270;stroke-width:5;stroke-miterlimit:10;" x1="2.5" y1="456.893" x2="387.696" y2="71.696"/>
	<line style="fill:none;stroke:#F9E270;stroke-width:5;stroke-miterlimit:10;" x1="445.6" y1="71.696" x2="830.797" y2="456.893"/>
	
		<line style="fill:none;stroke:#F9E270;stroke-width:5;stroke-miterlimit:10;" x1="71.696" y1="387.696" x2="416.648" y2="761.354"/>
	<line style="fill:none;stroke:#F9E270;stroke-width:5;stroke-miterlimit:10;" x1="416.648" y1="761.354" x2="761.6" y2="387.696"/>
	
		<line style="fill:none;stroke:#F9E270;stroke-width:5;stroke-miterlimit:10;" x1="387.696" y1="387.696" x2="416.648" y2="761.354"/>
	<line style="fill:none;stroke:#F9E270;stroke-width:5;stroke-miterlimit:10;" x1="416.648" y1="761.354" x2="445.6" y2="387.696"/>
	<line style="fill:none;stroke:#F9E270;stroke-width:5;stroke-miterlimit:10;" x1="761.6" y1="2.5" x2="71.696" y2="71.696"/>
	<line style="fill:none;stroke:#F9E270;stroke-width:5;stroke-miterlimit:10;" x1="761.6" y1="71.696" x2="71.696" y2="2.5"/>
</g>
<g id="Layer_1">
</g>
</svg>
