<?xml version="1.0" encoding="iso-8859-1"?>
<!-- Generator: Adobe Illustrator 16.0.0, SVG Export Plug-In . SVG Version: 6.00 Build 0)  -->
<!DOCTYPE svg PUBLIC "-//W3C//DTD SVG 1.1//EN" "http://www.w3.org/Graphics/SVG/1.1/DTD/svg11.dtd">
<svg version="1.1" xmlns="http://www.w3.org/2000/svg" xmlns:xlink="http://www.w3.org/1999/xlink" x="0px" y="0px"
	 width="521.223px" height="326.453px" viewBox="0 0 521.223 326.453" style="enable-background:new 0 0 521.223 326.453;"
	 xml:space="preserve">
<g id="blobs">
	<path style="fill:#FF0000;" d="M285.509,145.088c-60.351-14.522-84,32.269-189-37.5c-51.106-33.959,21.5,178.5,96,126
		c38.106-26.854,65-69,80-34.5s50,78.5,73.5,61s2.581-54.108,21.121-71.544c27-25.391,115.379-102.785,92.879-117.285
		S379.009,167.586,285.509,145.088z"/>
	<path style="fill:#FF0000;" d="M159.676,105.754c18.081,25.556,35.999,49.333,63.333,33.333s24,26.319,72.667,5.492
		c48.667-20.826,56-33.492,56-67.492s-86.667-33.953-50-52.667c36.667-18.715,12-32.762-18-18.715c-30,14.048-10,48.431-28,64.24
		c-18,15.808-60.667,14.191-78.667,0C159.009,55.754,140.2,78.228,159.676,105.754z"/>
	<path style="fill:#FF0000;" d="M104.114,216.929c44,70.761,149.462,35.075,115.69,73.428
		c-33.772,38.354-89.69-46.996-127.69-14.831s-95,82.588-92,23.876c3-58.711,74-10.09,70-55.9S87.713,190.554,104.114,216.929z"/>
	<path style="fill:#FF0000;" d="M396.447,179.823c-53.333-24.684-128.801,72.181-95.029,110.533
		c33.772,38.354,89.69-46.996,127.69-14.831s95,82.588,92,23.876c-3-58.711-74-10.09-70-55.9S424.634,192.868,396.447,179.823z"/>
</g>
<g id="Layer_1">
</g>
</svg>
