<?xml version="1.0" encoding="iso-8859-1"?>
<!-- Generator: Adobe Illustrator 16.0.0, SVG Export Plug-In . SVG Version: 6.00 Build 0)  -->
<!DOCTYPE svg PUBLIC "-//W3C//DTD SVG 1.1//EN" "http://www.w3.org/Graphics/SVG/1.1/DTD/svg11.dtd">
<svg version="1.1" xmlns="http://www.w3.org/2000/svg" xmlns:xlink="http://www.w3.org/1999/xlink" x="0px" y="0px"
	 width="249.318px" height="431.484px" viewBox="0 0 249.318 431.484" style="enable-background:new 0 0 249.318 431.484;"
	 xml:space="preserve">
<g id="cheekR">
	
		<linearGradient id="SVGID_1_" gradientUnits="userSpaceOnUse" x1="-189.8477" y1="656.4072" x2="-256.6213" y2="588.4553" gradientTransform="matrix(0.2618 0.9651 0.9651 -0.2618 -394.5527 497.9781)">
		<stop  offset="0" style="stop-color:#87D0A1"/>
		<stop  offset="1" style="stop-color:#EA4A73;stop-opacity:0"/>
	</linearGradient>
	<path style="fill:url(#SVGID_1_);" d="M71.674,179.189c42.189-76.093,38.703,43.836,59.102,12.966
		c20.397-30.87,27.857-61.819,43.13-94.472c15.271-32.651-4.17-95.502-44.629-82.275c-40.457,13.228,6.979,53.623-25.791,59.513
		C70.714,80.811,60.769,198.857,71.674,179.189z"/>
	
		<linearGradient id="SVGID_2_" gradientUnits="userSpaceOnUse" x1="119.6528" y1="829.1201" x2="13.8967" y2="721.4978" gradientTransform="matrix(0.7064 0.7078 0.7078 -0.7064 -380.9567 622.6071)">
		<stop  offset="0" style="stop-color:#87D0A1"/>
		<stop  offset="1" style="stop-color:#EA4A73;stop-opacity:0"/>
	</linearGradient>
	<path style="fill:url(#SVGID_2_);" d="M120.029,139.078c58.769-13.642,95.629,100.581,125.365,71.72
		c26.551-25.771-90.23-85.94-93.182-121.866c-2.952-35.926-32.743-71.639-45.865-55.376c-26.729,33.128,29.293,46.239,3.769,67.621
		C84.594,122.558,98.124,144.163,120.029,139.078z"/>
	
		<linearGradient id="SVGID_3_" gradientUnits="userSpaceOnUse" x1="89.0264" y1="627.4404" x2="20.6703" y2="557.8782" gradientTransform="matrix(0.7114 1.1041 1.0421 -0.6714 -486.8793 620.9814)">
		<stop  offset="0" style="stop-color:#87D0A1"/>
		<stop  offset="1" style="stop-color:#EA4A73;stop-opacity:0"/>
	</linearGradient>
	<path style="fill:url(#SVGID_3_);" d="M163.752,428.121c38.921-24.272-17.552-164.584-12.856-210.599
		c4.695-46.014-14.431-110.236-34.486-93.812c-40.852,33.457-31.705,80.175,21.696,141.872
		C176.651,310.118,120.163,455.305,163.752,428.121z"/>
	
		<linearGradient id="SVGID_4_" gradientUnits="userSpaceOnUse" x1="342.3018" y1="309.1426" x2="221.9842" y2="186.7019" gradientTransform="matrix(0.5933 -0.805 -0.805 -0.5933 109.0739 424.0525)">
		<stop  offset="0" style="stop-color:#87D0A1"/>
		<stop  offset="1" style="stop-color:#EA4A73;stop-opacity:0"/>
	</linearGradient>
	<path style="fill:url(#SVGID_4_);" d="M103.503,158.43C81.165,102.387,197.837,34.332,164.826,9.282
		c-29.477-22.366-27.47,1.145-20.637,13.508C167.442,64.854-16.807,177.329,1.248,187.853
		c36.775,21.433,41.298-35.926,66.281-13.914C92.51,195.949,111.83,179.32,103.503,158.43z"/>
</g>
<g id="Layer_1">
</g>
</svg>
