<?xml version="1.0" encoding="iso-8859-1"?>
<!-- Generator: Adobe Illustrator 16.0.0, SVG Export Plug-In . SVG Version: 6.00 Build 0)  -->
<!DOCTYPE svg PUBLIC "-//W3C//DTD SVG 1.1//EN" "http://www.w3.org/Graphics/SVG/1.1/DTD/svg11.dtd">
<svg version="1.1" xmlns="http://www.w3.org/2000/svg" xmlns:xlink="http://www.w3.org/1999/xlink" x="0px" y="0px"
	 width="316.81px" height="521.608px" viewBox="0 0 316.81 521.608" style="enable-background:new 0 0 316.81 521.608;"
	 xml:space="preserve">
<g id="cheekR">
	<g id="Layer_15">
		
			<linearGradient id="SVGID_1_" gradientUnits="userSpaceOnUse" x1="-157.2261" y1="694.3359" x2="-255.0376" y2="594.7984" gradientTransform="matrix(0.2618 0.9651 0.9651 -0.2618 -413.6234 522.9124)">
			<stop  offset="0" style="stop-color:#87D0A1"/>
			<stop  offset="1" style="stop-color:#EA4A73;stop-opacity:0"/>
		</linearGradient>
		<path style="fill:url(#SVGID_1_);" d="M43.1,242.557c61.801-111.466,56.694,64.213,86.575,18.99
			c29.878-45.219,40.807-90.555,63.179-138.386c22.369-47.83-6.109-139.898-65.375-120.522
			C68.215,22.016,137.702,81.189,89.7,89.817C41.694,98.444,27.125,271.367,43.1,242.557z"/>
		
			<linearGradient id="SVGID_2_" gradientUnits="userSpaceOnUse" x1="139.6558" y1="851.7686" x2="33.8997" y2="744.1462" gradientTransform="matrix(0.7064 0.7078 0.7078 -0.7064 -403.1203 676.0381)">
			<stop  offset="0" style="stop-color:#87D0A1"/>
			<stop  offset="1" style="stop-color:#EA4A73;stop-opacity:0"/>
		</linearGradient>
		<path style="fill:url(#SVGID_2_);" d="M128.028,190.668c58.768-13.643,95.628,100.58,125.365,71.719
			c26.551-25.77-90.23-85.939-93.182-121.866c-2.952-35.926-32.743-71.639-45.865-55.376c-26.729,33.128,29.293,46.239,3.769,67.621
			C92.592,174.146,106.122,195.752,128.028,190.668z"/>
		
			<linearGradient id="SVGID_3_" gradientUnits="userSpaceOnUse" x1="115.9336" y1="652.6064" x2="47.5776" y2="583.0442" gradientTransform="matrix(0.7114 1.1041 1.0421 -0.6714 -524.2473 659.7615)">
			<stop  offset="0" style="stop-color:#87D0A1"/>
			<stop  offset="1" style="stop-color:#EA4A73;stop-opacity:0"/>
		</linearGradient>
		<path style="fill:url(#SVGID_3_);" d="M171.75,479.711c38.92-24.273-17.551-164.584-12.856-210.6
			c4.695-46.014-14.431-110.236-34.486-93.811c-40.852,33.457-31.705,80.174,21.696,141.871
			C184.648,361.707,128.162,506.895,171.75,479.711z"/>
		
			<linearGradient id="SVGID_4_" gradientUnits="userSpaceOnUse" x1="334.3096" y1="427.4043" x2="213.9927" y2="304.9643" gradientTransform="matrix(0.9871 -0.1603 -0.1603 -0.9871 -56.8891 481.0537)">
			<stop  offset="0" style="stop-color:#87D0A1"/>
			<stop  offset="1" style="stop-color:#EA4A73;stop-opacity:0"/>
		</linearGradient>
		<path style="fill:url(#SVGID_4_);" d="M98.064,171.863c23.233-55.677,154.218-22.713,148.146-63.705
			c-5.424-36.602-20.434-18.396-24.197-4.78C209.211,149.705-1.14,101.223,4.404,121.372c11.292,41.041,54.644,3.209,57.103,36.414
			C63.965,190.99,89.404,192.619,98.064,171.863z"/>
	</g>
	<g id="Layer_10_copy">
		<g id="Layer_11_copy">
			<rect x="205.141" y="261.281" style="fill:#87D0A1;" width="14.041" height="12.102"/>
			<rect x="67.221" y="102.546" style="opacity:0;fill:#EA4A73;" width="14.042" height="12.102"/>
		</g>
		<g id="Layer_12_copy">
			<rect x="302.767" y="244.96" style="fill:#87D0A1;" width="14.043" height="12.102"/>
			<rect x="85.927" y="111.679" style="opacity:0;fill:#EA4A73;" width="14.042" height="12.102"/>
		</g>
		<g id="Layer_13_copy">
			<rect x="198.119" y="509.507" style="fill:#87D0A1;" width="14.041" height="12.102"/>
			<rect x="66.515" y="234.891" style="opacity:0;fill:#EA4A73;" width="14.042" height="12.102"/>
		</g>
		<g id="Layer_14_copy">
			<rect x="268.203" y="86.617" style="fill:#FBE3B8;" width="14.043" height="12.102"/>
			<rect y="134.582" style="opacity:0;fill:#EA4A73;" width="14.042" height="12.102"/>
		</g>
	</g>
</g>
<g id="Layer_1">
</g>
</svg>
