<?xml version="1.0" encoding="iso-8859-1"?>
<!-- Generator: Adobe Illustrator 16.0.0, SVG Export Plug-In . SVG Version: 6.00 Build 0)  -->
<!DOCTYPE svg PUBLIC "-//W3C//DTD SVG 1.1//EN" "http://www.w3.org/Graphics/SVG/1.1/DTD/svg11.dtd">
<svg version="1.1" xmlns="http://www.w3.org/2000/svg" xmlns:xlink="http://www.w3.org/1999/xlink" x="0px" y="0px"
	 width="488.163px" height="313.549px" viewBox="0 0 488.163 313.549" style="enable-background:new 0 0 488.163 313.549;"
	 xml:space="preserve">
<g id="head">
	<g id="Layer_9">
		<linearGradient id="SVGID_1_" gradientUnits="userSpaceOnUse" x1="238.9268" y1="294.126" x2="251.9267" y2="145.126">
			<stop  offset="0" style="stop-color:#EA4A73"/>
			<stop  offset="1" style="stop-color:#FBE3B8;stop-opacity:0"/>
		</linearGradient>
		<path style="fill:url(#SVGID_1_);" d="M270.089,145.089c-60.351-14.522-84,32.269-189-37.5c-51.106-33.959,21.5,178.5,96,126
			c38.106-26.854,65-69,80-34.5s50,78.5,73.5,61s2.581-54.108,21.121-71.544c26.999-25.392,115.38-102.784,92.88-117.284
			S363.589,167.587,270.089,145.089z"/>
		<linearGradient id="SVGID_2_" gradientUnits="userSpaceOnUse" x1="335.1221" y1="170.4922" x2="221.7892" y2="55.1595">
			<stop  offset="0" style="stop-color:#87D0A1"/>
			<stop  offset="1" style="stop-color:#EA4A73;stop-opacity:0"/>
		</linearGradient>
		<path style="fill:url(#SVGID_2_);" d="M144.256,105.755c18.081,25.557,35.999,49.334,63.333,33.334s24,26.318,72.667,5.492
			s56-33.492,56-67.492s-86.667-33.953-50-52.667c36.667-18.715,12-32.762-18-18.715c-30,14.048-10,48.431-28,64.24
			c-18,15.808-60.667,14.19-78.667,0C143.589,55.755,124.78,78.229,144.256,105.755z"/>
		
			<linearGradient id="SVGID_3_" gradientUnits="userSpaceOnUse" x1="-2191.1392" y1="354.4414" x2="-2301.738" y2="241.8909" gradientTransform="matrix(-1 0 0 1 -1906.833 0)">
			<stop  offset="0" style="stop-color:#87D0A1"/>
			<stop  offset="1" style="stop-color:#EA4A73;stop-opacity:0"/>
		</linearGradient>
		<path style="fill:url(#SVGID_3_);" d="M363.389,166.919c-53.334-24.684-128.802,72.181-95.03,110.533
			c33.772,38.354,89.69-46.996,127.69-14.831c38,32.164,95,82.588,92,23.876s-74-10.09-70-55.901
			C422.049,184.785,391.574,179.964,363.389,166.919z"/>
		<linearGradient id="SVGID_4_" gradientUnits="userSpaceOnUse" x1="250.3516" y1="260.8887" x2="7.6861" y2="233.5553">
			<stop  offset="0" style="stop-color:#FBE3B8"/>
			<stop  offset="1" style="stop-color:#EA4A73;stop-opacity:0"/>
		</linearGradient>
		<path style="fill:url(#SVGID_4_);" d="M104.114,191.119c44,70.761,149.462,35.075,115.69,73.428
			c-33.772,38.354-89.69-46.996-127.69-14.831c-38,32.164-95,82.588-92,23.876s74-10.09,70-55.901
			C66.114,171.88,87.713,164.743,104.114,191.119z"/>
	</g>
	<g id="Layer_10">
		<g id="Layer_11">
			<rect x="140.998" y="258.008" style="fill:#EA4A73;" width="14.042" height="12.102"/>
			<rect x="155.04" y="142.423" style="opacity:0;fill:#FBE3B8;" width="14.042" height="12.102"/>
		</g>
		<g id="Layer_12">
			<rect x="343.277" y="100.617" style="fill:#87D0A1;" width="14.041" height="12.102"/>
			<rect x="180.707" y="57.846" style="opacity:0;fill:#EA4A73;" width="14.042" height="12.102"/>
		</g>
		<g id="Layer_13">
			<rect x="226.363" y="294.593" style="fill:#87D0A1;" width="14.042" height="12.102"/>
			<rect x="384.664" y="193.652" style="opacity:0;fill:#EA4A73;" width="14.041" height="12.102"/>
		</g>
		<g id="Layer_14">
			<rect x="273.04" y="264.059" style="fill:#FBE3B8;" width="14.042" height="12.102"/>
			<rect x="38.041" y="226.043" style="opacity:0;fill:#EA4A73;" width="14.042" height="12.102"/>
		</g>
	</g>
</g>
<g id="Layer_1">
</g>
</svg>
