<?xml version="1.0" encoding="iso-8859-1"?>
<!-- Generator: Adobe Illustrator 16.0.0, SVG Export Plug-In . SVG Version: 6.00 Build 0)  -->
<!DOCTYPE svg PUBLIC "-//W3C//DTD SVG 1.1//EN" "http://www.w3.org/Graphics/SVG/1.1/DTD/svg11.dtd">
<svg version="1.1" xmlns="http://www.w3.org/2000/svg" xmlns:xlink="http://www.w3.org/1999/xlink" x="0px" y="0px"
	 width="501.536px" height="368.246px" viewBox="0 0 501.536 368.246" style="enable-background:new 0 0 501.536 368.246;"
	 xml:space="preserve">
<g id="browR">
	<path style="fill:#D65336;" d="M310.501,177.123c-105.554,0-191.122,85.565-191.122,191.124c0-45.561,36.932-82.49,82.491-82.49
		c45.056,0,81.643,36.121,82.453,80.982v1.508h217.213v-3.496C499.657,260.812,414.889,177.123,310.501,177.123z"/>
	<path style="fill:#D65336;" d="M310.501,177.123c-105.554,0-191.122,85.565-191.122,191.124c0-45.561,36.932-82.49,82.491-82.49
		c45.056,0,81.643,36.121,82.453,80.982v1.508h217.213v-3.496C499.657,260.812,414.889,177.123,310.501,177.123z"/>
	<path style="fill:#DE755E;" d="M260.254,137.572C157.653,162.37,94.58,265.641,119.379,368.246
		c-10.705-44.287,16.518-88.858,60.804-99.562c43.794-10.585,87.843,15.931,99.17,59.347l0.354,1.467l211.134-51.027l-0.822-3.398
		C463.777,174.484,361.721,113.05,260.254,137.572z"/>
	<path style="fill:#E69886;" d="M202.121,110.933c-93.904,48.206-130.95,163.403-82.742,257.313
		c-20.81-40.533-4.819-90.254,35.713-111.061c40.081-20.576,89.127-5.15,110.335,34.389l0.688,1.344l193.239-99.199l-1.597-3.109
		C408.621,99,294.987,63.261,202.121,110.933z"/>
	<path style="fill:#EFBAAF;" d="M139.357,98.695c-79.952,68.917-88.9,189.594-19.979,269.551
		C89.629,333.734,93.492,281.65,128,251.902c34.128-29.414,85.425-25.943,115.327,7.508l0.985,1.144L408.84,118.735l-2.283-2.647
		C337.275,38.585,218.426,30.542,139.357,98.695z"/>
	<path style="fill:#F7DDD7;" d="M75.476,101.544c-61.526,85.77-41.874,205.172,43.903,266.702
		c-37.024-26.559-45.507-78.092-18.951-115.113c26.262-36.609,76.938-45.285,113.862-19.795l1.228,0.879L342.123,57.718
		l-2.841-2.038C253.733-3.377,136.32,16.724,75.476,101.544z"/>
	<path style="fill:#FFFFFF;" d="M14.051,119.321c-39.656,97.824,7.497,209.267,105.328,248.925
		C77.15,351.129,56.8,303.029,73.914,260.805c16.929-41.752,64.147-62.092,106.026-45.988l1.399,0.566L262.94,14.081l-3.241-1.313
		C162.671-24.541,53.267,22.581,14.051,119.321z"/>
</g>
<g id="Layer_1">
</g>
</svg>
