<?xml version="1.0" encoding="iso-8859-1"?>
<!-- Generator: Adobe Illustrator 16.0.0, SVG Export Plug-In . SVG Version: 6.00 Build 0)  -->
<!DOCTYPE svg PUBLIC "-//W3C//DTD SVG 1.1//EN" "http://www.w3.org/Graphics/SVG/1.1/DTD/svg11.dtd">
<svg version="1.1" xmlns="http://www.w3.org/2000/svg" xmlns:xlink="http://www.w3.org/1999/xlink" x="0px" y="0px"
	 width="200.389px" height="210.161px" viewBox="0 0 200.389 210.161" style="enable-background:new 0 0 200.389 210.161;"
	 xml:space="preserve">
<g id="cheekL">
	
		<linearGradient id="SVGID_1_" gradientUnits="userSpaceOnUse" x1="1948.2529" y1="-3523.916" x2="1914.6353" y2="-3433.8447" gradientTransform="matrix(-0.3671 1.7173 -1.4833 -0.3171 -4334.6792 -4305.9512)">
		<stop  offset="0" style="stop-color:#CF9777"/>
		<stop  offset="1" style="stop-color:#A1002C;stop-opacity:0"/>
	</linearGradient>
	<path style="fill:url(#SVGID_1_);" d="M157.969,195.354c4.17-103.201-94.057-237.87-124.423-165.966
		C-6.395,123.966,112.805,188.153,157.969,195.354z"/>
	
		<linearGradient id="SVGID_2_" gradientUnits="userSpaceOnUse" x1="1933.8848" y1="-3491.9258" x2="1910.7053" y2="-3429.8215" gradientTransform="matrix(-0.3671 1.7173 -1.4833 -0.3171 -4334.6792 -4305.9512)">
		<stop  offset="0" style="stop-color:#CF9777"/>
		<stop  offset="1" style="stop-color:#A1002C;stop-opacity:0"/>
	</linearGradient>
	<path style="fill:url(#SVGID_2_);" d="M121.22,149.607c9.585-49.454-64.872-164.061-85.815-114.468
		C7.857,100.37,77.472,121.486,121.22,149.607z"/>
	
		<linearGradient id="SVGID_3_" gradientUnits="userSpaceOnUse" x1="1911.5889" y1="-3461.3008" x2="1894.0375" y2="-3414.2756" gradientTransform="matrix(-0.3671 1.7173 -1.4833 -0.3171 -4334.6792 -4305.9512)">
		<stop  offset="0" style="stop-color:#CF9777"/>
		<stop  offset="1" style="stop-color:#A1002C;stop-opacity:0"/>
	</linearGradient>
	<path style="fill:url(#SVGID_3_);" d="M86.436,96.529C93.353,50.863,37.32-27.684,21.463,9.863
		C0.607,59.251,56.138,70.82,86.436,96.529z"/>
	
		<linearGradient id="SVGID_4_" gradientUnits="userSpaceOnUse" x1="1901.5605" y1="-3442.7661" x2="1889.3334" y2="-3410.0061" gradientTransform="matrix(-0.3671 1.7173 -1.4833 -0.3171 -4334.6792 -4305.9512)">
		<stop  offset="0" style="stop-color:#CF9777"/>
		<stop  offset="1" style="stop-color:#A1002C;stop-opacity:0"/>
	</linearGradient>
	<path style="fill:url(#SVGID_4_);" d="M65.74,67.255c6.92-28.937-34.22-86.543-45.269-60.383
		C5.941,41.282,41.471,39.153,65.74,67.255z"/>
	
		<linearGradient id="SVGID_5_" gradientUnits="userSpaceOnUse" x1="-385.2627" y1="-1557.6553" x2="-473.9278" y2="-1590.166" gradientTransform="matrix(-0.8807 -1.2882 -1.1151 0.9779 -2017.2086 1141.7542)">
		<stop  offset="0" style="stop-color:#CF9777"/>
		<stop  offset="1" style="stop-color:#A1002C;stop-opacity:0"/>
	</linearGradient>
	<path style="fill:url(#SVGID_5_);" d="M0,48.265c44.075,88.466,235.865,83.772,194.614,141.664
		C155.202,245.241,27.333,183.599,0,48.265z"/>
</g>
<g id="Layer_1">
</g>
</svg>
