<?xml version="1.0" encoding="iso-8859-1"?>
<!-- Generator: Adobe Illustrator 16.0.0, SVG Export Plug-In . SVG Version: 6.00 Build 0)  -->
<!DOCTYPE svg PUBLIC "-//W3C//DTD SVG 1.1//EN" "http://www.w3.org/Graphics/SVG/1.1/DTD/svg11.dtd">
<svg version="1.1" xmlns="http://www.w3.org/2000/svg" xmlns:xlink="http://www.w3.org/1999/xlink" x="0px" y="0px" width="140.9px"
	 height="195.354px" viewBox="0 0 140.9 195.354" style="enable-background:new 0 0 140.9 195.354;" xml:space="preserve">
<g id="cheekR">
	
		<linearGradient id="SVGID_1_" gradientUnits="userSpaceOnUse" x1="1722.6377" y1="-4602.6914" x2="1689.0269" y2="-4512.6387" gradientTransform="matrix(0.3671 1.7173 1.4833 -0.3171 6174.9775 -4263.6523)">
		<stop  offset="0" style="stop-color:#CF9777"/>
		<stop  offset="1" style="stop-color:#A1002C;stop-opacity:0"/>
	</linearGradient>
	<path style="fill:url(#SVGID_1_);" d="M1.127,195.354C-12.12,107.904,95.184-42.517,125.55,29.389
		C165.49,123.965,1.127,195.354,1.127,195.354z"/>
	
		<linearGradient id="SVGID_2_" gradientUnits="userSpaceOnUse" x1="1709.4316" y1="-4570.2676" x2="1686.2499" y2="-4508.1572" gradientTransform="matrix(0.3671 1.7173 1.4833 -0.3171 6174.9775 -4263.6523)">
		<stop  offset="0" style="stop-color:#CF9777"/>
		<stop  offset="1" style="stop-color:#A1002C;stop-opacity:0"/>
	</linearGradient>
	<path style="fill:url(#SVGID_2_);" d="M37.876,149.607c-9.137-60.315,64.872-164.062,85.815-114.469
		C151.238,100.369,37.876,149.607,37.876,149.607z"/>
	
		<linearGradient id="SVGID_3_" gradientUnits="userSpaceOnUse" x1="1688.2754" y1="-4539.2158" x2="1670.7241" y2="-4492.1909" gradientTransform="matrix(0.3671 1.7173 1.4833 -0.3171 6174.9775 -4263.6523)">
		<stop  offset="0" style="stop-color:#CF9777"/>
		<stop  offset="1" style="stop-color:#A1002C;stop-opacity:0"/>
	</linearGradient>
	<path style="fill:url(#SVGID_3_);" d="M72.66,96.527c-6.917-45.665,49.115-124.212,64.973-86.665
		C158.488,59.25,72.66,96.527,72.66,96.527z"/>
	
		<linearGradient id="SVGID_4_" gradientUnits="userSpaceOnUse" x1="1678.4668" y1="-4520.6006" x2="1666.2382" y2="-4487.8364" gradientTransform="matrix(0.3671 1.7173 1.4833 -0.3171 6174.9775 -4263.6523)">
		<stop  offset="0" style="stop-color:#CF9777"/>
		<stop  offset="1" style="stop-color:#A1002C;stop-opacity:0"/>
	</linearGradient>
	<path style="fill:url(#SVGID_4_);" d="M93.355,67.254c-4.819-31.816,34.22-86.542,45.269-60.383
		C153.154,41.281,93.355,67.254,93.355,67.254z"/>
</g>
<g id="Layer_1">
</g>
</svg>
