<?xml version="1.0" encoding="iso-8859-1"?>
<!-- Generator: Adobe Illustrator 16.0.0, SVG Export Plug-In . SVG Version: 6.00 Build 0)  -->
<!DOCTYPE svg PUBLIC "-//W3C//DTD SVG 1.1//EN" "http://www.w3.org/Graphics/SVG/1.1/DTD/svg11.dtd">
<svg version="1.1" xmlns="http://www.w3.org/2000/svg" xmlns:xlink="http://www.w3.org/1999/xlink" x="0px" y="0px"
	 width="293.647px" height="270.947px" viewBox="0 0 293.647 270.947" style="enable-background:new 0 0 293.647 270.947;"
	 xml:space="preserve">
<g id="GradientMask">
	<path style="fill:#00FF00;" d="M146.517,184.262c-78.596-40.566-180.898,3.852-135.196,67.125
		C61.237,320.5,146.517,184.262,146.517,184.262z"/>
	<path style="fill:#00FF00;" d="M146.498,183.808c81.344-34.734,190.933,9.915,128.929,57.326
		C193.871,303.496,146.498,183.808,146.498,183.808z"/>
	<path style="fill:#00FF00;" d="M32.707,0c74.801,62.449,22.937,228.759,94.013,229.826C226.954,231.331,166.046,59.301,32.707,0z"
		/>
	<path style="fill:#00FF00;" d="M271.322,0c-92.979,85.454-25.479,248.696-94.013,229.826C79.888,203.002,137.983,59.301,271.322,0z
		"/>
</g>
<g id="Layer_1">
</g>
</svg>
