<?xml version="1.0" encoding="iso-8859-1"?>
<!-- Generator: Adobe Illustrator 16.0.0, SVG Export Plug-In . SVG Version: 6.00 Build 0)  -->
<!DOCTYPE svg PUBLIC "-//W3C//DTD SVG 1.1//EN" "http://www.w3.org/Graphics/SVG/1.1/DTD/svg11.dtd">
<svg version="1.1" xmlns="http://www.w3.org/2000/svg" xmlns:xlink="http://www.w3.org/1999/xlink" x="0px" y="0px"
	 width="415.06px" height="377.73px" viewBox="0 0 415.06 377.73" style="enable-background:new 0 0 415.06 377.73;"
	 xml:space="preserve">
<g id="eyeL">
	<path style="fill:#57385C;" d="M222.647,170.404c5.717-11.375,9.677-23.875,11.464-37.202
		c8.626-64.356-36.553-123.52-100.91-132.146C68.846-7.57,9.682,37.608,1.056,101.964c-8.626,64.355,36.552,123.52,100.908,132.147
		c10.664,1.428,21.184,1.373,31.357,0.006l9.965-74.35L222.647,170.404z"/>
	<path style="fill:#A75265;" d="M228.567,173.718c-9.818,47.417-42.637,87.515-87.664,106.303l6.021,46.637l140.065-18.084
		L268.908,168.51L228.567,173.718z"/>
	<path style="fill:#EC7263;" d="M229.526,172.51H128.973v94.203C176.035,253.844,213.718,218.28,229.526,172.51z"/>
	<polygon style="fill:#57385C;" points="270.12,167.929 415.06,117.183 406.423,63.802 	"/>
	
		<rect x="275.07" y="300.247" transform="matrix(0.9558 0.2941 -0.2941 0.9558 104.4404 -70.5531)" style="fill:#FFEDBC;" width="23.476" height="23.476"/>
	<path style="fill:#57385C;" d="M83.843,293.784c-40.583,0-74.607,28.009-83.843,65.745l154.517-28.969
		C138.899,308.328,113.077,293.784,83.843,293.784z"/>
	<path style="fill:#57385C;" d="M145.891,330.212L44.763,377.73l109.754-11.009c-2.427-5.023-4.409-10.351-5.864-15.956
		C146.87,343.896,145.985,337.006,145.891,330.212z"/>
</g>
<g id="Layer_1">
</g>
</svg>
