<?xml version="1.0" encoding="iso-8859-1"?>
<!-- Generator: Adobe Illustrator 16.0.0, SVG Export Plug-In . SVG Version: 6.00 Build 0)  -->
<!DOCTYPE svg PUBLIC "-//W3C//DTD SVG 1.1//EN" "http://www.w3.org/Graphics/SVG/1.1/DTD/svg11.dtd">
<svg version="1.1" xmlns="http://www.w3.org/2000/svg" xmlns:xlink="http://www.w3.org/1999/xlink" x="0px" y="0px"
	 width="399.95px" height="283.733px" viewBox="0 0 399.95 283.733" style="enable-background:new 0 0 399.95 283.733;"
	 xml:space="preserve">
<g id="eyeR">
	<polygon style="fill:#EC7263;" points="0,52.765 121.287,99.349 149.854,24.972 20.266,0 	"/>
	
		<rect x="98.752" y="108.363" transform="matrix(0.7071 0.7071 -0.7071 0.7071 129.0252 -47.8135)" style="fill:#FFEDBC;" width="46.953" height="46.951"/>
	<path style="fill:#57385C;" d="M316.318,255.112c21.734,24.189,54.034,33.225,83.632,26.424l-88.582-135.797
		C287.184,178.042,288.321,223.952,316.318,255.112z"/>
	<path style="fill:#A75265;" d="M308.631,62.772L154.114,91.741c-1.615,6.6-2.49,13.491-2.49,20.589
		c0,5.791,0.58,11.445,1.668,16.917l160.216,24.867c6.863-12.383,10.783-26.623,10.783-41.784
		C324.291,93.882,318.486,76.801,308.631,62.772z"/>
</g>
<g id="Layer_1">
</g>
</svg>
