<?xml version="1.0" encoding="iso-8859-1"?>
<!-- Generator: Adobe Illustrator 16.0.0, SVG Export Plug-In . SVG Version: 6.00 Build 0)  -->
<!DOCTYPE svg PUBLIC "-//W3C//DTD SVG 1.1//EN" "http://www.w3.org/Graphics/SVG/1.1/DTD/svg11.dtd">
<svg version="1.1" xmlns="http://www.w3.org/2000/svg" xmlns:xlink="http://www.w3.org/1999/xlink" x="0px" y="0px"
	 width="453.973px" height="176.119px" viewBox="0 0 453.973 176.119" style="enable-background:new 0 0 453.973 176.119;"
	 xml:space="preserve">
<g id="mouth">
	<path style="fill:#57385C;" d="M194.419,172.667c32.52,0,60.829-17.988,75.551-44.55l-160.217-24.866
		C117.619,142.83,152.53,172.667,194.419,172.667z"/>
	<path style="fill:#57385C;" d="M194.419,0c-40.583,0-74.607,28.009-83.843,65.745l154.518-28.969
		C249.475,14.544,223.653,0,194.419,0z"/>
	<path style="fill:#EC7263;" d="M453.973,45.485L286,38.062c6.404,15.904,8.172,33.857,3.977,51.821
		c-3.449,14.764-10.506,27.738-20.006,38.234l118.982,48.002L453.973,45.485z"/>
	<path style="fill:#57385C;" d="M101.128,66.741L0,114.26l109.754-11.009c-2.427-5.023-4.409-10.351-5.864-15.956
		C102.106,80.426,101.222,73.535,101.128,66.741z"/>
	<path style="fill:#A75265;" d="M265.094,36.776L110.576,65.745c-1.615,6.6-2.49,13.491-2.49,20.589
		c0,5.791,0.581,11.445,1.668,16.917l160.217,24.866c6.863-12.383,10.783-26.622,10.783-41.783
		C280.754,67.887,274.949,50.806,265.094,36.776z"/>
	<polygon style="fill:#FFEDBC;" points="110.576,65.745 117.48,102.943 124.987,63.043 134.491,107.09 145.334,59.229 
		156.564,110.516 172.753,54.088 189.862,114.26 205.501,47.948 215.753,119.702 246.564,40.25 254.607,125.732 265.094,36.776 	"/>
</g>
<g id="Layer_1">
</g>
</svg>
