<?xml version="1.0" encoding="iso-8859-1"?>
<!-- Generator: Adobe Illustrator 16.0.0, SVG Export Plug-In . SVG Version: 6.00 Build 0)  -->
<!DOCTYPE svg PUBLIC "-//W3C//DTD SVG 1.1//EN" "http://www.w3.org/Graphics/SVG/1.1/DTD/svg11.dtd">
<svg version="1.1" xmlns="http://www.w3.org/2000/svg" xmlns:xlink="http://www.w3.org/1999/xlink" x="0px" y="0px"
	 width="246.283px" height="199.286px" viewBox="0 0 246.283 199.286" style="enable-background:new 0 0 246.283 199.286;"
	 xml:space="preserve">
<g id="duck">
	<g id="Layer_12">
		<path style="fill:#FF0000;" d="M9.287,119.086c20.361,28.779,40.538,55.555,71.317,37.537
			c30.781-18.018,27.026,29.637,81.828,6.184c54.803-23.451,63.06-37.713,63.06-76c0-38.286-97.593-38.232-56.304-59.307
			c41.29-21.074,13.514-36.893-20.269-21.074c-33.782,15.819-11.261,54.536-31.53,72.339c-20.27,17.801-68.315,15.979-88.584,0
			C8.536,62.784-12.644,88.09,9.287,119.086z"/>
	</g>
	<g id="Layer_8_copy_2">
		<g id="Layer_20">
			<rect x="206.279" y="164.807" style="fill:#EA4A73;" width="40.004" height="34.479"/>
			<rect x="72.418" y="53.883" style="opacity:0;fill:#FF0000;" width="40.004" height="34.479"/>
		</g>
	</g>
</g>
<g id="Layer_1">
</g>
</svg>
