<?xml version="1.0" encoding="iso-8859-1"?>
<!-- Generator: Adobe Illustrator 16.0.0, SVG Export Plug-In . SVG Version: 6.00 Build 0)  -->
<!DOCTYPE svg PUBLIC "-//W3C//DTD SVG 1.1//EN" "http://www.w3.org/Graphics/SVG/1.1/DTD/svg11.dtd">
<svg version="1.1" xmlns="http://www.w3.org/2000/svg" xmlns:xlink="http://www.w3.org/1999/xlink" x="0px" y="0px"
	 width="466.843px" height="561.63px" viewBox="0 0 466.843 561.63" style="enable-background:new 0 0 466.843 561.63;"
	 xml:space="preserve">
<g id="head">
	<path style="fill:none;stroke:#FFFFFF;stroke-width:2;stroke-miterlimit:10;" d="M399.706,184.291
		c88.349,142.897,88.157,303.142-0.431,357.912c-88.58,54.767-232.018-16.674-320.366-159.571S-9.248,79.49,79.331,24.724
		C167.92-30.046,311.357,41.394,399.706,184.291z"/>
	<circle style="fill:#FFFFFF;" cx="13.688" cy="211.914" r="13.688"/>
	<path style="fill:#FFFFFF;" d="M460.263,510.501c0,14.8-11.996,26.799-26.8,26.799c-14.798,0-26.797-11.999-26.797-26.799
		c0-14.801,11.999-26.799,26.797-26.799C448.267,483.702,460.263,495.7,460.263,510.501z"/>
	<circle style="fill:#FFFFFF;" cx="261.068" cy="42.168" r="13.688"/>
	<path style="fill:none;stroke:#FFFFFF;stroke-miterlimit:10;" d="M302.736,42.168c0,23.012-18.652,41.668-41.67,41.668
		c-23.008,0-41.667-18.656-41.667-41.668S238.059,0.5,261.066,0.5C284.084,0.5,302.736,19.156,302.736,42.168z"/>
</g>
<g id="Layer_1">
</g>
</svg>
