<?xml version="1.0" encoding="iso-8859-1"?>
<!-- Generator: Adobe Illustrator 16.0.0, SVG Export Plug-In . SVG Version: 6.00 Build 0)  -->
<!DOCTYPE svg PUBLIC "-//W3C//DTD SVG 1.1//EN" "http://www.w3.org/Graphics/SVG/1.1/DTD/svg11.dtd">
<svg version="1.1" xmlns="http://www.w3.org/2000/svg" xmlns:xlink="http://www.w3.org/1999/xlink" x="0px" y="0px"
	 width="138.977px" height="89.725px" viewBox="0 0 138.977 89.725" style="enable-background:new 0 0 138.977 89.725;"
	 xml:space="preserve">
<g id="mouth">
	<circle style="fill:none;stroke:#FFFFFF;stroke-width:2;stroke-miterlimit:10;" cx="70.39" cy="44.863" r="43.851"/>
	<path style="fill:none;stroke:#FFFFFF;stroke-width:2;stroke-miterlimit:10;" d="M108.144,22.554
		c17.268-4.078,28.914-5.332,29.781-2.702c1.458,4.416-28.003,18.101-65.8,30.567C34.329,62.885,2.51,69.411,1.052,64.995
		c-0.87-2.641,9.312-8.595,25.724-15.621"/>
	<path style="fill:#FFFFFF;" d="M57.859,24.268c22.873,0,41.414,18.886,41.414,42.18c0,4.573-0.724,8.971-2.046,13.095
		c14.282-11.052,20.786-30.288,14.807-48.415c-7.587-23-32.38-35.496-55.379-27.91C40.437,8.569,29.45,22.48,27.039,38.283
		C34.62,29.681,45.617,24.268,57.859,24.268z"/>
</g>
<g id="Layer_1">
</g>
</svg>
