<?xml version="1.0" encoding="iso-8859-1"?>
<!-- Generator: Adobe Illustrator 16.0.0, SVG Export Plug-In . SVG Version: 6.00 Build 0)  -->
<!DOCTYPE svg PUBLIC "-//W3C//DTD SVG 1.1//EN" "http://www.w3.org/Graphics/SVG/1.1/DTD/svg11.dtd">
<svg version="1.1" xmlns="http://www.w3.org/2000/svg" xmlns:xlink="http://www.w3.org/1999/xlink" x="0px" y="0px"
	 width="250.302px" height="914.123px" viewBox="0 0 250.302 914.123" style="enable-background:new 0 0 250.302 914.123;"
	 xml:space="preserve">
<g id="rootEyeL">
	<circle id="dummy_7_" style="fill:#00FF00;" cx="183.84" cy="424.437" r="5.184"/>
	<g id="Layer_7">
		<path style="fill:none;stroke:#000000;stroke-miterlimit:10;" d="M211.119,436.398c-15.065,15.065-39.492,15.065-54.557,0
			l-20.48-20.479c-15.066-15.068-15.066-39.494-0.002-54.559l20.482-20.48c15.064-15.066,39.492-15.066,54.558,0l20.479,20.48
			c15.065,15.065,15.065,39.491,0,54.558L211.119,436.398z"/>
		<circle id="dummy_5_" style="fill:#00FF00;" cx="183.84" cy="424.437" r="5.184"/>
		<g id="Layer_10">
			<line style="fill:none;stroke:#000000;stroke-miterlimit:10;" x1="183.84" y1="329.581" x2="183.84" y2="19.225"/>
			<circle style="fill:none;stroke:#000000;stroke-miterlimit:10;" cx="183.84" cy="19.225" r="18.725"/>
			<circle id="dummy_8_" style="fill:#00FF00;" cx="183.84" cy="329.58" r="5.184"/>
		</g>
		<g id="Layer_9">
			<line style="fill:none;stroke:#000000;stroke-miterlimit:10;" x1="183.84" y1="329.581" x2="221.159" y2="100.734"/>
			<circle style="fill:none;stroke:#000000;stroke-miterlimit:10;" cx="221.159" cy="100.734" r="28.643"/>
			<circle id="dummy_9_" style="fill:#00FF00;" cx="183.84" cy="329.58" r="5.184"/>
		</g>
		<g id="Layer_11">
			<line style="fill:none;stroke:#000000;stroke-miterlimit:10;" x1="183.84" y1="329.581" x2="151.766" y2="100.734"/>
			<rect x="135.729" y="84.698" style="fill:none;stroke:#000000;stroke-miterlimit:10;" width="32.074" height="32.072"/>
			<circle id="dummy_10_" style="fill:#00FF00;" cx="183.84" cy="329.58" r="5.184"/>
		</g>
		<g id="Layer_12">
			<line style="fill:none;stroke:#000000;stroke-miterlimit:10;" x1="183.84" y1="447.696" x2="22.527" y2="891.596"/>
			<line style="fill:none;stroke:#000000;stroke-miterlimit:10;" x1="183.84" y1="447.696" x2="22.527" y2="700.67"/>
			<rect x="5.637" y="683.78" style="fill:none;stroke:#000000;stroke-miterlimit:10;" width="33.78" height="33.78"/>
			<circle style="fill:none;stroke:#000000;stroke-miterlimit:10;" cx="22.527" cy="891.596" r="22.027"/>
			<circle id="dummy_11_" style="fill:#00FF00;" cx="183.84" cy="447.696" r="5.184"/>
		</g>
	</g>
	<g id="Layer_8">
		<path style="fill:none;stroke:#000000;stroke-miterlimit:10;" d="M211.119,511.438c-15.065,15.062-39.492,15.062-54.557-0.003
			l-20.48-20.479c-15.066-15.067-15.066-39.494-0.002-54.559l20.482-20.48c15.064-15.066,39.491-15.066,54.558,0.001l20.479,20.479
			c15.065,15.065,15.065,39.492,0,54.558L211.119,511.438z"/>
		<circle id="dummy_6_" style="fill:#00FF00;" cx="183.84" cy="424.437" r="5.184"/>
		<g id="Layer_13">
			<line style="fill:none;stroke:#000000;stroke-miterlimit:10;" x1="183.84" y1="522.734" x2="183.84" y2="677.636"/>
			<circle style="fill:none;stroke:#000000;stroke-miterlimit:10;" cx="183.841" cy="677.636" r="10.884"/>
			<circle id="dummy_12_" style="fill:#00FF00;" cx="183.84" cy="523.002" r="5.184"/>
		</g>
	</g>
</g>
<g id="Layer_1">
</g>
</svg>
