<?xml version="1.0" encoding="iso-8859-1"?>
<!-- Generator: Adobe Illustrator 16.0.0, SVG Export Plug-In . SVG Version: 6.00 Build 0)  -->
<!DOCTYPE svg PUBLIC "-//W3C//DTD SVG 1.1//EN" "http://www.w3.org/Graphics/SVG/1.1/DTD/svg11.dtd">
<svg version="1.1" xmlns="http://www.w3.org/2000/svg" xmlns:xlink="http://www.w3.org/1999/xlink" x="0px" y="0px"
	 width="210.279px" height="970.061px" viewBox="0 0 210.279 970.061" style="enable-background:new 0 0 210.279 970.061;"
	 xml:space="preserve">
<g id="rootEyeR">
	<circle style="fill:none;stroke:#000000;stroke-miterlimit:10;" cx="63.284" cy="389.466" r="41.856"/>
	<circle id="dummy_4_" style="fill:#00FF00;" cx="63.284" cy="388.88" r="5.184"/>
	<g id="Layer_5">
		<line style="fill:none;stroke:#000000;stroke-miterlimit:10;" x1="63.284" y1="347.609" x2="122.764" y2="38.095"/>
		
			<rect x="96.327" y="11.657" transform="matrix(0.7071 0.7071 -0.7071 0.7071 62.8935 -75.6494)" style="fill:none;stroke:#000000;stroke-miterlimit:10;" width="52.874" height="52.875"/>
		<circle id="dummy" style="fill:#00FF00;" cx="63.284" cy="347.609" r="5.184"/>
	</g>
	<g id="Layer_6">
		<line style="fill:none;stroke:#000000;stroke-miterlimit:10;" x1="63.284" y1="347.609" x2="63.284" y2="149.214"/>
		<circle style="fill:none;stroke:#000000;stroke-miterlimit:10;" cx="63.284" cy="149.214" r="11.015"/>
		<circle id="dummy_1_" style="fill:#00FF00;" cx="63.284" cy="347.609" r="5.184"/>
	</g>
	<g id="Layer_4">
		<line style="fill:none;stroke:#000000;stroke-miterlimit:10;" x1="63.284" y1="347.609" x2="187.751" y2="224.244"/>
		<circle style="fill:none;stroke:#000000;stroke-miterlimit:10;" cx="187.75" cy="224.244" r="22.029"/>
		<circle id="dummy_2_" style="fill:#00FF00;" cx="63.284" cy="347.609" r="5.184"/>
	</g>
	<g id="Layer_3">
		<line style="fill:none;stroke:#000000;stroke-miterlimit:10;" x1="63.284" y1="347.609" x2="176.736" y2="304.391"/>
		<circle style="fill:none;stroke:#000000;stroke-miterlimit:10;" cx="176.736" cy="304.391" r="12.376"/>
		<circle id="dummy_3_" style="fill:#00FF00;" cx="63.284" cy="347.609" r="5.184"/>
	</g>
	<g id="Layer_15">
		<line style="fill:none;stroke:#000000;stroke-miterlimit:10;" x1="63.284" y1="431.322" x2="165.722" y2="548.993"/>
		<rect x="153.508" y="536.779" style="fill:none;stroke:#000000;stroke-miterlimit:10;" width="24.428" height="24.428"/>
		<circle id="dummy_13_" style="fill:#00FF00;" cx="63.284" cy="431.322" r="5.184"/>
	</g>
	<g id="Layer_16">
		<line style="fill:none;stroke:#000000;stroke-miterlimit:10;" x1="63.284" y1="431.322" x2="105.141" y2="866.406"/>
		
			<rect x="32.346" y="793.612" transform="matrix(0.7071 0.7071 -0.7071 0.7071 643.4367 179.4189)" style="fill:none;stroke:#000000;stroke-miterlimit:10;" width="145.589" height="145.589"/>
		<circle id="dummy_14_" style="fill:#00FF00;" cx="63.284" cy="431.322" r="5.184"/>
	</g>
	<g id="Layer_17">
		<line style="fill:none;stroke:#000000;stroke-miterlimit:10;" x1="63.284" y1="431.322" x2="21.428" y2="721.699"/>
		<circle style="fill:none;stroke:#000000;stroke-miterlimit:10;" cx="21.428" cy="721.699" r="20.928"/>
		<circle id="dummy_15_" style="fill:#00FF00;" cx="63.284" cy="431.322" r="5.184"/>
	</g>
</g>
<g id="Layer_1">
</g>
</svg>
