<?xml version="1.0" encoding="iso-8859-1"?>
<!-- Generator: Adobe Illustrator 16.0.0, SVG Export Plug-In . SVG Version: 6.00 Build 0)  -->
<!DOCTYPE svg PUBLIC "-//W3C//DTD SVG 1.1//EN" "http://www.w3.org/Graphics/SVG/1.1/DTD/svg11.dtd">
<svg version="1.1" xmlns="http://www.w3.org/2000/svg" xmlns:xlink="http://www.w3.org/1999/xlink" x="0px" y="0px"
	 width="780.906px" height="676.652px" viewBox="0 0 780.906 676.652" style="enable-background:new 0 0 780.906 676.652;"
	 xml:space="preserve">
<g id="EgyptNose">
	<path style="fill:#FFFFFF;" d="M390.453,251.969c-15.112,0-28.297,8.215-35.357,20.416c7.061,12.203,20.245,20.418,35.357,20.418
		c15.11,0,28.295-8.215,35.357-20.418C418.748,260.184,405.563,251.969,390.453,251.969z M390.453,287.466
		c-8.33,0-15.082-6.751-15.082-15.082c0-8.328,6.752-15.079,15.082-15.079c8.329,0,15.08,6.751,15.08,15.079
		C405.533,280.715,398.782,287.466,390.453,287.466z"/>
	<circle style="fill:#FFFFFF;" cx="390.453" cy="272.385" r="6.656"/>
	<polygon style="fill:#FFFFFF;" points="632.538,419.304 511.496,209.652 390.453,0 269.411,209.652 148.368,419.304 
		200.188,419.304 282.812,232.455 365.559,45.327 486.244,210.554 606.927,375.781 403.495,397.683 243.491,414.91 242.991,415.019 
		243.01,414.962 202.677,419.304 390.453,419.304 	"/>
	<polygon style="fill:#FFFFFF;" points="200.062,419.586 202.677,419.304 200.188,419.304 	"/>
	<polygon style="fill:#FFFFFF;" points="552.83,310.505 464.568,213.472 348.204,85.545 337.376,119.453 446.45,216.175 	"/>
	<polygon style="fill:#FFFFFF;" points="580.929,341.398 555.366,313.295 417.148,359.366 278.488,405.587 307.791,262.394 
		336.443,122.377 295.598,250.28 243.01,414.962 243.491,414.91 411.961,378.208 	"/>
	<polygon style="fill:#FFFFFF;" points="555.809,313.146 552.83,310.505 555.366,313.295 	"/>
	<polygon style="fill:#FFFFFF;" points="337.093,119.202 336.443,122.377 337.376,119.453 	"/>
	<polygon style="fill:#FFFFFF;" points="532.479,292.596 431.808,221 331.138,149.406 328.68,175.297 419.035,225.947 
		510.108,277.002 420.354,330.346 330.602,383.692 329.281,279.29 328.391,208.946 326.822,195.927 328.233,196.532 
		328.049,181.953 319.47,272.385 307.8,395.366 420.139,343.98 	"/>
	<polygon style="fill:#FFFFFF;" points="327.96,174.892 328.049,181.953 328.68,175.297 	"/>
	<polygon style="fill:#FFFFFF;" points="347.932,371.15 418.527,318.201 489.125,265.257 471.368,257.671 418.22,307.257 
		363.687,358.137 346.889,285.467 330.092,212.804 401.424,234.589 457.256,251.642 407.974,230.591 328.233,196.532 
		328.391,208.946 337.376,283.537 	"/>
	<polygon style="fill:#FFFFFF;" points="472.754,256.378 457.256,251.642 471.368,257.671 	"/>
	<polygon style="fill:#FFFFFF;" points="296.735,676.479 222.551,547.99 148.368,419.499 74.184,547.99 0,676.479 31.759,676.479 
		82.396,561.966 133.111,447.278 207.076,548.543 281.038,649.805 156.36,663.228 58.298,673.786 57.992,673.853 58.003,673.817 
		33.283,676.479 148.368,676.479 	"/>
	<polygon style="fill:#FFFFFF;" points="31.682,676.652 33.283,676.479 31.759,676.479 	"/>
	<polygon style="fill:#FFFFFF;" points="247.884,609.8 193.791,550.329 122.474,471.928 115.838,492.708 182.686,551.985 	"/>
	<polygon style="fill:#FFFFFF;" points="265.105,628.733 249.438,611.509 164.728,639.745 79.747,668.073 97.706,580.312 
		115.266,494.503 90.234,572.89 58.003,673.817 58.298,673.786 161.548,651.292 	"/>
	<polygon style="fill:#FFFFFF;" points="249.709,611.419 247.884,609.8 249.438,611.509 	"/>
	<polygon style="fill:#FFFFFF;" points="115.664,492.555 115.266,494.503 115.838,492.708 	"/>
	<polygon style="fill:#FFFFFF;" points="235.411,598.824 173.712,554.944 112.014,511.065 110.508,526.933 165.884,557.976 
		221.701,589.268 166.694,621.958 111.685,654.653 110.875,590.668 110.331,547.555 109.369,539.577 110.235,539.949 
		110.121,531.013 104.863,586.436 97.712,661.807 166.561,630.315 	"/>
	<polygon style="fill:#FFFFFF;" points="110.066,526.686 110.121,531.013 110.508,526.933 	"/>
	<polygon style="fill:#FFFFFF;" points="122.307,646.968 165.573,614.517 208.84,582.068 197.958,577.419 165.384,607.807 
		131.962,638.993 121.667,594.454 111.374,549.92 155.091,563.273 189.309,573.726 159.105,560.821 110.235,539.949 
		110.331,547.555 115.838,593.272 	"/>
	<polygon style="fill:#FFFFFF;" points="198.808,576.626 189.309,573.726 197.958,577.419 	"/>
	<polygon style="fill:#FFFFFF;" points="780.906,676.479 706.723,547.99 632.539,419.499 558.355,547.99 484.172,676.479 
		515.931,676.479 566.567,561.966 617.282,447.278 691.247,548.543 765.209,649.805 640.531,663.228 542.47,673.786 
		542.163,673.853 542.175,673.817 517.455,676.479 632.539,676.479 	"/>
	<polygon style="fill:#FFFFFF;" points="515.854,676.652 517.455,676.479 515.931,676.479 	"/>
	<polygon style="fill:#FFFFFF;" points="732.056,609.8 677.962,550.329 606.646,471.928 600.01,492.708 666.857,551.985 	"/>
	<polygon style="fill:#FFFFFF;" points="749.276,628.733 733.609,611.509 648.898,639.745 563.918,668.073 581.877,580.312 
		599.438,494.503 574.405,572.89 542.175,673.817 542.47,673.786 645.72,651.292 	"/>
	<polygon style="fill:#FFFFFF;" points="733.881,611.419 732.056,609.8 733.609,611.509 	"/>
	<polygon style="fill:#FFFFFF;" points="599.835,492.555 599.438,494.503 600.01,492.708 	"/>
	<polygon style="fill:#FFFFFF;" points="719.583,598.824 657.883,554.944 596.186,511.065 594.68,526.933 650.056,557.976 
		705.872,589.268 650.865,621.958 595.856,654.653 595.047,590.668 594.502,547.555 593.54,539.577 594.406,539.949 
		594.292,531.013 589.034,586.436 581.884,661.807 650.732,630.315 	"/>
	<polygon style="fill:#FFFFFF;" points="594.237,526.686 594.292,531.013 594.68,526.933 	"/>
	<polygon style="fill:#FFFFFF;" points="606.479,646.968 649.744,614.517 693.012,582.068 682.129,577.419 649.556,607.807 
		616.134,638.993 605.839,594.454 595.545,549.92 639.262,563.273 673.48,573.726 643.277,560.821 594.406,539.949 594.502,547.555 
		600.01,593.272 	"/>
	<polygon style="fill:#FFFFFF;" points="682.979,576.626 673.48,573.726 682.129,577.419 	"/>
</g>
<g id="Layer_1">
</g>
</svg>
