<?xml version="1.0" encoding="iso-8859-1"?>
<!-- Generator: Adobe Illustrator 16.0.0, SVG Export Plug-In . SVG Version: 6.00 Build 0)  -->
<!DOCTYPE svg PUBLIC "-//W3C//DTD SVG 1.1//EN" "http://www.w3.org/Graphics/SVG/1.1/DTD/svg11.dtd">
<svg version="1.1" xmlns="http://www.w3.org/2000/svg" xmlns:xlink="http://www.w3.org/1999/xlink" x="0px" y="0px"
	 width="70.715px" height="40.832px" viewBox="0 0 70.715 40.832" style="enable-background:new 0 0 70.715 40.832;"
	 xml:space="preserve">
<g id="EgyptEye">
	<path style="fill:#FFFFFF;" d="M35.357,0C20.246,0,7.061,8.214,0,20.414c7.061,12.204,20.246,20.418,35.357,20.418
		c15.111,0,28.295-8.214,35.357-20.418C63.652,8.214,50.469,0,35.357,0z M35.357,35.496c-8.33,0-15.082-6.75-15.082-15.082
		c0-8.325,6.751-15.078,15.082-15.078c8.329,0,15.08,6.753,15.08,15.078C50.438,28.746,43.687,35.496,35.357,35.496z"/>
	<path style="fill:#FFFFFF;" d="M42.014,20.414c0,3.68-2.98,6.658-6.656,6.658c-3.677,0-6.656-2.979-6.656-6.658
		c0-3.673,2.979-6.654,6.656-6.654C39.033,13.76,42.014,16.741,42.014,20.414z"/>
</g>
<g id="Layer_1">
</g>
</svg>
