<?xml version="1.0" encoding="iso-8859-1"?>
<!-- Generator: Adobe Illustrator 16.0.0, SVG Export Plug-In . SVG Version: 6.00 Build 0)  -->
<!DOCTYPE svg PUBLIC "-//W3C//DTD SVG 1.1//EN" "http://www.w3.org/Graphics/SVG/1.1/DTD/svg11.dtd">
<svg version="1.1" xmlns="http://www.w3.org/2000/svg" xmlns:xlink="http://www.w3.org/1999/xlink" x="0px" y="0px"
	 width="26.024px" height="49.249px" viewBox="0 0 26.024 49.249" style="enable-background:new 0 0 26.024 49.249;"
	 xml:space="preserve">
<g id="brow">
	<circle style="opacity:0.6;fill:#EA2E49;" cx="13.012" cy="6.434" r="6.436"/>
	<path style="opacity:0.6;fill:#EA2E49;" d="M13.01,42.744c4.816,0,9.008,2.621,11.26,6.505c1.11-1.915,1.755-4.134,1.755-6.507
		c0-7.185-5.825-13.01-13.015-13.01C5.823,29.732,0,35.558,0,42.742c0,2.373,0.645,4.592,1.755,6.507
		C4.005,45.365,8.197,42.744,13.01,42.744z"/>
	<path style="opacity:0.6;fill:#EA2E49;" d="M13.015,19.378c-4.816,0-9.008-2.621-11.26-6.507C0.645,14.788,0,17.005,0,19.378
		c0,7.187,5.825,13.011,13.015,13.011c7.186,0,13.01-5.824,13.01-13.011c0-2.373-0.645-4.59-1.755-6.507
		C22.019,16.757,17.827,19.378,13.015,19.378z"/>
</g>
<g id="Layer_1">
</g>
</svg>
