<?xml version="1.0" encoding="iso-8859-1"?>
<!-- Generator: Adobe Illustrator 16.0.0, SVG Export Plug-In . SVG Version: 6.00 Build 0)  -->
<!DOCTYPE svg PUBLIC "-//W3C//DTD SVG 1.1//EN" "http://www.w3.org/Graphics/SVG/1.1/DTD/svg11.dtd">
<svg version="1.1" xmlns="http://www.w3.org/2000/svg" xmlns:xlink="http://www.w3.org/1999/xlink" x="0px" y="0px" width="94.11px"
	 height="39.478px" viewBox="0 0 94.11 39.478" style="enable-background:new 0 0 94.11 39.478;" xml:space="preserve">
<g id="eye">
	<path style="opacity:0.6;fill:#DAEDE2;" d="M47.056,0c-14.61,0-27.357,7.942-34.185,19.738
		c6.827,11.798,19.574,19.739,34.185,19.739c14.609,0,27.356-7.941,34.185-19.739C74.412,7.942,61.665,0,47.056,0z M47.056,34.319
		c-8.054,0-14.581-6.527-14.581-14.581c0-8.052,6.527-14.579,14.581-14.579c8.053,0,14.58,6.527,14.58,14.579
		C61.636,27.792,55.108,34.319,47.056,34.319z"/>
	<circle style="opacity:0.6;fill:#EA2E49;" cx="47.056" cy="19.738" r="6.436"/>
	<circle style="opacity:0.6;fill:#77C4D3;" cx="6.436" cy="19.738" r="6.436"/>
	<circle style="opacity:0.6;fill:#77C4D3;" cx="87.675" cy="19.31" r="6.436"/>
</g>
<g id="Layer_1">
</g>
</svg>
