<?xml version="1.0" encoding="iso-8859-1"?>
<!-- Generator: Adobe Illustrator 16.0.0, SVG Export Plug-In . SVG Version: 6.00 Build 0)  -->
<!DOCTYPE svg PUBLIC "-//W3C//DTD SVG 1.1//EN" "http://www.w3.org/Graphics/SVG/1.1/DTD/svg11.dtd">
<svg version="1.1" xmlns="http://www.w3.org/2000/svg" xmlns:xlink="http://www.w3.org/1999/xlink" x="0px" y="0px"
	 width="327.842px" height="629.221px" viewBox="0 0 327.842 629.221" style="enable-background:new 0 0 327.842 629.221;"
	 xml:space="preserve">
<g id="head">
	<path style="opacity:0.6;fill:#DAEDE2;" d="M143.531,595.036c0,14.612,7.942,27.357,19.738,34.185
		c11.797-6.827,19.739-19.572,19.739-34.185c0-14.608-7.942-27.354-19.739-34.185C151.474,567.682,143.531,580.428,143.531,595.036z
		 M177.851,595.036c0,8.056-6.527,14.581-14.581,14.581c-8.053,0-14.58-6.525-14.58-14.581c0-8.052,6.527-14.578,14.58-14.578
		C171.323,580.458,177.851,586.984,177.851,595.036z"/>
	<path style="opacity:0.6;fill:#F6F792;" d="M131.462,479.849c-11.992,0-22.431-6.527-28.04-16.202
		c-2.763,4.771-4.367,10.296-4.367,16.205c0,17.892,14.506,32.397,32.407,32.397c17.894,0,32.396-14.506,32.396-32.397
		c0-5.909-1.604-11.434-4.367-16.205C153.886,473.321,143.447,479.849,131.462,479.849z"/>
	<path style="opacity:0.6;fill:#DAEDE2;" d="M166,528.451c-11.99,0-22.43-6.527-28.038-16.202
		c-2.764,4.771-4.369,10.296-4.369,16.205c0,17.892,14.506,32.397,32.407,32.397c17.895,0,32.397-14.506,32.397-32.397
		c0-5.909-1.605-11.434-4.368-16.205C188.425,521.924,177.985,528.451,166,528.451z"/>
	<path style="opacity:0.6;fill:#F6F792;" d="M198.403,479.849c-11.992,0-22.432-6.527-28.038-16.202
		c-2.764,4.771-4.371,10.296-4.371,16.205c0,17.892,14.507,32.397,32.409,32.397c17.895,0,32.397-14.506,32.397-32.397
		c0-5.909-1.607-11.434-4.37-16.205C220.826,473.321,210.387,479.849,198.403,479.849z"/>
	<g style="opacity:0.6;">
		<path style="fill:#F6F792;" d="M34.607,258.741c-4.332-12.05-1.546-24.897,6.15-34.026c-5.794-1.053-11.924-0.671-17.861,1.464
			c-17.978,6.464-27.312,26.28-20.845,44.268c6.463,17.98,26.278,27.312,44.256,20.849c5.938-2.136,10.908-5.744,14.705-10.243
			C49.267,278.915,38.938,270.783,34.607,258.741z"/>
		<path style="fill:#F6F792;" d="M44.147,205.643c3.961-5.629,10.472-8.374,16.865-7.81c-1.327-2.873-3.39-5.452-6.164-7.403
			c-8.399-5.909-19.999-3.891-25.91,4.512c-5.911,8.399-3.892,19.997,4.508,25.908c2.774,1.952,5.896,3.021,9.05,3.3
			C39.805,218.324,40.189,211.268,44.147,205.643z"/>
		<path style="fill:#F6F792;" d="M73.094,192.271c4.472,0.03,8.348,2.49,10.414,6.112c1.044-1.771,1.656-3.829,1.672-6.033
			c0.045-6.671-5.328-12.118-12.004-12.164c-6.672-0.044-12.117,5.329-12.163,12c-0.016,2.206,0.569,4.269,1.589,6.055
			C64.715,194.647,68.626,192.24,73.094,192.271z"/>
	</g>
	<path style="opacity:0.6;fill:#F6F792;" d="M170.615,159.455c6.037,6.034,6.033,15.823,0,21.859
		c-6.035,6.035-15.819,6.032-21.856-0.004c-6.033-6.035-6.036-15.818-0.003-21.853C154.793,153.423,164.581,153.419,170.615,159.455
		z"/>
	<path style="opacity:0.6;fill:#EA2E49;" d="M159.688,82.923c-14.61,0-27.357,7.943-34.185,19.739
		c6.827,11.797,19.574,19.739,34.185,19.739c14.608,0,27.355-7.942,34.184-19.739C187.043,90.866,174.296,82.923,159.688,82.923z
		 M159.688,117.243c-8.054,0-14.582-6.528-14.582-14.581s6.528-14.58,14.582-14.58c8.052,0,14.579,6.527,14.579,14.58
		S167.739,117.243,159.688,117.243z"/>
	<circle style="opacity:0.6;fill:#EA2E49;" cx="159.688" cy="102.662" r="6.436"/>
	<circle style="opacity:0.6;fill:#F6F792;" cx="119.067" cy="102.662" r="6.436"/>
	<circle style="opacity:0.6;fill:#F6F792;" cx="200.307" cy="102.233" r="6.435"/>
	<path style="opacity:0.6;fill:#F6F792;" d="M159.697,201.165c-22.783,0-42.614-12.4-53.269-30.78c-5.25,9.063-8.3,19.56-8.3,30.786
		c0,33.989,27.558,61.548,61.568,61.548c33.994,0,61.547-27.559,61.547-61.548c0-11.227-3.05-21.723-8.3-30.786
		C202.297,188.765,182.466,201.165,159.697,201.165z"/>
	<path style="opacity:0.6;fill:#77C4D3;" d="M80.84,147.749c-4.332-12.05-1.546-24.897,6.15-34.026
		c-5.794-1.053-11.924-0.671-17.861,1.464c-17.978,6.463-27.312,26.279-20.846,44.268c6.464,17.979,26.278,27.312,44.257,20.848
		c5.938-2.135,10.908-5.744,14.705-10.245C95.499,167.922,85.17,159.792,80.84,147.749z"/>
	<path style="opacity:0.6;fill:#F6F792;" d="M90.38,94.65c3.961-5.629,10.472-8.374,16.865-7.81
		c-1.327-2.874-3.39-5.452-6.164-7.403c-8.399-5.909-19.999-3.892-25.911,4.513c-5.91,8.398-3.891,19.997,4.509,25.906
		c2.774,1.953,5.896,3.022,9.05,3.301C86.037,107.332,86.422,100.276,90.38,94.65z"/>
	<path style="opacity:0.6;fill:#EA2E49;" d="M119.326,81.278c4.472,0.03,8.348,2.49,10.414,6.112
		c1.044-1.772,1.656-3.829,1.672-6.032c0.044-6.672-5.328-12.118-12.004-12.164c-6.672-0.046-12.117,5.327-12.163,11.999
		c-0.016,2.205,0.569,4.268,1.589,6.055C110.946,83.655,114.858,81.248,119.326,81.278z"/>
	<path style="opacity:0.6;fill:#77C4D3;" d="M42.435,78.555c-4.333-12.049-1.546-24.896,6.149-34.027
		c-5.793-1.053-11.924-0.671-17.86,1.464C12.746,52.456,3.41,72.272,9.878,90.26c6.464,17.979,26.278,27.312,44.257,20.848
		c5.938-2.135,10.908-5.744,14.705-10.244C57.094,98.728,46.765,90.597,42.435,78.555z"/>
	<path style="opacity:0.6;fill:#F6F792;" d="M51.975,25.456c3.96-5.629,10.471-8.374,16.865-7.81
		c-1.328-2.873-3.391-5.452-6.164-7.404c-8.399-5.909-19.999-3.891-25.911,4.513c-5.91,8.399-3.891,19.998,4.509,25.907
		c2.773,1.953,5.896,3.023,9.049,3.301C47.632,38.138,48.017,31.082,51.975,25.456z"/>
	<path style="opacity:0.6;fill:#EA2E49;" d="M80.921,12.083c4.472,0.031,8.348,2.49,10.414,6.112
		c1.043-1.772,1.656-3.828,1.671-6.032C93.051,5.491,87.678,0.045,81.003,0C74.331-0.046,68.886,5.327,68.84,12
		c-0.016,2.205,0.569,4.268,1.589,6.054C72.541,14.46,76.453,12.053,80.921,12.083z"/>
	<path style="opacity:0.6;fill:#77C4D3;" d="M239.116,147.749c4.333-12.05,1.546-24.897-6.149-34.026
		c5.793-1.053,11.924-0.671,17.86,1.464c17.979,6.463,27.313,26.279,20.846,44.268c-6.463,17.979-26.278,27.312-44.256,20.848
		c-5.938-2.135-10.909-5.744-14.705-10.245C224.457,167.922,234.787,159.792,239.116,147.749z"/>
	<path style="opacity:0.6;fill:#F6F792;" d="M229.577,94.65c-3.961-5.629-10.472-8.374-16.865-7.81
		c1.327-2.874,3.39-5.452,6.163-7.403c8.399-5.909,19.999-3.892,25.911,4.513c5.91,8.398,3.892,19.997-4.508,25.906
		c-2.774,1.953-5.896,3.022-9.05,3.301C233.919,107.332,233.535,100.276,229.577,94.65z"/>
	<path style="opacity:0.6;fill:#EA2E49;" d="M200.63,81.278c-4.472,0.03-8.348,2.49-10.414,6.112
		c-1.043-1.772-1.656-3.829-1.671-6.032c-0.045-6.672,5.328-12.118,12.003-12.164c6.673-0.046,12.118,5.327,12.164,11.999
		c0.015,2.205-0.57,4.268-1.589,6.055C209.01,83.655,205.098,81.248,200.63,81.278z"/>
	<g style="opacity:0.6;">
		<path style="fill:#F6F792;" d="M293.234,258.741c4.332-12.05,1.546-24.897-6.15-34.026c5.794-1.053,11.924-0.671,17.861,1.464
			c17.978,6.464,27.312,26.28,20.846,44.268c-6.464,17.98-26.278,27.312-44.257,20.849c-5.938-2.136-10.908-5.744-14.705-10.243
			C278.575,278.915,288.904,270.783,293.234,258.741z"/>
		<path style="fill:#F6F792;" d="M283.694,205.643c-3.961-5.629-10.472-8.374-16.865-7.81c1.327-2.873,3.39-5.452,6.164-7.403
			c8.399-5.909,19.999-3.891,25.91,4.512c5.911,8.399,3.892,19.997-4.508,25.908c-2.774,1.952-5.896,3.021-9.05,3.3
			C288.037,218.324,287.652,211.268,283.694,205.643z"/>
		<path style="fill:#F6F792;" d="M254.748,192.271c-4.472,0.03-8.348,2.49-10.414,6.112c-1.044-1.771-1.656-3.829-1.672-6.033
			c-0.045-6.671,5.328-12.118,12.004-12.164c6.672-0.044,12.117,5.329,12.163,12c0.016,2.206-0.569,4.269-1.589,6.055
			C263.128,194.647,259.216,192.24,254.748,192.271z"/>
	</g>
	<path style="opacity:0.6;fill:#77C4D3;" d="M278.311,78.555c4.332-12.049,1.546-24.896-6.15-34.026
		c5.794-1.052,11.924-0.67,17.861,1.465c17.978,6.463,27.312,26.279,20.846,44.267c-6.464,17.981-26.278,27.313-44.257,20.848
		c-5.938-2.134-10.908-5.743-14.705-10.244C263.651,98.729,273.98,90.597,278.311,78.555z"/>
	<path style="opacity:0.6;fill:#F6F792;" d="M268.771,25.457c-3.961-5.629-10.472-8.374-16.865-7.81
		c1.327-2.873,3.39-5.452,6.164-7.403c8.399-5.909,19.999-3.891,25.91,4.512c5.911,8.399,3.892,19.998-4.508,25.907
		c-2.774,1.953-5.896,3.022-9.05,3.301C273.113,38.138,272.729,31.082,268.771,25.457z"/>
	<path style="opacity:0.6;fill:#EA2E49;" d="M239.824,12.084c-4.472,0.03-8.348,2.49-10.414,6.112
		c-1.044-1.771-1.656-3.829-1.672-6.032c-0.045-6.672,5.328-12.119,12.004-12.164c6.672-0.045,12.117,5.328,12.163,11.999
		c0.016,2.205-0.569,4.268-1.589,6.055C248.204,14.461,244.292,12.054,239.824,12.084z"/>
</g>
<g id="Layer_1">
</g>
</svg>
