<?xml version="1.0" encoding="iso-8859-1"?>
<!-- Generator: Adobe Illustrator 16.0.0, SVG Export Plug-In . SVG Version: 6.00 Build 0)  -->
<!DOCTYPE svg PUBLIC "-//W3C//DTD SVG 1.1//EN" "http://www.w3.org/Graphics/SVG/1.1/DTD/svg11.dtd">
<svg version="1.1" xmlns="http://www.w3.org/2000/svg" xmlns:xlink="http://www.w3.org/1999/xlink" x="0px" y="0px"
	 width="123.116px" height="194.536px" viewBox="0 0 123.116 194.536" style="enable-background:new 0 0 123.116 194.536;"
	 xml:space="preserve">
<g id="Masks">
	<circle style="fill:#EA2E49;" cx="61.557" cy="6.434" r="6.436"/>
	<path style="fill:#DAEDE2;" d="M61.558,61.753c-14.61,0-27.357,7.942-34.185,19.738C34.2,93.289,46.947,101.23,61.558,101.23
		c14.609,0,27.356-7.941,34.185-19.739C88.914,69.695,76.167,61.753,61.558,61.753z M61.558,96.072
		c-8.054,0-14.581-6.527-14.581-14.581c0-8.052,6.527-14.579,14.581-14.579c8.053,0,14.58,6.527,14.58,14.579
		C76.138,89.545,69.61,96.072,61.558,96.072z"/>
	<circle style="fill:#EA2E49;" cx="61.558" cy="81.491" r="6.436"/>
	<circle style="fill:#F6F792;" cx="20.938" cy="81.491" r="6.436"/>
	<circle style="fill:#F6F792;" cx="102.177" cy="81.062" r="6.436"/>
	<path style="fill:#77C4D3;" d="M61.569,132.982c-22.783,0-42.615-12.4-53.269-30.781C3.051,111.266,0,121.762,0,132.987
		c0,33.991,27.559,61.549,61.569,61.549c33.994,0,61.547-27.558,61.547-61.549c0-11.226-3.05-21.722-8.3-30.786
		C104.169,120.582,84.338,132.982,61.569,132.982z"/>
	<path style="fill:#EA2E49;" d="M61.557,42.744c4.815,0,9.008,2.621,11.26,6.505c1.109-1.915,1.755-4.134,1.755-6.507
		c0-7.185-5.826-13.01-13.015-13.01c-7.187,0-13.011,5.825-13.011,13.01c0,2.373,0.645,4.592,1.755,6.507
		C52.552,45.365,56.743,42.744,61.557,42.744z"/>
	<path style="fill:#EA2E49;" d="M61.561,19.378c-4.815,0-9.008-2.621-11.26-6.507c-1.11,1.917-1.755,4.134-1.755,6.507
		c0,7.187,5.825,13.011,13.015,13.011c7.187,0,13.011-5.824,13.011-13.011c0-2.373-0.646-4.59-1.755-6.507
		C70.565,16.757,66.374,19.378,61.561,19.378z"/>
</g>
<g id="Layer_1">
</g>
</svg>
