<?xml version="1.0" encoding="iso-8859-1"?>
<!-- Generator: Adobe Illustrator 16.0.0, SVG Export Plug-In . SVG Version: 6.00 Build 0)  -->
<!DOCTYPE svg PUBLIC "-//W3C//DTD SVG 1.1//EN" "http://www.w3.org/Graphics/SVG/1.1/DTD/svg11.dtd">
<svg version="1.1" xmlns="http://www.w3.org/2000/svg" xmlns:xlink="http://www.w3.org/1999/xlink" x="0px" y="0px"
	 width="229.744px" height="39.478px" viewBox="0 0 229.744 39.478" style="enable-background:new 0 0 229.744 39.478;"
	 xml:space="preserve">
<g id="mouth">
	<path style="opacity:0.6;fill:#77C4D3;" d="M181.585,0c-14.61,0-27.357,7.942-34.185,19.738
		c6.827,11.798,19.574,19.739,34.185,19.739c14.609,0,27.356-7.941,34.185-19.739C208.941,7.942,196.194,0,181.585,0z
		 M181.585,34.319c-8.054,0-14.581-6.527-14.581-14.581c0-8.053,6.527-14.58,14.581-14.58c8.053,0,14.58,6.527,14.58,14.58
		C196.165,27.792,189.638,34.319,181.585,34.319z"/>
	<path style="opacity:0.6;fill:#EA2E49;" d="M114.28,0C99.668,0,86.923,7.942,80.096,19.738
		c6.827,11.798,19.572,19.739,34.185,19.739c14.609,0,27.354-7.941,34.185-19.739C141.635,7.942,128.89,0,114.28,0z M114.28,34.319
		c-8.056,0-14.581-6.527-14.581-14.581c0-8.053,6.525-14.58,14.581-14.58c8.053,0,14.578,6.527,14.578,14.58
		C128.858,27.792,122.333,34.319,114.28,34.319z"/>
	<path style="opacity:0.6;fill:#77C4D3;" d="M46.975,0C32.363,0,19.616,7.942,12.79,19.738
		c6.826,11.798,19.573,19.739,34.185,19.739c14.608,0,27.355-7.941,34.184-19.739C74.33,7.942,61.583,0,46.975,0z M46.975,34.319
		c-8.055,0-14.582-6.527-14.582-14.581c0-8.053,6.527-14.58,14.582-14.58c8.052,0,14.579,6.527,14.579,14.58
		C61.554,27.792,55.026,34.319,46.975,34.319z"/>
	<circle style="opacity:0.6;fill:#77C4D3;" cx="223.309" cy="19.739" r="6.436"/>
	<circle style="opacity:0.6;fill:#77C4D3;" cx="6.436" cy="19.739" r="6.436"/>
</g>
<g id="Layer_1">
</g>
</svg>
