<?xml version="1.0" encoding="iso-8859-1"?>
<!-- Generator: Adobe Illustrator 16.0.0, SVG Export Plug-In . SVG Version: 6.00 Build 0)  -->
<!DOCTYPE svg PUBLIC "-//W3C//DTD SVG 1.1//EN" "http://www.w3.org/Graphics/SVG/1.1/DTD/svg11.dtd">
<svg version="1.1" xmlns="http://www.w3.org/2000/svg" xmlns:xlink="http://www.w3.org/1999/xlink" x="0px" y="0px" width="52.05px"
	 height="105.432px" viewBox="0 0 52.05 105.432" style="enable-background:new 0 0 52.05 105.432;" xml:space="preserve">
<g id="nose">
	<circle style="opacity:0.6;fill:#F6F792;" cx="26.025" cy="70.129" r="6.436"/>
	<circle style="opacity:0.6;fill:#F6F792;" cx="26.025" cy="98.995" r="6.436"/>
	<circle style="opacity:0.6;fill:#77C4D3;" cx="26.025" cy="57.258" r="6.436"/>
	<circle style="opacity:0.6;fill:#F6F792;" cx="26.025" cy="44.387" r="6.436"/>
	<circle style="opacity:0.6;fill:#77C4D3;" cx="26.025" cy="31.516" r="6.436"/>
	<circle style="opacity:0.6;fill:#F6F792;" cx="26.025" cy="18.975" r="6.436"/>
	<path style="opacity:0.6;fill:#77C4D3;" d="M32.461,6.434c0,3.555-2.883,6.438-6.438,6.438c-3.554,0-6.434-2.883-6.434-6.438
		C19.59,2.88,22.47,0,26.023,0C29.578,0,32.461,2.88,32.461,6.434z"/>
	<path style="opacity:0.6;fill:#77C4D3;" d="M13.011,86.054c4.815,0,9.008,2.621,11.26,6.506c1.109-1.917,1.755-4.134,1.755-6.507
		c0-7.185-5.826-13.011-13.015-13.011C5.824,73.042,0,78.868,0,86.053c0,2.373,0.646,4.59,1.755,6.507
		C4.006,88.675,8.197,86.054,13.011,86.054z"/>
	<path style="opacity:0.6;fill:#77C4D3;" d="M39.035,86.054c4.816,0,9.008,2.621,11.26,6.506c1.11-1.917,1.755-4.134,1.755-6.507
		c0-7.185-5.825-13.011-13.015-13.011c-7.186,0-13.01,5.826-13.01,13.011c0,2.373,0.645,4.59,1.755,6.507
		C30.03,88.675,34.223,86.054,39.035,86.054z"/>
</g>
<g id="Layer_1">
</g>
</svg>
