<?xml version="1.0" encoding="iso-8859-1"?>
<!-- Generator: Adobe Illustrator 16.0.0, SVG Export Plug-In . SVG Version: 6.00 Build 0)  -->
<!DOCTYPE svg PUBLIC "-//W3C//DTD SVG 1.1//EN" "http://www.w3.org/Graphics/SVG/1.1/DTD/svg11.dtd">
<svg version="1.1" xmlns="http://www.w3.org/2000/svg" xmlns:xlink="http://www.w3.org/1999/xlink" x="0px" y="0px"
	 width="305.514px" height="511.256px" viewBox="0 0 305.514 511.256" style="enable-background:new 0 0 305.514 511.256;"
	 xml:space="preserve">
<g id="rootBigTree">
	<line style="fill:none;stroke:#FFFFFF;stroke-miterlimit:10;" x1="198.29" y1="507.87" x2="198.29" y2="55.478"/>
	<circle id="dummy_37_" style="fill:#27FF2E;" cx="198.29" cy="507.87" r="3.386"/>
	<g id="Layer_20_copy_9">
		<line style="fill:none;stroke:#FFFFFF;stroke-miterlimit:10;" x1="198.29" y1="175.125" x2="238.005" y2="135.41"/>
		<circle id="dummy_56_" style="fill:#27FF2E;" cx="198.289" cy="175.125" r="3.385"/>
		<g id="Layer_23_copy_4">
			<line style="fill:none;stroke:#FFFFFF;stroke-miterlimit:10;" x1="238.005" y1="135.41" x2="305.514" y2="135.41"/>
			<circle id="dummy_59_" style="fill:#27FF2E;" cx="238.005" cy="135.41" r="3.385"/>
		</g>
		<g id="Layer_23_copy_4_1_">
			<line style="fill:none;stroke:#FFFFFF;stroke-miterlimit:10;" x1="238.005" y1="135.41" x2="293.664" y2="79.751"/>
			<circle id="dummy_46_" style="fill:#27FF2E;" cx="238.005" cy="135.41" r="3.385"/>
		</g>
	</g>
	<g id="Layer_20_copy_9_1_">
		<line style="fill:none;stroke:#FFFFFF;stroke-miterlimit:10;" x1="198.288" y1="223.221" x2="30.285" y2="55.219"/>
		<circle id="dummy_45_" style="fill:#27FF2E;" cx="198.29" cy="223.221" r="3.386"/>
		<g id="Layer_23_copy_4_2_">
			<line style="fill:none;stroke:#FFFFFF;stroke-miterlimit:10;" x1="30.285" y1="55.219" x2="30.285" y2="0.354"/>
			<circle id="dummy_48_" style="fill:#27FF2E;" cx="30.285" cy="55.219" r="3.386"/>
		</g>
		<g id="Layer_23_copy_4_3_">
			<line style="fill:none;stroke:#FFFFFF;stroke-miterlimit:10;" x1="30.285" y1="55.219" x2="0.354" y2="25.287"/>
			<circle id="dummy_43_" style="fill:#27FF2E;" cx="30.285" cy="55.219" r="3.386"/>
		</g>
		<g id="movingLineR">
			<line style="fill:none;stroke:#FFFFFF;stroke-miterlimit:10;" x1="100.601" y1="125.534" x2="100.601" y2="366.065"/>
			<circle id="dummy_39_" style="fill:#27FF2E;" cx="100.601" cy="125.533" r="3.386"/>
			<g id="rootMan">
				<circle style="fill:#FFFFFF;" cx="76.543" cy="324.646" r="6.782"/>
				
					<rect x="77.576" y="332.693" transform="matrix(0.9106 -0.4133 0.4133 0.9106 -135.1778 65.2856)" style="fill:#FFFFFF;" width="11.499" height="24.854"/>
				<line style="fill:none;stroke:#FFFFFF;stroke-miterlimit:10;" x1="83.225" y1="358.812" x2="67.201" y2="372.308"/>
				<line style="fill:none;stroke:#FFFFFF;stroke-miterlimit:10;" x1="93.695" y1="354.061" x2="83.186" y2="372.308"/>
				<line style="fill:none;stroke:#FFFFFF;stroke-miterlimit:10;" x1="83.424" y1="331.43" x2="95.859" y2="342.602"/>
				<line style="fill:none;stroke:#FFFFFF;stroke-miterlimit:10;" x1="95.859" y1="342.602" x2="100.601" y2="317.864"/>
				<line style="fill:none;stroke:#FFFFFF;stroke-miterlimit:10;" x1="72.956" y1="336.18" x2="67.626" y2="354.061"/>
				<line style="fill:none;stroke:#FFFFFF;stroke-miterlimit:10;" x1="67.626" y1="354.061" x2="63.464" y2="337.016"/>
				<circle id="dummy_47_" style="fill:#27FF2E;" cx="100.601" cy="317.864" r="3.386"/>
				<g id="manLegR">
					<line style="fill:none;stroke:#FFFFFF;stroke-miterlimit:10;" x1="67.201" y1="372.308" x2="67.626" y2="399.287"/>
					<circle id="dummy_50_" style="fill:#27FF2E;" cx="67.201" cy="372.308" r="3.386"/>
				</g>
				<g id="manLegL">
					<line style="fill:none;stroke:#FFFFFF;stroke-miterlimit:10;" x1="83.186" y1="372.308" x2="83.424" y2="399.287"/>
					<circle id="dummy_49_" style="fill:#27FF2E;" cx="83.424" cy="372.308" r="3.386"/>
				</g>
			</g>
			<g id="Layer_59">
				<line style="fill:none;stroke:#FFFFFF;stroke-miterlimit:10;" x1="113.764" y1="365.56" x2="51.541" y2="365.56"/>
				<circle id="dummy_51_" style="fill:#27FF2E;" cx="100.601" cy="365.56" r="3.386"/>
			</g>
		</g>
		<g id="movingLineL">
			<line style="fill:none;stroke:#FFFFFF;stroke-miterlimit:10;" x1="63.464" y1="88.397" x2="63.464" y2="366.065"/>
			<circle id="dummy_44_" style="fill:#27FF2E;" cx="63.464" cy="88.397" r="3.386"/>
		</g>
	</g>
	<g id="Layer_20_copy_9_2_">
		<line style="fill:none;stroke:#FFFFFF;stroke-miterlimit:10;" x1="198.288" y1="55.478" x2="163.108" y2="20.295"/>
		<circle id="dummy_41_" style="fill:#27FF2E;" cx="198.29" cy="55.478" r="3.386"/>
	</g>
	<g id="Layer_19_copy_7">
		<line style="fill:none;stroke:#FFFFFF;stroke-miterlimit:10;" x1="198.29" y1="55.478" x2="253.419" y2="0.354"/>
		<circle id="dummy_42_" style="fill:#27FF2E;" cx="198.29" cy="55.478" r="3.386"/>
	</g>
</g>
<g id="Layer_1">
</g>
</svg>
