<?xml version="1.0" encoding="iso-8859-1"?>
<!-- Generator: Adobe Illustrator 16.0.0, SVG Export Plug-In . SVG Version: 6.00 Build 0)  -->
<!DOCTYPE svg PUBLIC "-//W3C//DTD SVG 1.1//EN" "http://www.w3.org/Graphics/SVG/1.1/DTD/svg11.dtd">
<svg version="1.1" xmlns="http://www.w3.org/2000/svg" xmlns:xlink="http://www.w3.org/1999/xlink" x="0px" y="0px"
	 width="419.986px" height="268.33px" viewBox="0 0 419.986 268.33" style="enable-background:new 0 0 419.986 268.33;"
	 xml:space="preserve">
<g id="rootSmallTrees">
	<circle id="dummy" style="fill:#27FF2E;" cx="217.158" cy="250.374" r="6.881"/>
	<g id="Layer_14">
		<line style="fill:none;stroke:#FFFFFF;stroke-miterlimit:10;" x1="23.152" y1="250.374" x2="23.152" y2="76.799"/>
		<circle id="dummy_24_" style="fill:#27FF2E;" cx="23.152" cy="250.374" r="1.943"/>
		<g id="Layer_20">
			<line style="fill:none;stroke:#FFFFFF;stroke-miterlimit:10;" x1="23.151" y1="127.5" x2="0.354" y2="104.702"/>
			<circle id="dummy_8_" style="fill:#27FF2E;" cx="23.152" cy="127.5" r="1.943"/>
		</g>
		<g id="Layer_20_copy_2">
			<line style="fill:none;stroke:#FFFFFF;stroke-miterlimit:10;" x1="23.151" y1="76.799" x2="0.354" y2="54.001"/>
			<circle id="dummy_30_" style="fill:#27FF2E;" cx="23.152" cy="76.799" r="1.943"/>
		</g>
		<g id="Layer_19">
			<line style="fill:none;stroke:#FFFFFF;stroke-miterlimit:10;" x1="23.152" y1="76.799" x2="59.597" y2="40.357"/>
			<circle id="dummy_10_" style="fill:#27FF2E;" cx="23.152" cy="76.799" r="1.943"/>
		</g>
	</g>
	<g id="Layer_14_copy_5">
		<line style="fill:none;stroke:#FFFFFF;stroke-miterlimit:10;" x1="383.188" y1="250.374" x2="383.188" y2="36.795"/>
		<circle id="dummy_32_" style="fill:#27FF2E;" cx="383.188" cy="250.374" r="1.943"/>
		<g id="Layer_20_copy_8">
			<line style="fill:none;stroke:#FFFFFF;stroke-miterlimit:10;" x1="383.188" y1="127.5" x2="360.389" y2="104.702"/>
			<circle id="dummy_38_" style="fill:#27FF2E;" cx="383.188" cy="127.5" r="1.943"/>
		</g>
		<g id="Layer_20_copy_8_1_">
			<line style="fill:none;stroke:#FFFFFF;stroke-miterlimit:10;" x1="383.188" y1="36.795" x2="360.389" y2="13.997"/>
			<circle id="dummy_40_" style="fill:#27FF2E;" cx="383.188" cy="36.795" r="1.943"/>
		</g>
		<g id="Layer_19_copy_6">
			<line style="fill:none;stroke:#FFFFFF;stroke-miterlimit:10;" x1="383.188" y1="36.795" x2="419.633" y2="0.354"/>
			<circle id="dummy_36_" style="fill:#27FF2E;" cx="383.188" cy="36.795" r="1.943"/>
		</g>
	</g>
	<g id="Layer_14_copy_2">
		<line style="fill:none;stroke:#FFFFFF;stroke-miterlimit:10;" x1="104.648" y1="249.798" x2="104.648" y2="114.067"/>
		<circle id="dummy_9_" style="fill:#27FF2E;" cx="104.648" cy="249.798" r="1.52"/>
		<g id="Layer_20_copy_3">
			<line style="fill:none;stroke:#FFFFFF;stroke-miterlimit:10;" x1="104.647" y1="153.714" x2="84.719" y2="133.785"/>
			<circle id="dummy_13_" style="fill:#27FF2E;" cx="104.648" cy="153.714" r="1.52"/>
		</g>
		<g id="Layer_20_copy_4">
			<line style="fill:none;stroke:#FFFFFF;stroke-miterlimit:10;" x1="104.648" y1="168.695" x2="122.475" y2="150.868"/>
			<circle id="dummy_31_" style="fill:#27FF2E;" cx="104.647" cy="168.695" r="1.52"/>
			<g id="Layer_23">
				<line style="fill:none;stroke:#FFFFFF;stroke-miterlimit:10;" x1="122.475" y1="150.868" x2="141.476" y2="150.868"/>
				<circle id="dummy_33_" style="fill:#27FF2E;" cx="122.475" cy="150.868" r="1.52"/>
			</g>
			<g id="Layer_23_copy">
				<line style="fill:none;stroke:#FFFFFF;stroke-miterlimit:10;" x1="122.475" y1="150.868" x2="135.911" y2="137.433"/>
				<circle id="dummy_16_" style="fill:#27FF2E;" cx="122.475" cy="150.868" r="1.52"/>
			</g>
		</g>
		<g id="Layer_20_copy_3_1_">
			<line style="fill:none;stroke:#FFFFFF;stroke-miterlimit:10;" x1="104.647" y1="114.067" x2="87.566" y2="96.986"/>
			<circle id="dummy_15_" style="fill:#27FF2E;" cx="104.648" cy="114.067" r="1.52"/>
		</g>
		<g id="Layer_19_copy_2">
			<line style="fill:none;stroke:#FFFFFF;stroke-miterlimit:10;" x1="104.648" y1="114.067" x2="119.927" y2="98.791"/>
			<circle id="dummy_7_" style="fill:#27FF2E;" cx="104.648" cy="114.067" r="1.52"/>
		</g>
	</g>
	<g id="Layer_14_copy_3">
		<line style="fill:none;stroke:#FFFFFF;stroke-miterlimit:10;" x1="240.295" y1="250.374" x2="240.295" y2="76.799"/>
		<circle id="dummy_17_" style="fill:#27FF2E;" cx="240.295" cy="250.374" r="1.943"/>
		<g id="Layer_20_copy_5">
			<line style="fill:none;stroke:#FFFFFF;stroke-miterlimit:10;" x1="240.293" y1="113.785" x2="227.551" y2="101.042"/>
			<circle id="dummy_23_" style="fill:#27FF2E;" cx="240.295" cy="113.785" r="1.943"/>
		</g>
		<g id="Layer_20_copy_5_1_">
			<line style="fill:none;stroke:#FFFFFF;stroke-miterlimit:10;" x1="240.295" y1="182.604" x2="263.092" y2="159.807"/>
			<circle id="dummy_26_" style="fill:#27FF2E;" cx="240.293" cy="182.604" r="1.943"/>
			<g id="Layer_23_copy_2">
				<line style="fill:none;stroke:#FFFFFF;stroke-miterlimit:10;" x1="263.092" y1="159.807" x2="287.391" y2="159.807"/>
				<circle id="dummy_29_" style="fill:#27FF2E;" cx="263.092" cy="159.807" r="1.943"/>
			</g>
			<g id="Layer_23_copy_2_1_">
				<line style="fill:none;stroke:#FFFFFF;stroke-miterlimit:10;" x1="263.092" y1="159.807" x2="280.273" y2="142.625"/>
				<circle id="dummy_20_" style="fill:#27FF2E;" cx="263.092" cy="159.807" r="1.943"/>
			</g>
		</g>
		<g id="Layer_20_copy_6">
			<line style="fill:none;stroke:#FFFFFF;stroke-miterlimit:10;" x1="240.293" y1="155.92" x2="217.495" y2="133.122"/>
			<circle id="dummy_21_" style="fill:#27FF2E;" cx="240.294" cy="155.92" r="1.943"/>
			<g id="Layer_23_copy_3">
				<line style="fill:none;stroke:#FFFFFF;stroke-miterlimit:10;" x1="217.495" y1="133.122" x2="193.196" y2="133.122"/>
				<circle id="dummy_25_" style="fill:#27FF2E;" cx="217.495" cy="133.122" r="1.943"/>
			</g>
			<g id="Layer_23_copy_3_1_">
				<line style="fill:none;stroke:#FFFFFF;stroke-miterlimit:10;" x1="217.495" y1="133.122" x2="200.313" y2="115.94"/>
				<circle id="dummy_27_" style="fill:#27FF2E;" cx="217.495" cy="133.122" r="1.943"/>
			</g>
		</g>
		<g id="Layer_20_copy_5_2_">
			<line style="fill:none;stroke:#FFFFFF;stroke-miterlimit:10;" x1="240.293" y1="76.799" x2="230.391" y2="66.896"/>
			<circle id="dummy_19_" style="fill:#27FF2E;" cx="240.295" cy="76.799" r="1.943"/>
		</g>
		<g id="Layer_19_copy_3">
			<line style="fill:none;stroke:#FFFFFF;stroke-miterlimit:10;" x1="240.295" y1="76.799" x2="259.834" y2="57.263"/>
			<circle id="dummy_22_" style="fill:#27FF2E;" cx="240.295" cy="76.799" r="1.943"/>
		</g>
		<g id="Layer_19_copy_4">
			<line style="fill:none;stroke:#FFFFFF;stroke-miterlimit:10;" x1="240.295" y1="134.354" x2="259.834" y2="114.817"/>
			<circle id="dummy_18_" style="fill:#27FF2E;" cx="240.295" cy="134.354" r="1.943"/>
		</g>
	</g>
	<g id="Layer_14_copy">
		<line style="fill:none;stroke:#FFFFFF;stroke-miterlimit:10;" x1="320.303" y1="250.374" x2="320.303" y2="76.799"/>
		<circle id="dummy_3_" style="fill:#27FF2E;" cx="320.303" cy="250.374" r="1.943"/>
		<g id="Layer_20_copy">
			<line style="fill:none;stroke:#FFFFFF;stroke-miterlimit:10;" x1="320.303" y1="76.799" x2="297.504" y2="54.001"/>
			<circle id="dummy_5_" style="fill:#27FF2E;" cx="320.303" cy="76.799" r="1.943"/>
		</g>
		<g id="Layer_19_copy">
			<line style="fill:none;stroke:#FFFFFF;stroke-miterlimit:10;" x1="320.303" y1="76.799" x2="343.104" y2="54.001"/>
			<circle id="dummy_4_" style="fill:#27FF2E;" cx="320.303" cy="76.799" r="1.943"/>
		</g>
	</g>
	<g id="Layer_14_copy_4">
		<line style="fill:none;stroke:#FFFFFF;stroke-miterlimit:10;" x1="183.901" y1="241.91" x2="183.901" y2="116.229"/>
		<circle id="dummy_28_" style="fill:#27FF2E;" cx="183.901" cy="241.91" r="1.407"/>
		<g id="Layer_20_copy_7">
			<line style="fill:none;stroke:#FFFFFF;stroke-miterlimit:10;" x1="183.901" y1="116.229" x2="167.394" y2="99.722"/>
			<circle id="dummy_34_" style="fill:#27FF2E;" cx="183.901" cy="116.229" r="1.407"/>
		</g>
		<g id="Layer_19_copy_5">
			<line style="fill:none;stroke:#FFFFFF;stroke-miterlimit:10;" x1="183.901" y1="116.229" x2="200.411" y2="99.722"/>
			<circle id="dummy_35_" style="fill:#27FF2E;" cx="183.901" cy="116.229" r="1.407"/>
		</g>
	</g>
	<g id="Layer_13">
		<line style="fill:none;stroke:#FFFFFF;stroke-miterlimit:10;" x1="300.105" y1="264.374" x2="300.105" y2="127.569"/>
		<circle id="dummy_1_" style="fill:#27FF2E;" cx="300.157" cy="264.374" r="3.956"/>
		<g id="Layer_16">
			<line style="fill:none;stroke:#FFFFFF;stroke-miterlimit:10;" x1="300.105" y1="127.569" x2="287.158" y2="114.621"/>
			<circle id="dummy_2_" style="fill:#27FF2E;" cx="300.106" cy="127.569" r="3.956"/>
		</g>
	</g>
	<g id="Layer_13_copy">
		<line style="fill:none;stroke:#FFFFFF;stroke-miterlimit:10;" x1="161.356" y1="246.074" x2="161.356" y2="79.267"/>
		<circle id="dummy_12_" style="fill:#27FF2E;" cx="161.304" cy="246.074" r="3.956"/>
		<g id="Layer_16_copy">
			<line style="fill:none;stroke:#FFFFFF;stroke-miterlimit:10;" x1="161.356" y1="79.267" x2="174.304" y2="66.318"/>
			<circle id="dummy_11_" style="fill:#27FF2E;" cx="161.356" cy="79.267" r="3.956"/>
		</g>
	</g>
	<g id="Layer_13_copy_2">
		<line style="fill:none;stroke:#FFFFFF;stroke-miterlimit:10;" x1="61.346" y1="246.074" x2="61.346" y2="139.272"/>
		<circle id="dummy_6_" style="fill:#27FF2E;" cx="61.294" cy="246.074" r="3.956"/>
		<g id="Layer_16_copy_2">
			<line style="fill:none;stroke:#FFFFFF;stroke-miterlimit:10;" x1="61.346" y1="139.272" x2="74.294" y2="126.324"/>
			<circle id="dummy_14_" style="fill:#27FF2E;" cx="61.346" cy="139.272" r="3.956"/>
		</g>
	</g>
</g>
<g id="Layer_1">
</g>
</svg>
