<?xml version="1.0" encoding="iso-8859-1"?>
<!-- Generator: Adobe Illustrator 16.0.0, SVG Export Plug-In . SVG Version: 6.00 Build 0)  -->
<!DOCTYPE svg PUBLIC "-//W3C//DTD SVG 1.1//EN" "http://www.w3.org/Graphics/SVG/1.1/DTD/svg11.dtd">
<svg version="1.1" xmlns="http://www.w3.org/2000/svg" xmlns:xlink="http://www.w3.org/1999/xlink" x="0px" y="0px"
	 width="104.279px" height="104.104px" viewBox="0 0 104.279 104.104" style="enable-background:new 0 0 104.279 104.104;"
	 xml:space="preserve">
<g id="sun">
	<path style="fill:none;stroke:#FFFFFF;stroke-miterlimit:10;" d="M79.765,51.68c0,15.578-12.627,28.205-28.204,28.205
		c-15.575,0-28.204-12.627-28.204-28.205c0-15.574,12.628-28.203,28.204-28.203C67.138,23.477,79.765,36.105,79.765,51.68z"/>
	<line style="fill:none;stroke:#FFFFFF;stroke-miterlimit:10;" x1="50.899" y1="16.987" x2="50.899" y2="0"/>
	<line style="fill:none;stroke:#FFFFFF;stroke-miterlimit:10;" x1="61.453" y1="18.218" x2="66.504" y2="1.999"/>
	<line style="fill:none;stroke:#FFFFFF;stroke-miterlimit:10;" x1="71.164" y1="22.531" x2="80.809" y2="8.548"/>
	<line style="fill:none;stroke:#FFFFFF;stroke-miterlimit:10;" x1="79.152" y1="29.537" x2="92.52" y2="19.055"/>
	<line style="fill:none;stroke:#FFFFFF;stroke-miterlimit:10;" x1="84.697" y1="38.602" x2="100.575" y2="32.567"/>
	<line style="fill:none;stroke:#FFFFFF;stroke-miterlimit:10;" x1="87.295" y1="48.904" x2="104.249" y2="47.865"/>
	<line style="fill:none;stroke:#FFFFFF;stroke-miterlimit:10;" x1="86.711" y1="59.514" x2="103.207" y2="63.563"/>
	<line style="fill:none;stroke:#FFFFFF;stroke-miterlimit:10;" x1="82.998" y1="69.47" x2="97.545" y2="78.242"/>
	<line style="fill:none;stroke:#FFFFFF;stroke-miterlimit:10;" x1="76.494" y1="77.872" x2="87.774" y2="90.573"/>
	<line style="fill:none;stroke:#FFFFFF;stroke-miterlimit:10;" x1="67.785" y1="83.96" x2="74.779" y2="99.44"/>
	<line style="fill:none;stroke:#FFFFFF;stroke-miterlimit:10;" x1="57.66" y1="87.183" x2="59.734" y2="104.042"/>
	<line style="fill:none;stroke:#FFFFFF;stroke-miterlimit:10;" x1="47.035" y1="87.249" x2="44.001" y2="103.962"/>
	<line style="fill:none;stroke:#FFFFFF;stroke-miterlimit:10;" x1="36.87" y1="84.152" x2="29.004" y2="99.207"/>
	<line style="fill:none;stroke:#FFFFFF;stroke-miterlimit:10;" x1="28.086" y1="78.173" x2="16.099" y2="90.208"/>
	<line style="fill:none;stroke:#FFFFFF;stroke-miterlimit:10;" x1="21.478" y1="69.853" x2="6.454" y2="77.778"/>
	<line style="fill:none;stroke:#FFFFFF;stroke-miterlimit:10;" x1="17.642" y1="59.942" x2="0.941" y2="63.043"/>
	<line style="fill:none;stroke:#FFFFFF;stroke-miterlimit:10;" x1="16.927" y1="49.341" x2="0.059" y2="47.335"/>
	<line style="fill:none;stroke:#FFFFFF;stroke-miterlimit:10;" x1="19.397" y1="39.007" x2="3.888" y2="32.075"/>
	<line style="fill:none;stroke:#FFFFFF;stroke-miterlimit:10;" x1="24.828" y1="29.874" x2="12.082" y2="18.645"/>
	<line style="fill:none;stroke:#FFFFFF;stroke-miterlimit:10;" x1="32.729" y1="22.77" x2="23.898" y2="8.257"/>
	<line style="fill:none;stroke:#FFFFFF;stroke-miterlimit:10;" x1="41.562" y1="18.6" x2="37.053" y2="2.222"/>
</g>
<g id="Layer_1">
</g>
</svg>
