<?xml version="1.0" encoding="iso-8859-1"?>
<!-- Generator: Adobe Illustrator 16.0.0, SVG Export Plug-In . SVG Version: 6.00 Build 0)  -->
<!DOCTYPE svg PUBLIC "-//W3C//DTD SVG 1.1//EN" "http://www.w3.org/Graphics/SVG/1.1/DTD/svg11.dtd">
<svg version="1.1" xmlns="http://www.w3.org/2000/svg" xmlns:xlink="http://www.w3.org/1999/xlink" x="0px" y="0px"
	 width="321.072px" height="281.069px" viewBox="0 0 321.072 281.069" style="enable-background:new 0 0 321.072 281.069;"
	 xml:space="preserve">
<g id="nose">
	<rect x="137.002" y="0.5" style="fill:none;stroke:#000000;stroke-miterlimit:10;" width="45.759" height="45.758"/>
	<circle id="dummy_4_" style="fill:#00FF00;" cx="159.882" cy="23.378" r="3.348"/>
	<g id="Layer_6">
		<line style="fill:none;stroke:#000000;stroke-miterlimit:10;" x1="182.761" y1="46.258" x2="301.059" y2="173.276"/>
		
			<rect x="290.055" y="162.272" transform="matrix(0.7071 0.7071 -0.7071 0.7071 210.692 -162.1264)" style="fill:none;stroke:#000000;stroke-miterlimit:10;" width="22.008" height="22.009"/>
		<circle id="dummy_1_" style="fill:#00FF00;" cx="182.534" cy="46.258" r="3.348"/>
	</g>
	<g id="Layer_7">
		<line style="fill:none;stroke:#000000;stroke-miterlimit:10;" x1="182.761" y1="46.258" x2="285.496" y2="233.8"/>
		<circle style="fill:none;stroke:#000000;stroke-miterlimit:10;" cx="285.496" cy="233.8" r="35.077"/>
		<circle id="dummy_2_" style="fill:#00FF00;" cx="182.534" cy="46.258" r="3.348"/>
	</g>
	<g id="Layer_5">
		<line style="fill:none;stroke:#000000;stroke-miterlimit:10;" x1="182.761" y1="46.258" x2="277.674" y2="109.767"/>
		<circle style="fill:none;stroke:#000000;stroke-miterlimit:10;" cx="277.674" cy="109.767" r="16.74"/>
		<circle id="dummy_3_" style="fill:#00FF00;" cx="182.534" cy="46.258" r="3.348"/>
	</g>
	<g id="Layer_9">
		<line style="fill:none;stroke:#000000;stroke-miterlimit:10;" x1="137.002" y1="46.258" x2="56.21" y2="126.507"/>
		<circle style="fill:none;stroke:#000000;stroke-miterlimit:10;" cx="56.21" cy="126.507" r="8.941"/>
		<circle id="dummy_5_" style="fill:#00FF00;" cx="137.002" cy="46.258" r="3.348"/>
		<g id="Layer_11">
			<line style="fill:none;stroke:#000000;stroke-miterlimit:10;" x1="56.21" y1="126.507" x2="16.205" y2="86.502"/>
			
				<rect x="8.525" y="78.822" transform="matrix(0.7071 0.7071 -0.7071 0.7071 65.9108 13.876)" style="fill:none;stroke:#000000;stroke-miterlimit:10;" width="15.359" height="15.359"/>
			<circle id="dummy_8_" style="fill:#00FF00;" cx="56.21" cy="126.507" r="3.348"/>
		</g>
	</g>
	<g id="Layer_10">
		<line style="fill:none;stroke:#000000;stroke-miterlimit:10;" x1="137.002" y1="46.258" x2="23.885" y2="257.185"/>
		<rect x="0.5" y="233.8" style="fill:none;stroke:#000000;stroke-miterlimit:10;" width="46.769" height="46.77"/>
		<circle id="dummy_6_" style="fill:#00FF00;" cx="137.002" cy="46.258" r="3.348"/>
	</g>
	<g id="Layer_8">
		<line style="fill:none;stroke:#000000;stroke-miterlimit:10;" x1="137.002" y1="46.258" x2="65.151" y2="79.738"/>
		<circle style="fill:none;stroke:#000000;stroke-miterlimit:10;" cx="65.151" cy="79.738" r="7.566"/>
		<circle id="dummy_7_" style="fill:#00FF00;" cx="137.002" cy="46.258" r="3.348"/>
	</g>
</g>
<g id="Layer_1">
</g>
</svg>
