<?xml version="1.0" encoding="iso-8859-1"?>
<!-- Generator: Adobe Illustrator 16.0.0, SVG Export Plug-In . SVG Version: 6.00 Build 0)  -->
<!DOCTYPE svg PUBLIC "-//W3C//DTD SVG 1.1//EN" "http://www.w3.org/Graphics/SVG/1.1/DTD/svg11.dtd">
<svg version="1.1" xmlns="http://www.w3.org/2000/svg" xmlns:xlink="http://www.w3.org/1999/xlink" x="0px" y="0px"
	 width="245.354px" height="294.686px" viewBox="0 0 245.354 294.686" style="enable-background:new 0 0 245.354 294.686;"
	 xml:space="preserve">
<g id="rootbrow">
	<rect x="54.708" y="254.557" style="fill:none;stroke:#000000;stroke-miterlimit:10;" width="40.464" height="39.629"/>
	<ellipse id="dummy_14_" style="fill:#00FF00;" cx="74.941" cy="274.371" rx="5.392" ry="5.28"/>
	<g id="Layer_15">
		<line style="fill:none;stroke:#000000;stroke-miterlimit:10;" x1="95.172" y1="254.557" x2="207.043" y2="148.169"/>
		<ellipse style="fill:none;stroke:#000000;stroke-miterlimit:10;" cx="207.042" cy="148.169" rx="11.077" ry="10.849"/>
		<ellipse id="dummy_16_" style="fill:#00FF00;" cx="95.172" cy="254.557" rx="5.392" ry="5.281"/>
	</g>
	<g id="Layer_16">
		<line style="fill:none;stroke:#000000;stroke-miterlimit:10;" x1="95.172" y1="254.557" x2="207.043" y2="37.519"/>
		<polygon style="fill:none;stroke:#000000;stroke-miterlimit:10;" points="207.043,74.339 169.447,37.519 207.043,0.7 
			244.639,37.519 		"/>
		<ellipse id="dummy_15_" style="fill:#00FF00;" cx="95.172" cy="254.557" rx="5.392" ry="5.281"/>
		<g id="Layer_17">
			<rect x="38.094" y="37.519" style="fill:none;stroke:#000000;stroke-miterlimit:10;" width="131.353" height="0"/>
			<ellipse style="fill:none;stroke:#000000;stroke-miterlimit:10;" cx="38.095" cy="37.519" rx="37.595" ry="36.82"/>
			<path id="dummy_17_" style="fill:#00FF00;" d="M174.84,37.52c0,2.917-2.412,5.28-5.393,5.28c-2.975,0-5.391-2.364-5.391-5.28
				s2.416-5.28,5.391-5.28C172.428,32.24,174.84,34.604,174.84,37.52z"/>
		</g>
	</g>
</g>
<g id="Layer_1">
</g>
</svg>
