<?xml version="1.0" encoding="iso-8859-1"?>
<!-- Generator: Adobe Illustrator 16.0.0, SVG Export Plug-In . SVG Version: 6.00 Build 0)  -->
<!DOCTYPE svg PUBLIC "-//W3C//DTD SVG 1.1//EN" "http://www.w3.org/Graphics/SVG/1.1/DTD/svg11.dtd">
<svg version="1.1" xmlns="http://www.w3.org/2000/svg" xmlns:xlink="http://www.w3.org/1999/xlink" x="0px" y="0px"
	 width="516.463px" height="442.741px" viewBox="0 0 516.463 442.741" style="enable-background:new 0 0 516.463 442.741;"
	 xml:space="preserve">
<g id="rootnose">
	<rect x="220.331" y="0.5" style="fill:none;stroke:#000000;stroke-miterlimit:10;" width="73.693" height="72.172"/>
	<ellipse id="dummy_4_" style="fill:#00FF00;" cx="257.177" cy="36.586" rx="5.392" ry="5.28"/>
	<g id="Layer_6">
		<line style="fill:none;stroke:#000000;stroke-miterlimit:10;" x1="294.023" y1="72.672" x2="484.535" y2="273.013"/>
		<polygon style="fill:none;stroke:#000000;stroke-miterlimit:10;" points="484.535,297.558 459.473,273.013 484.535,248.467 
			509.598,273.013 		"/>
		<ellipse id="dummy_1_" style="fill:#00FF00;" cx="293.658" cy="72.672" rx="5.391" ry="5.28"/>
	</g>
	<g id="Layer_7">
		<line style="fill:none;stroke:#000000;stroke-miterlimit:10;" x1="294.023" y1="72.672" x2="459.473" y2="368.474"/>
		<path style="fill:none;stroke:#000000;stroke-miterlimit:10;" d="M515.963,368.474c0,30.555-25.291,55.326-56.49,55.326
			c-31.197,0-56.49-24.771-56.49-55.326c0-30.553,25.293-55.324,56.49-55.324C490.672,313.149,515.963,337.921,515.963,368.474z"/>
		<ellipse id="dummy_2_" style="fill:#00FF00;" cx="293.658" cy="72.672" rx="5.391" ry="5.28"/>
	</g>
	<g id="Layer_5">
		<line style="fill:none;stroke:#000000;stroke-miterlimit:10;" x1="294.023" y1="72.672" x2="446.875" y2="172.842"/>
		<ellipse style="fill:none;stroke:#000000;stroke-miterlimit:10;" cx="446.876" cy="172.842" rx="26.96" ry="26.403"/>
		<ellipse id="dummy_3_" style="fill:#00FF00;" cx="293.658" cy="72.672" rx="5.391" ry="5.28"/>
	</g>
	<g id="Layer_9">
		<line style="fill:none;stroke:#000000;stroke-miterlimit:10;" x1="220.331" y1="72.672" x2="90.218" y2="199.245"/>
		<ellipse style="fill:none;stroke:#000000;stroke-miterlimit:10;" cx="90.219" cy="199.245" rx="14.399" ry="14.104"/>
		<ellipse id="dummy_5_" style="fill:#00FF00;" cx="220.33" cy="72.672" rx="5.391" ry="5.28"/>
		<g id="Layer_11">
			<line style="fill:none;stroke:#000000;stroke-miterlimit:10;" x1="90.218" y1="199.245" x2="25.792" y2="136.147"/>
			<polygon style="fill:none;stroke:#000000;stroke-miterlimit:10;" points="25.792,153.276 8.301,136.147 25.792,119.018 
				43.283,136.147 			"/>
			<ellipse id="dummy_8_" style="fill:#00FF00;" cx="90.219" cy="199.245" rx="5.391" ry="5.28"/>
		</g>
	</g>
	<g id="Layer_10">
		<line style="fill:none;stroke:#000000;stroke-miterlimit:10;" x1="220.331" y1="72.672" x2="38.16" y2="405.357"/>
		<rect x="0.5" y="368.474" style="fill:none;stroke:#000000;stroke-miterlimit:10;" width="75.319" height="73.768"/>
		<ellipse id="dummy_6_" style="fill:#00FF00;" cx="220.33" cy="72.672" rx="5.391" ry="5.28"/>
	</g>
	<g id="Layer_8">
		<line style="fill:none;stroke:#000000;stroke-miterlimit:10;" x1="220.331" y1="72.672" x2="104.618" y2="125.479"/>
		<ellipse style="fill:none;stroke:#000000;stroke-miterlimit:10;" cx="104.618" cy="125.479" rx="12.184" ry="11.934"/>
		<ellipse id="dummy_7_" style="fill:#00FF00;" cx="220.33" cy="72.672" rx="5.391" ry="5.28"/>
	</g>
</g>
<g id="Layer_1">
</g>
</svg>
