<?xml version="1.0" encoding="iso-8859-1"?>
<!-- Generator: Adobe Illustrator 16.0.0, SVG Export Plug-In . SVG Version: 6.00 Build 0)  -->
<!DOCTYPE svg PUBLIC "-//W3C//DTD SVG 1.1//EN" "http://www.w3.org/Graphics/SVG/1.1/DTD/svg11.dtd">
<svg version="1.1" xmlns="http://www.w3.org/2000/svg" xmlns:xlink="http://www.w3.org/1999/xlink" x="0px" y="0px"
	 width="292.109px" height="384.999px" viewBox="0 0 292.109 384.999" style="enable-background:new 0 0 292.109 384.999;"
	 xml:space="preserve">
<g id="rooteyeR">
	<polygon style="fill:none;stroke:#000000;stroke-miterlimit:10;" points="27.343,268.265 0.714,242.184 27.343,216.104 
		53.972,242.184 	"/>
	<ellipse id="dummy_11_" style="fill:#00FF00;" cx="27.343" cy="242.184" rx="5.392" ry="5.279"/>
	<g id="Layer_14">
		<line style="fill:none;stroke:#000000;stroke-miterlimit:10;" x1="27.343" y1="268.265" x2="27.343" y2="310.7"/>
		<ellipse style="fill:none;stroke:#000000;stroke-miterlimit:10;" cx="27.343" cy="310.7" rx="10.708" ry="10.487"/>
		<ellipse id="dummy_13_" style="fill:#00FF00;" cx="27.343" cy="268.265" rx="5.392" ry="5.28"/>
	</g>
	<g id="Layer_13">
		<ellipse id="dummy_12_" style="fill:#00FF00;" cx="53.972" cy="242.184" rx="5.391" ry="5.281"/>
		<g id="Layer_22">
			<line style="fill:none;stroke:#000000;stroke-miterlimit:10;" x1="53.972" y1="242.184" x2="95.687" y2="242.184"/>
			<ellipse style="fill:none;stroke:#000000;stroke-miterlimit:10;" cx="95.687" cy="242.184" rx="8.932" ry="8.747"/>
			<ellipse id="dummy_24_" style="fill:#00FF00;" cx="53.972" cy="242.184" rx="5.391" ry="5.281"/>
		</g>
		<g id="Layer_20">
			<line style="fill:none;stroke:#000000;stroke-miterlimit:10;" x1="53.972" y1="242.184" x2="177.777" y2="360.332"/>
			<circle style="fill:none;stroke:#000000;stroke-miterlimit:10;" cx="177.777" cy="360.332" r="24.167"/>
			<ellipse id="dummy_19_" style="fill:#00FF00;" cx="53.972" cy="242.184" rx="5.391" ry="5.281"/>
		</g>
		<g id="Layer_23">
			<line style="fill:none;stroke:#000000;stroke-miterlimit:10;" x1="53.972" y1="242.184" x2="187.277" y2="166.583"/>
			<rect x="172.61" y="151.917" style="fill:none;stroke:#000000;stroke-miterlimit:10;" width="29.334" height="29.334"/>
			<ellipse id="dummy_21_" style="fill:#00FF00;" cx="53.972" cy="242.184" rx="5.391" ry="5.281"/>
		</g>
		<g id="Layer_25">
			<line style="fill:none;stroke:#000000;stroke-miterlimit:10;" x1="53.972" y1="242.184" x2="65.049" y2="204.384"/>
			
				<rect x="57.768" y="197.102" transform="matrix(0.9115 -0.4113 0.4113 0.9115 -78.3041 44.8409)" style="fill:none;stroke:#000000;stroke-miterlimit:10;" width="14.562" height="14.563"/>
			<ellipse id="dummy_23_" style="fill:#00FF00;" cx="53.972" cy="242.184" rx="5.391" ry="5.281"/>
		</g>
		<g id="Layer_19">
			<line style="fill:none;stroke:#000000;stroke-miterlimit:10;" x1="53.972" y1="242.184" x2="83.761" y2="315.98"/>
			<circle style="fill:none;stroke:#000000;stroke-miterlimit:10;" cx="83.761" cy="315.98" r="11.926"/>
			<ellipse id="dummy_18_" style="fill:#00FF00;" cx="53.972" cy="242.184" rx="5.391" ry="5.281"/>
		</g>
		<g id="Layer_24">
			<line style="fill:none;stroke:#000000;stroke-miterlimit:10;" x1="53.972" y1="242.184" x2="219.277" y2="72.832"/>
			
				<rect x="168.277" y="21.832" transform="matrix(0.7071 0.7071 -0.7071 0.7071 115.7249 -133.7205)" style="fill:none;stroke:#000000;stroke-miterlimit:10;" width="102" height="102"/>
			<ellipse id="dummy_22_" style="fill:#00FF00;" cx="53.972" cy="242.184" rx="5.391" ry="5.281"/>
		</g>
		<g id="Layer_21">
			<line style="fill:none;stroke:#000000;stroke-miterlimit:10;" x1="53.972" y1="242.184" x2="237.777" y2="341.506"/>
			
				<rect x="218.951" y="322.68" transform="matrix(0.7071 -0.7071 0.7071 0.7071 -171.8377 268.1587)" style="fill:none;stroke:#000000;stroke-miterlimit:10;" width="37.652" height="37.652"/>
			<ellipse id="dummy_20_" style="fill:#00FF00;" cx="53.972" cy="242.184" rx="5.391" ry="5.281"/>
		</g>
	</g>
</g>
<g id="Layer_1">
</g>
</svg>
