<?xml version="1.0" encoding="iso-8859-1"?>
<!-- Generator: Adobe Illustrator 16.0.0, SVG Export Plug-In . SVG Version: 6.00 Build 0)  -->
<!DOCTYPE svg PUBLIC "-//W3C//DTD SVG 1.1//EN" "http://www.w3.org/Graphics/SVG/1.1/DTD/svg11.dtd">
<svg version="1.1" xmlns="http://www.w3.org/2000/svg" xmlns:xlink="http://www.w3.org/1999/xlink" x="0px" y="0px"
	 width="422.855px" height="370.729px" viewBox="0 0 422.855 370.729" style="enable-background:new 0 0 422.855 370.729;"
	 xml:space="preserve">
<g id="rootEyeL">
	<path id="box2" style="fill:#A75265;" d="M236.362,169.717c-9.818,47.417-42.637,87.515-87.665,106.304l6.021,46.637
		l140.065-18.084l-18.081-140.064L236.362,169.717z"/>
	
		<rect id="box1" x="282.873" y="296.253" transform="matrix(-0.9558 -0.2941 0.2941 -0.9558 485.6173 689.006)" style="fill:#FFEDBC;" width="23.477" height="23.477"/>
	<circle id="dummy1_2_" style="fill:#00FF00;" cx="294.894" cy="304.595" r="2.021"/>
	<g id="root">
		<path id="triangle2" style="fill:#57385C;" d="M154.686,323.211L53.558,370.729l109.754-11.01
			c-2.427-5.022-4.409-10.351-5.864-15.956C155.665,336.896,154.78,330.005,154.686,323.211z"/>
		<circle id="dummy1_1_" style="fill:#00FF00;" cx="154.518" cy="322.657" r="2.021"/>
	</g>
	<g id="Layer_4">
		<path id="halfCir4" style="fill:#57385C;" d="M83.843,285.516c-40.583,0-74.607,28.009-83.843,65.745l154.517-28.97
			C138.899,300.06,113.078,285.516,83.843,285.516z"/>
		<circle id="dummy1_3_" style="fill:#00FF00;" cx="154.518" cy="322.657" r="2.021"/>
	</g>
	<g id="Layer_5">
		<polygon id="triangle" style="fill:#57385C;" points="277.915,163.928 422.855,113.182 414.218,59.801 		"/>
		<circle id="dummy1_6_" style="fill:#00FF00;" cx="276.321" cy="164.487" r="2.021"/>
	</g>
	<g id="Layer_6">
		<path id="halfCir2" style="fill:#57385C;" d="M236.442,170.403c5.717-11.375,9.677-23.875,11.463-37.202
			c8.627-64.356-36.552-123.52-100.909-132.146C82.641-7.571,23.477,37.607,14.851,101.963
			C6.225,166.318,51.403,225.483,115.759,234.11c10.664,1.428,21.184,1.373,31.357,0.006l9.965-74.35L236.442,170.403z"/>
		<circle id="dummy1_5_" style="fill:#00FF00;" cx="236.321" cy="170.508" r="2.021"/>
	</g>
	<g id="Layer_7">
		<path id="halfCir1" style="fill:#EC7263;" d="M236.321,170.509H135.768v94.203C182.83,251.843,220.513,216.279,236.321,170.509z"
			/>
		<circle id="dummy1_4_" style="fill:#00FF00;" cx="236.321" cy="170.508" r="2.021"/>
	</g>
</g>
<g id="Layer_1">
</g>
</svg>
