<?xml version="1.0" encoding="iso-8859-1"?>
<!-- Generator: Adobe Illustrator 16.0.0, SVG Export Plug-In . SVG Version: 6.00 Build 0)  -->
<!DOCTYPE svg PUBLIC "-//W3C//DTD SVG 1.1//EN" "http://www.w3.org/Graphics/SVG/1.1/DTD/svg11.dtd">
<svg version="1.1" xmlns="http://www.w3.org/2000/svg" xmlns:xlink="http://www.w3.org/1999/xlink" x="0px" y="0px"
	 width="403.041px" height="295.284px" viewBox="0 0 403.041 295.284" style="enable-background:new 0 0 403.041 295.284;"
	 xml:space="preserve">
<g id="rootEyeR">
	
		<rect id="box_3_" x="97.754" y="109.363" transform="matrix(-0.7071 -0.7071 0.7071 -0.7071 113.0224 312.4922)" style="fill:#FFEDBC;" width="46.952" height="46.951"/>
	<circle id="dummy_6_" style="fill:#00FF00;" cx="121.23" cy="132.839" r="2.383"/>
	<g id="Layer_11">
		<path id="box_5_" style="fill:#A75265;" d="M309.723,66.322l-154.517,28.97c-1.615,6.6-2.49,13.49-2.49,20.589
			c0,5.791,0.58,11.444,1.668,16.917L314.6,157.665c6.863-12.384,10.783-26.623,10.783-41.784
			C325.383,97.433,319.578,80.352,309.723,66.322z"/>
		<circle id="dummy_8_" style="fill:#00FF00;" cx="154.431" cy="132.839" r="2.383"/>
		<g id="Layer_10">
			<path id="halfCir" style="fill:#57385C;" d="M319.41,266.662c21.732,24.189,54.033,33.226,83.631,26.425L314.459,157.29
				C290.275,189.593,291.412,235.503,319.41,266.662z"/>
			<circle id="dummy_9_" style="fill:#00FF00;" cx="314.723" cy="157.666" r="2.383"/>
		</g>
	</g>
	<g id="Layer_9">
		<polygon id="box_4_" style="fill:#EC7263;" points="0,52.766 121.288,99.35 149.854,24.973 20.266,0.001 		"/>
		<circle id="dummy_7_" style="fill:#00FF00;" cx="121.23" cy="99.64" r="2.383"/>
	</g>
</g>
<g id="Layer_1">
</g>
</svg>
