<?xml version="1.0" encoding="iso-8859-1"?>
<!-- Generator: Adobe Illustrator 16.0.0, SVG Export Plug-In . SVG Version: 6.00 Build 0)  -->
<!DOCTYPE svg PUBLIC "-//W3C//DTD SVG 1.1//EN" "http://www.w3.org/Graphics/SVG/1.1/DTD/svg11.dtd">
<svg version="1.1" xmlns="http://www.w3.org/2000/svg" xmlns:xlink="http://www.w3.org/1999/xlink" x="0px" y="0px"
	 width="476.492px" height="526.042px" viewBox="0 0 476.492 526.042" style="enable-background:new 0 0 476.492 526.042;"
	 xml:space="preserve">
<g id="head">
	<rect y="0" style="fill:#FCEE21;" width="2.866" height="526.042"/>
	<rect x="11.509" y="0" style="fill:#FCEE21;" width="2.867" height="526.042"/>
	<rect x="23.018" y="0" style="fill:#FCEE21;" width="2.867" height="526.042"/>
	<rect x="34.526" y="0" style="fill:#FCEE21;" width="2.867" height="526.042"/>
	<rect x="46.036" y="0" style="fill:#FCEE21;" width="2.866" height="526.042"/>
	<rect x="57.544" y="0" style="fill:#FCEE21;" width="2.866" height="526.042"/>
	<rect x="69.053" y="0" style="fill:#FCEE21;" width="2.866" height="526.042"/>
	<rect x="80.562" y="0" style="fill:#FCEE21;" width="2.866" height="526.042"/>
	<rect x="92.071" y="0" style="fill:#FCEE21;" width="2.866" height="526.042"/>
	<rect x="103.58" y="0" style="fill:#FCEE21;" width="2.866" height="526.042"/>
	<rect x="115.089" y="0" style="fill:#FCEE21;" width="2.867" height="526.042"/>
	<rect x="126.598" y="0" style="fill:#FCEE21;" width="2.867" height="526.042"/>
	<rect x="347.027" y="0" style="fill:#FCEE21;" width="2.867" height="526.042"/>
	<rect x="358.535" y="0" style="fill:#FCEE21;" width="2.867" height="526.042"/>
	<rect x="370.045" y="0" style="fill:#FCEE21;" width="2.867" height="526.042"/>
	<rect x="381.555" y="0" style="fill:#FCEE21;" width="2.865" height="526.042"/>
	<rect x="393.062" y="0" style="fill:#FCEE21;" width="2.867" height="526.042"/>
	<rect x="404.572" y="0" style="fill:#FCEE21;" width="2.865" height="526.042"/>
	<rect x="416.08" y="0" style="fill:#FCEE21;" width="2.867" height="526.042"/>
	<rect x="427.59" y="0" style="fill:#FCEE21;" width="2.867" height="526.042"/>
	<rect x="439.098" y="0" style="fill:#FCEE21;" width="2.867" height="526.042"/>
	<rect x="450.607" y="0" style="fill:#FCEE21;" width="2.867" height="526.042"/>
	<rect x="462.115" y="0" style="fill:#FCEE21;" width="2.867" height="526.042"/>
	<rect x="473.625" y="0" style="fill:#FCEE21;" width="2.867" height="526.042"/>
</g>
<g id="Layer_1">
</g>
</svg>
