<?xml version="1.0" encoding="iso-8859-1"?>
<!-- Generator: Adobe Illustrator 16.0.0, SVG Export Plug-In . SVG Version: 6.00 Build 0)  -->
<!DOCTYPE svg PUBLIC "-//W3C//DTD SVG 1.1//EN" "http://www.w3.org/Graphics/SVG/1.1/DTD/svg11.dtd">
<svg version="1.1" xmlns="http://www.w3.org/2000/svg" xmlns:xlink="http://www.w3.org/1999/xlink" x="0px" y="0px"
	 width="318.197px" height="351.287px" viewBox="0 0 318.197 351.287" style="enable-background:new 0 0 318.197 351.287;"
	 xml:space="preserve">
<g id="head">
	<rect y="0" style="fill:#FCEE21;" width="1.914" height="351.287"/>
	<rect x="7.686" y="0" style="fill:#FCEE21;" width="1.914" height="351.287"/>
	<rect x="15.371" y="0" style="fill:#FCEE21;" width="1.914" height="351.287"/>
	<rect x="23.057" y="0" style="fill:#FCEE21;" width="1.914" height="351.287"/>
	<rect x="30.742" y="0" style="fill:#FCEE21;" width="1.914" height="351.287"/>
	<rect x="38.428" y="0" style="fill:#FCEE21;" width="1.914" height="351.287"/>
	<rect x="46.113" y="0" style="fill:#FCEE21;" width="1.914" height="351.287"/>
	<rect x="53.799" y="0" style="fill:#FCEE21;" width="1.914" height="351.287"/>
	<rect x="61.484" y="0" style="fill:#FCEE21;" width="1.914" height="351.287"/>
	<rect x="69.17" y="0" style="fill:#FCEE21;" width="1.914" height="351.287"/>
	<rect x="76.855" y="0" style="fill:#FCEE21;" width="1.914" height="351.287"/>
	<rect x="84.541" y="0" style="fill:#FCEE21;" width="1.914" height="351.287"/>
	<rect x="231.742" y="0" style="fill:#FCEE21;" width="1.914" height="351.287"/>
	<rect x="239.428" y="0" style="fill:#FCEE21;" width="1.914" height="351.287"/>
	<rect x="247.113" y="0" style="fill:#FCEE21;" width="1.914" height="351.287"/>
	<rect x="254.799" y="0" style="fill:#FCEE21;" width="1.914" height="351.287"/>
	<rect x="262.484" y="0" style="fill:#FCEE21;" width="1.914" height="351.287"/>
	<rect x="270.17" y="0" style="fill:#FCEE21;" width="1.914" height="351.287"/>
	<rect x="277.855" y="0" style="fill:#FCEE21;" width="1.914" height="351.287"/>
	<rect x="285.541" y="0" style="fill:#FCEE21;" width="1.914" height="351.287"/>
	<rect x="293.227" y="0" style="fill:#FCEE21;" width="1.914" height="351.287"/>
	<rect x="300.912" y="0" style="fill:#FCEE21;" width="1.914" height="351.287"/>
	<rect x="308.598" y="0" style="fill:#FCEE21;" width="1.914" height="351.287"/>
	<rect x="316.283" y="0" style="fill:#FCEE21;" width="1.914" height="351.287"/>
</g>
<g id="Layer_1">
</g>
</svg>
