<?xml version="1.0" encoding="iso-8859-1"?>
<!-- Generator: Adobe Illustrator 16.0.0, SVG Export Plug-In . SVG Version: 6.00 Build 0)  -->
<!DOCTYPE svg PUBLIC "-//W3C//DTD SVG 1.1//EN" "http://www.w3.org/Graphics/SVG/1.1/DTD/svg11.dtd">
<svg version="1.1" xmlns="http://www.w3.org/2000/svg" xmlns:xlink="http://www.w3.org/1999/xlink" x="0px" y="0px"
	 width="130.434px" height="74.656px" viewBox="0 0 130.434 74.656" style="enable-background:new 0 0 130.434 74.656;"
	 xml:space="preserve">
<g id="halfShape">
	<path style="fill:#FFFFFF;" d="M93.105,0H37.329C16.713,0,0,16.713,0,37.329c0,20.615,16.713,37.328,37.329,37.328h55.777
		c20.615,0,37.328-16.713,37.328-37.328C130.434,16.713,113.721,0,93.105,0z M93.105,55.777H37.329
		c-10.189,0-18.45-8.26-18.45-18.449c0-10.189,8.26-18.45,18.45-18.45h55.777c10.189,0,18.449,8.26,18.449,18.45
		C111.555,47.518,103.295,55.777,93.105,55.777z"/>
</g>
<g id="Layer_1">
</g>
</svg>
