<?xml version="1.0" encoding="iso-8859-1"?>
<!-- Generator: Adobe Illustrator 16.0.0, SVG Export Plug-In . SVG Version: 6.00 Build 0)  -->
<!DOCTYPE svg PUBLIC "-//W3C//DTD SVG 1.1//EN" "http://www.w3.org/Graphics/SVG/1.1/DTD/svg11.dtd">
<svg version="1.1" xmlns="http://www.w3.org/2000/svg" xmlns:xlink="http://www.w3.org/1999/xlink" x="0px" y="0px"
	 width="631.903px" height="707.384px" viewBox="0 0 631.903 707.384" style="enable-background:new 0 0 631.903 707.384;"
	 xml:space="preserve">
<g id="eyeR">
	<circle style="fill:#F9E270;" cx="91.47" cy="326.331" r="46"/>
	<circle style="fill:none;stroke:#F4EED8;stroke-width:6;stroke-miterlimit:10;" cx="209.042" cy="327.787" r="173.52"/>
	<circle style="fill:none;stroke:#F4EED8;stroke-width:13;stroke-miterlimit:10;" cx="208.041" cy="327.787" r="201.541"/>
	
		<line style="fill:none;stroke:#F4EED8;stroke-width:6;stroke-miterlimit:10;" x1="301.674" y1="474.528" x2="483.938" y2="680.199"/>
	
		<line style="fill:none;stroke:#F4EED8;stroke-width:6;stroke-miterlimit:10;" x1="362.768" y1="408.32" x2="417.682" y2="474.528"/>
	
		<line style="fill:none;stroke:#F4EED8;stroke-width:6;stroke-miterlimit:10;" x1="382.562" y1="327.787" x2="631.771" y2="316.797"/>
	
		<line style="fill:none;stroke:#F4EED8;stroke-width:6;stroke-miterlimit:10;" x1="362.768" y1="247.254" x2="449.771" y2="179.195"/>
	<line style="fill:none;stroke:#F4EED8;stroke-width:6;stroke-miterlimit:10;" x1="326.815" y1="200.37" x2="449.771" y2="23.195"/>
	
		<line style="fill:none;stroke:#F4EED8;stroke-width:6;stroke-miterlimit:10;" x1="284.727" y1="171.604" x2="326.815" y2="111.783"/>
	<line style="fill:none;stroke:#F4EED8;stroke-width:6;stroke-miterlimit:10;" x1="237.859" y1="156.662" x2="170.309" y2="1.195"/>
	
		<line style="fill:none;stroke:#F4EED8;stroke-width:6;stroke-miterlimit:10;" x1="119.389" y1="179.195" x2="131.709" y2="78.929"/>
	<line style="fill:none;stroke:#F4EED8;stroke-width:6;stroke-miterlimit:10;" x1="78.727" y1="213.225" x2="18.438" y2="154.266"/>
	
		<line style="fill:none;stroke:#F4EED8;stroke-width:6;stroke-miterlimit:10;" x1="250.506" y1="496.309" x2="263.771" y2="707.195"/>
	
		<line style="fill:none;stroke:#F4EED8;stroke-width:6;stroke-miterlimit:10;" x1="170.309" y1="502.65" x2="186.771" y2="577.363"/>
	
		<line style="fill:none;stroke:#F4EED8;stroke-width:6;stroke-miterlimit:10;" x1="125.549" y1="486.361" x2="43.039" y2="548.734"/>
	<line style="fill:none;stroke:#F4EED8;stroke-width:6;stroke-miterlimit:10;" x1="64.438" y1="423.714" x2="18.816" y2="486.361"/>
</g>
<g id="Layer_1">
</g>
</svg>
