<?xml version="1.0" encoding="iso-8859-1"?>
<!-- Generator: Adobe Illustrator 16.0.0, SVG Export Plug-In . SVG Version: 6.00 Build 0)  -->
<!DOCTYPE svg PUBLIC "-//W3C//DTD SVG 1.1//EN" "http://www.w3.org/Graphics/SVG/1.1/DTD/svg11.dtd">
<svg version="1.1" xmlns="http://www.w3.org/2000/svg" xmlns:xlink="http://www.w3.org/1999/xlink" x="0px" y="0px"
	 width="766.189px" height="726.4px" viewBox="0 0 766.189 726.4" style="enable-background:new 0 0 766.189 726.4;"
	 xml:space="preserve">
<g id="head">
	<polygon style="fill:#F9E270;" points="216.827,132.354 198.284,167.808 383.302,289.02 401.844,253.565 	"/>
	<rect x="208.828" y="254.796" style="fill:#F9E270;" width="193.216" height="201.888"/>
	<rect x="122.438" y="310.925" style="fill:#F9E270;" width="91.948" height="35.56"/>
	<rect x="140.439" y="366.063" style="fill:#F9E270;" width="91.948" height="35.559"/>
	<rect x="150.44" y="421.202" style="fill:#F9E270;" width="91.948" height="35.559"/>
	<rect y="254.794" style="fill:#F9E270;" width="214.384" height="34.225"/>
	
		<rect x="551.838" y="152.794" transform="matrix(-0.863 0.5052 -0.5052 -0.863 1184.7688 177.2331)" style="fill:#F9E270;" width="33.031" height="192.929"/>
	<rect x="589.086" y="187.928" style="fill:#F9E270;" width="162.332" height="538.473"/>
	<rect x="328.997" y="525.369" style="fill:#596B56;" width="267.4" height="92.732"/>
	
		<rect x="733.128" y="63.716" transform="matrix(-0.9933 -0.1152 0.1152 -0.9933 1472.3206 340.7046)" style="fill:#F9E270;" width="25.761" height="128.155"/>
	
		<rect x="683.695" y="27.438" transform="matrix(-0.9986 -0.052 0.052 -0.9986 1386.479 256.4448)" style="fill:#F9E270;" width="25.761" height="165.49"/>
	<rect x="635.455" style="fill:#F9E270;" width="25.762" height="192.928"/>
	
		<rect x="583.839" y="40.296" transform="matrix(-0.9964 0.0852 -0.0852 -0.9964 1201.1711 181.1295)" style="fill:#F9E270;" width="25.762" height="151.81"/>
	<rect x="251.747" y="288.062" style="fill:#596B56;" width="421.9" height="140.404"/>
</g>
<g id="Layer_1">
</g>
</svg>
