<?xml version="1.0" encoding="iso-8859-1"?>
<!-- Generator: Adobe Illustrator 16.0.0, SVG Export Plug-In . SVG Version: 6.00 Build 0)  -->
<!DOCTYPE svg PUBLIC "-//W3C//DTD SVG 1.1//EN" "http://www.w3.org/Graphics/SVG/1.1/DTD/svg11.dtd">
<svg version="1.1" xmlns="http://www.w3.org/2000/svg" xmlns:xlink="http://www.w3.org/1999/xlink" x="0px" y="0px"
	 width="266.787px" height="412.923px" viewBox="0 0 266.787 412.923" style="enable-background:new 0 0 266.787 412.923;"
	 xml:space="preserve">
<g id="browL">
	<path style="fill:#D2A825;" d="M112.488,187.948C50.363,187.948,0,238.311,0,300.436s50.363,112.487,112.488,112.487
		c62.125,0,112.489-50.362,112.489-112.487S174.613,187.948,112.488,187.948z M112.488,381.207
		c-44.609,0-80.772-36.162-80.772-80.771s36.164-80.771,80.772-80.771c44.61,0,80.772,36.162,80.772,80.771
		S157.098,381.207,112.488,381.207z"/>
	<path style="fill:#D2A825;" d="M189.361,48.166c-42.759,0-77.423,34.664-77.423,77.424c0,42.76,34.664,77.424,77.423,77.424
		c42.76,0,77.426-34.664,77.426-77.424C266.787,82.829,232.121,48.166,189.361,48.166z M189.361,181.183
		c-30.703,0-55.594-24.89-55.594-55.594s24.891-55.594,55.594-55.594c30.705,0,55.596,24.89,55.596,55.594
		S220.066,181.183,189.361,181.183z"/>
	<path style="fill:#D2A825;" d="M94.424,0C67.823,0,46.259,21.564,46.259,48.166c0,26.601,21.564,48.166,48.166,48.166
		c26.601,0,48.166-21.564,48.166-48.166C142.59,21.564,121.025,0,94.424,0z M94.424,82.751c-19.102,0-34.586-15.484-34.586-34.585
		s15.484-34.585,34.586-34.585c19.101,0,34.585,15.484,34.585,34.585S113.525,82.751,94.424,82.751z"/>
</g>
<g id="Layer_1">
</g>
</svg>
