<?xml version="1.0" encoding="iso-8859-1"?>
<!-- Generator: Adobe Illustrator 16.0.0, SVG Export Plug-In . SVG Version: 6.00 Build 0)  -->
<!DOCTYPE svg PUBLIC "-//W3C//DTD SVG 1.1//EN" "http://www.w3.org/Graphics/SVG/1.1/DTD/svg11.dtd">
<svg version="1.1" xmlns="http://www.w3.org/2000/svg" xmlns:xlink="http://www.w3.org/1999/xlink" x="0px" y="0px"
	 width="386.268px" height="431.117px" viewBox="0 0 386.268 431.117" style="enable-background:new 0 0 386.268 431.117;"
	 xml:space="preserve">
<g id="browR">
	<rect y="257.961" style="fill:#00FF00;" width="10.205" height="173.156"/>
	<rect x="23.504" y="257.961" style="fill:#0000FF;" width="10.205" height="173.156"/>
	<rect x="47.008" y="257.961" style="fill:#00FF00;" width="10.205" height="173.156"/>
	<rect x="70.512" y="257.961" style="fill:#0000FF;" width="10.205" height="173.156"/>
	<rect x="94.016" y="257.961" style="fill:#00FF00;" width="10.205" height="173.156"/>
	<rect x="117.52" y="257.961" style="fill:#0000FF;" width="10.205" height="173.156"/>
	<rect x="141.023" y="257.961" style="fill:#00FF00;" width="10.205" height="173.156"/>
	<rect x="164.527" y="257.961" style="fill:#0000FF;" width="10.205" height="173.156"/>
	<rect x="188.031" y="257.961" style="fill:#00FF00;" width="10.205" height="173.156"/>
	<rect x="211.535" y="257.961" style="fill:#0000FF;" width="10.205" height="173.156"/>
	<rect x="235.039" y="257.961" style="fill:#00FF00;" width="10.205" height="173.156"/>
	<rect x="258.543" y="257.961" style="fill:#0000FF;" width="10.205" height="173.156"/>
	<rect x="282.047" y="257.961" style="fill:#00FF00;" width="10.205" height="173.156"/>
	<rect x="305.551" y="257.961" style="fill:#0000FF;" width="10.205" height="173.156"/>
	<rect x="329.055" y="257.961" style="fill:#00FF00;" width="10.205" height="173.156"/>
	<rect x="352.559" y="257.961" style="fill:#0000FF;" width="10.205" height="173.156"/>
	<rect x="376.062" y="257.961" style="fill:#00FF00;" width="10.205" height="173.156"/>
	<rect style="fill:#00FF00;" width="10.205" height="43.117"/>
	<rect x="23.504" style="fill:#FF0000;" width="10.205" height="43.117"/>
	<rect x="47.008" style="fill:#00FF00;" width="10.205" height="43.117"/>
	<rect x="70.512" style="fill:#FF0000;" width="10.205" height="43.117"/>
	<rect x="94.016" style="fill:#00FF00;" width="10.205" height="43.117"/>
	<rect x="117.52" style="fill:#FF0000;" width="10.205" height="43.117"/>
	<rect x="141.023" style="fill:#00FF00;" width="10.205" height="43.117"/>
	<rect x="164.527" style="fill:#FF0000;" width="10.205" height="43.117"/>
	<rect x="188.031" style="fill:#00FF00;" width="10.205" height="43.117"/>
	<rect x="211.535" style="fill:#FF0000;" width="10.205" height="43.117"/>
	<rect x="235.039" style="fill:#00FF00;" width="10.205" height="43.117"/>
	<rect x="258.543" style="fill:#FF0000;" width="10.205" height="43.117"/>
	<rect x="282.047" style="fill:#00FF00;" width="10.205" height="43.117"/>
	<rect x="305.551" style="fill:#FF0000;" width="10.205" height="43.117"/>
	<rect x="329.055" style="fill:#00FF00;" width="10.205" height="43.117"/>
	<rect x="352.559" style="fill:#FF0000;" width="10.205" height="43.117"/>
	<rect x="376.062" style="fill:#00FF00;" width="10.205" height="43.117"/>
	<rect y="60.774" style="fill:#00FF00;" width="10.205" height="181.559"/>
	<rect x="23.504" y="60.774" style="fill:#FF0000;" width="10.205" height="181.559"/>
	<rect x="47.008" y="60.774" style="fill:#00FF00;" width="10.205" height="181.559"/>
	<rect x="70.512" y="60.774" style="fill:#FF0000;" width="10.205" height="181.559"/>
	<rect x="94.016" y="60.774" style="fill:#00FF00;" width="10.205" height="181.559"/>
	<rect x="117.52" y="60.774" style="fill:#FF0000;" width="10.205" height="181.559"/>
	<rect x="141.023" y="60.774" style="fill:#00FF00;" width="10.205" height="181.559"/>
	<rect x="164.527" y="60.774" style="fill:#FF0000;" width="10.205" height="181.559"/>
	<rect x="188.031" y="60.774" style="fill:#00FF00;" width="10.205" height="181.559"/>
	<rect x="211.535" y="60.774" style="fill:#FF0000;" width="10.205" height="181.559"/>
	<rect x="235.039" y="60.774" style="fill:#00FF00;" width="10.205" height="181.559"/>
	<rect x="258.543" y="60.774" style="fill:#FF0000;" width="10.205" height="181.559"/>
	<rect x="282.047" y="60.774" style="fill:#00FF00;" width="10.205" height="181.559"/>
	<rect x="305.551" y="60.774" style="fill:#FF0000;" width="10.205" height="181.559"/>
	<rect x="329.055" y="60.774" style="fill:#00FF00;" width="10.205" height="181.559"/>
	<rect x="352.559" y="60.774" style="fill:#FF0000;" width="10.205" height="181.559"/>
	<rect x="376.062" y="60.774" style="fill:#00FF00;" width="10.205" height="181.559"/>
</g>
<g id="Layer_1">
</g>
</svg>
