<?xml version="1.0" encoding="iso-8859-1"?>
<!-- Generator: Adobe Illustrator 16.0.0, SVG Export Plug-In . SVG Version: 6.00 Build 0)  -->
<!DOCTYPE svg PUBLIC "-//W3C//DTD SVG 1.1//EN" "http://www.w3.org/Graphics/SVG/1.1/DTD/svg11.dtd">
<svg version="1.1" xmlns="http://www.w3.org/2000/svg" xmlns:xlink="http://www.w3.org/1999/xlink" x="0px" y="0px"
	 width="165.354px" height="128.047px" viewBox="0 0 165.354 128.047" style="enable-background:new 0 0 165.354 128.047;"
	 xml:space="preserve">
<g id="browSet">
	<path style="fill:none;stroke:#FFFFFF;stroke-width:5;stroke-miterlimit:10;" d="M39.891,71.347
		c-4.882-4.881-4.881-12.797,0-17.678c4.882-4.882,12.796-4.881,17.678,0c2.334,2.334,6.12,2.335,8.454,0.001
		c2.337-2.337,2.335-6.122,0.002-8.457c0,0,17.771,17.773,17.772,17.772c2.334,2.335,6.12,2.334,8.454,0
		c2.336-2.335,2.334-6.12,0-8.455c-2.334-2.334-2.336-6.118,0-8.455c2.334-2.334,6.12-2.333,8.455,0.001"/>
	<path style="fill:none;stroke:#FFFFFF;stroke-width:5;stroke-miterlimit:10;" d="M14.457,119.568c0,3.302-2.677,5.979-5.979,5.979
		S2.5,122.87,2.5,119.568s2.677-5.979,5.979-5.979"/>
	<line style="fill:none;stroke:#FFFFFF;stroke-width:5;stroke-miterlimit:10;" x1="69.96" y1="113.59" x2="8.411" y2="113.59"/>
	<line style="fill:none;stroke:#FFFFFF;stroke-width:5;stroke-miterlimit:10;" x1="141.803" y1="94.693" x2="44.939" y2="94.693"/>
	<path style="fill:none;stroke:#FFFFFF;stroke-width:5;stroke-miterlimit:10;" d="M165.354,27.5H68.49h1.454
		c-6.902,0-12.5-5.598-12.5-12.5c0-6.904,5.598-12.5,12.5-12.5"/>
</g>
<g id="Layer_1">
</g>
</svg>
