<?xml version="1.0" encoding="iso-8859-1"?>
<!-- Generator: Adobe Illustrator 16.0.0, SVG Export Plug-In . SVG Version: 6.00 Build 0)  -->
<!DOCTYPE svg PUBLIC "-//W3C//DTD SVG 1.1//EN" "http://www.w3.org/Graphics/SVG/1.1/DTD/svg11.dtd">
<svg version="1.1" xmlns="http://www.w3.org/2000/svg" xmlns:xlink="http://www.w3.org/1999/xlink" x="0px" y="0px"
	 width="216.014px" height="159.568px" viewBox="0 0 216.014 159.568" style="enable-background:new 0 0 216.014 159.568;"
	 xml:space="preserve">
<g id="eyeSet">
	<path style="fill:none;stroke:#FFFFFF;stroke-width:5;stroke-miterlimit:10;" d="M73.39,39.357c0,3.302-2.677,5.979-5.979,5.979
		s-5.979-2.677-5.979-5.979s2.677-5.979,5.979-5.979h27.256c3.302,0,5.979-2.678,5.979-5.979c0-3.303-2.677-5.979-5.979-5.979
		c-3.302,0-5.979,2.676-5.979,5.979"/>
	<path style="fill:none;stroke:#FFFFFF;stroke-width:5;stroke-miterlimit:10;" d="M4.688,15c0-6.904,5.598-12.5,12.5-12.5
		c6.904,0,12.5,5.596,12.5,12.5v-0.341v25.136c0-3.301,2.677-5.978,5.979-5.979c3.302,0,5.979,2.678,5.979,5.979
		c0,3.303-2.677,5.979-5.979,5.979v0.149H8.411h0.067c-3.302,0-5.979,2.677-5.979,5.979s2.677,5.979,5.979,5.979
		s5.979-2.677,5.979-5.979v25.135v-1.365c0,6.904,5.597,12.5,12.5,12.5s12.5-5.596,12.5-12.5"/>
	<path style="fill:none;stroke:#FFFFFF;stroke-width:5;stroke-miterlimit:10;" d="M159.33,76.215c0,3.302-2.677,5.979-5.979,5.979
		s-5.979-2.677-5.979-5.979s2.677-5.979,5.979-5.979"/>
	<path style="fill:none;stroke:#FFFFFF;stroke-width:5;stroke-miterlimit:10;" d="M117.229,82.193H89.973h0.067
		c-3.302,0-5.979,2.677-5.979,5.979s2.677,5.979,5.979,5.979s5.979-2.677,5.979-5.979"/>
	<path style="fill:none;stroke:#FFFFFF;stroke-width:5;stroke-miterlimit:10;" d="M100.645,132.068H127.9h-0.067
		c3.302,0,5.979,2.677,5.979,5.979s-2.677,5.979-5.979,5.979s-5.979-2.677-5.979-5.979"/>
	<path style="fill:none;stroke:#FFFFFF;stroke-width:5;stroke-miterlimit:10;" d="M59.573,144.568c0,6.902-5.598,12.5-12.5,12.5
		c-6.904-0.001-12.501-5.598-12.5-12.5c-6.902,0-12.5-5.598-12.5-12.5c0.001-6.904,5.598-12.501,12.5-12.5
		c0-6.902,5.598-12.5,12.5-12.5c6.904,0.001,12.501,5.598,12.5,12.5"/>
	<path style="fill:none;stroke:#FFFFFF;stroke-width:5;stroke-miterlimit:10;" d="M188.515,27.672c0-6.903,5.597-12.5,12.5-12.5
		s12.5,5.597,12.5,12.5"/>
	<path style="fill:none;stroke:#FFFFFF;stroke-width:5;stroke-miterlimit:10;" d="M165.852,33.379c0-6.903-5.597-12.5-12.5-12.5
		s-12.5,5.597-12.5,12.5s5.596,12.5,12.5,12.5C160.254,45.879,165.852,40.282,165.852,33.379"/>
</g>
<g id="Layer_1">
</g>
</svg>
