<?xml version="1.0" encoding="iso-8859-1"?>
<!-- Generator: Adobe Illustrator 16.0.0, SVG Export Plug-In . SVG Version: 6.00 Build 0)  -->
<!DOCTYPE svg PUBLIC "-//W3C//DTD SVG 1.1//EN" "http://www.w3.org/Graphics/SVG/1.1/DTD/svg11.dtd">
<svg version="1.1" xmlns="http://www.w3.org/2000/svg" xmlns:xlink="http://www.w3.org/1999/xlink" x="0px" y="0px"
	 width="451.139px" height="376.191px" viewBox="0 0 451.139 376.191" style="enable-background:new 0 0 451.139 376.191;"
	 xml:space="preserve">
<g id="Layer_1_1_">
	<path style="fill:none;stroke:#FFFFFF;stroke-width:5;stroke-miterlimit:10;" d="M91.927,162.729c0-6.902-5.597-12.5-12.5-12.5
		s-12.5,5.598-12.5,12.5c0-6.902-5.597-12.5-12.5-12.5s-12.5,5.598-12.5,12.5"/>
	<path style="fill:none;stroke:#FFFFFF;stroke-width:5;stroke-miterlimit:10;" d="M174.593,40.268
		c-4.882-4.881-4.881-12.797,0-17.678c4.882-4.882,12.796-4.881,17.678,0c2.334,2.334,6.12,2.335,8.454,0.001
		c2.337-2.337,2.335-6.122,0.002-8.457c0,0,17.771,17.773,17.772,17.772c2.334,2.335,6.12,2.334,8.454,0
		c2.336-2.335,2.334-6.12,0-8.455c-2.334-2.334-2.336-6.118,0-8.455c2.334-2.334,6.12-2.333,8.455,0.001"/>
	<path style="fill:none;stroke:#FFFFFF;stroke-width:5;stroke-miterlimit:10;" d="M60.948,86.118c0,0,0,25.135,0,25.136
		c0,3.302,2.678,5.979,5.979,5.979c3.303,0,5.979-2.677,5.979-5.979"/>
	<path style="fill:none;stroke:#FFFFFF;stroke-width:5;stroke-miterlimit:10;" d="M228.482,158.693c0,3.302-2.677,5.979-5.979,5.979
		s-5.979-2.677-5.979-5.979s2.677-5.979,5.979-5.979"/>
	
		<line style="fill:none;stroke:#FFFFFF;stroke-width:5;stroke-miterlimit:10;" x1="283.985" y1="152.715" x2="222.437" y2="152.715"/>
	<path style="fill:none;stroke:#FFFFFF;stroke-width:5;stroke-miterlimit:10;" d="M90.506,75.934c0,3.302-2.677,5.979-5.979,5.979
		s-5.979-2.677-5.979-5.979s2.677-5.979,5.979-5.979h27.256c3.302,0,5.979-2.678,5.979-5.979c0-3.303-2.677-5.979-5.979-5.979
		c-3.302,0-5.979,2.676-5.979,5.979"/>
	<path style="fill:none;stroke:#FFFFFF;stroke-width:5;stroke-miterlimit:10;" d="M227.535,135.856l17.773-17.773
		c-2.334,2.334-6.12,2.334-8.455,0.001c-2.335-2.335-2.334-6.12,0-8.455c2.336-2.335,6.121-2.337,8.455,0
		c0.001-0.001,10.082,10.079,10.082,10.079c2.334,2.335,6.12,2.334,8.454,0c2.335-2.335,2.335-6.121,0-8.455
		c-2.334-2.334-6.119-2.335-8.454,0.002l17.773-17.773"/>
	<path style="fill:none;stroke:#FFFFFF;stroke-width:5;stroke-miterlimit:10;" d="M4.688,44.745c0-6.904,5.598-12.5,12.5-12.5
		c6.904,0,12.5,5.596,12.5,12.5v-0.341V69.54c0-3.301,2.677-5.978,5.979-5.979c3.302,0,5.979,2.678,5.979,5.979
		c0,3.303-2.677,5.979-5.979,5.979v0.149H8.411h0.067c-3.302,0-5.979,2.677-5.979,5.979s2.677,5.979,5.979,5.979
		s5.979-2.677,5.979-5.979v25.135v-1.365c0,6.904,5.597,12.5,12.5,12.5s12.5-5.596,12.5-12.5"/>
	<path style="fill:none;stroke:#FFFFFF;stroke-width:5;stroke-miterlimit:10;" d="M59.54,342.573c0,3.302,2.677,5.979,5.979,5.979
		s5.979-2.677,5.979-5.979s-2.677-5.979-5.979-5.979"/>
	<line style="fill:none;stroke:#FFFFFF;stroke-width:5;stroke-miterlimit:10;" x1="38.263" y1="336.595" x2="65.519" y2="336.595"/>
	<path style="fill:none;stroke:#FFFFFF;stroke-width:5;stroke-miterlimit:10;" d="M221.88,257.868c0,0-27.256,0-27.256,0.001
		c-3.302,0-5.979,2.677-5.979,5.979s2.677,5.979,5.979,5.979s5.979-2.677,5.979-5.979"/>
	<path style="fill:none;stroke:#FFFFFF;stroke-width:5;stroke-miterlimit:10;" d="M445.104,61.746c0,3.302-2.677,5.979-5.979,5.979
		s-5.979-2.677-5.979-5.979s2.677-5.979,5.979-5.979"/>
	<path style="fill:none;stroke:#FFFFFF;stroke-width:5;stroke-miterlimit:10;" d="M376.611,55.768h-27.256h0.067
		c-3.302,0-5.979,2.677-5.979,5.979s2.677,5.979,5.979,5.979s5.979-2.677,5.979-5.979"/>
	
		<line style="fill:none;stroke:#FFFFFF;stroke-width:5;stroke-miterlimit:10;" x1="283.84" y1="239.138" x2="186.977" y2="239.138"/>
	<path style="fill:none;stroke:#FFFFFF;stroke-width:5;stroke-miterlimit:10;" d="M250.671,257.869h27.256h-0.067
		c3.302,0,5.979,2.677,5.979,5.979s-2.677,5.979-5.979,5.979s-5.979-2.677-5.979-5.979"/>
	<path style="fill:none;stroke:#FFFFFF;stroke-width:5;stroke-miterlimit:10;" d="M246.812,282.869c6.902,0,12.5,5.598,12.5,12.5
		c-0.001,6.904-5.598,12.501-12.5,12.5c0,6.902-5.598,12.5-12.5,12.5c-6.904-0.001-12.501-5.598-12.5-12.5
		c-6.902,0-12.5-5.598-12.5-12.5c0.001-6.904,5.598-12.5,12.5-12.5"/>
	<path style="fill:none;stroke:#FFFFFF;stroke-width:5;stroke-miterlimit:10;" d="M42.584,268.549c0,6.902-5.598,12.5-12.5,12.5
		c-6.904-0.001-12.501-5.598-12.5-12.5c-6.902,0-12.5-5.598-12.5-12.5c0.001-6.904,5.598-12.501,12.5-12.5
		c0-6.902,5.598-12.5,12.5-12.5c6.904,0.001,12.501,5.598,12.5,12.5"/>
	<path style="fill:none;stroke:#FFFFFF;stroke-width:5;stroke-miterlimit:10;" d="M269.574,72.02c0-6.903,5.597-12.5,12.5-12.5
		s12.5,5.597,12.5,12.5"/>
	<path style="fill:none;stroke:#FFFFFF;stroke-width:5;stroke-miterlimit:10;" d="M219.649,72.02c0-6.903-5.597-12.5-12.5-12.5
		s-12.5,5.597-12.5,12.5s5.596,12.5,12.5,12.5C214.052,84.52,219.649,78.923,219.649,72.02"/>
	<path style="fill:none;stroke:#FFFFFF;stroke-width:5;stroke-miterlimit:10;" d="M110.835,234.331c3.302,0,5.979,2.677,5.979,5.979
		s-2.677,5.979-5.979,5.979s-5.979-2.677-5.979-5.979c0.001,0-43.521,43.521-43.522,43.521c-6.902,0-12.499,5.596-12.5,12.5
		c0.001,6.902,5.598,12.5,12.501,12.5l43.521,43.521c4.882,4.881,4.881,12.797,0.001,17.678c-4.883,4.882-12.797,4.881-17.678,0"/>
	<path style="fill:none;stroke:#FFFFFF;stroke-width:5;stroke-miterlimit:10;" d="M275.128,356.114c0,3.303-2.676,5.979-5.979,5.979
		c-3.301,0-5.979-2.676-5.979-5.979v0.272c0-3.301-2.678-5.979-5.979-5.979c-3.303,0-5.979,2.678-5.979,5.978
		c0,6.904-5.597,12.5-12.5,12.5s-12.5-5.596-12.5-12.5c0-6.902-5.597-12.5-12.5-12.5s-12.5,5.598-12.5,12.5"/>
	<path style="fill:none;stroke:#FFFFFF;stroke-width:5;stroke-miterlimit:10;" d="M356.344,261.454c0,3.302-2.677,5.979-5.979,5.979
		s-5.979-2.677-5.979-5.979s2.677-5.979,5.979-5.979"/>
	
		<line style="fill:none;stroke:#FFFFFF;stroke-width:5;stroke-miterlimit:10;" x1="377.554" y1="255.476" x2="350.298" y2="255.476"/>
	
		<line style="fill:none;stroke:#FFFFFF;stroke-width:5;stroke-miterlimit:10;" x1="439.581" y1="236.744" x2="342.718" y2="236.744"/>
	<path style="fill:none;stroke:#FFFFFF;stroke-width:5;stroke-miterlimit:10;" d="M427.622,261.454c0,3.302,2.677,5.979,5.979,5.979
		s5.979-2.677,5.979-5.979s-2.677-5.979-5.979-5.979"/>
	
		<line style="fill:none;stroke:#FFFFFF;stroke-width:5;stroke-miterlimit:10;" x1="406.412" y1="255.476" x2="433.668" y2="255.476"/>
	<path style="fill:none;stroke:#FFFFFF;stroke-width:5;stroke-miterlimit:10;" d="M402.554,280.476c6.902,0,12.5,5.598,12.5,12.5
		c-0.001,6.904-5.598,12.501-12.5,12.5c0,6.902-5.598,12.5-12.5,12.5c-6.904-0.001-12.501-5.598-12.5-12.5
		c-6.902,0-12.5-5.598-12.5-12.5c0.001-6.904,5.598-12.5,12.5-12.5"/>
	<path style="fill:none;stroke:#FFFFFF;stroke-width:5;stroke-miterlimit:10;" d="M406.955,353.992c0,6.904-5.597,12.5-12.5,12.5
		s-12.5-5.596-12.5-12.5"/>
	<path style="fill:none;stroke:#FFFFFF;stroke-width:5;stroke-miterlimit:10;" d="M388.568,141.539c0,6.902,5.597,12.5,12.5,12.5
		s12.5-5.598,12.5-12.5V96.265c0,3.303-2.676,5.979-5.979,5.979c-3.301,0-5.979-2.676-5.979-5.979v-0.272
		c0,6.902-5.597,12.5-12.5,12.5s-12.5-5.598-12.5-12.5L445.104,27.5H348.24h1.454c-6.902,0-12.5-5.598-12.5-12.5
		c0-6.904,5.598-12.5,12.5-12.5"/>
</g>
<g id="Layer_1">
</g>
</svg>
