<?xml version="1.0" encoding="iso-8859-1"?>
<!-- Generator: Adobe Illustrator 16.0.0, SVG Export Plug-In . SVG Version: 6.00 Build 0)  -->
<!DOCTYPE svg PUBLIC "-//W3C//DTD SVG 1.1//EN" "http://www.w3.org/Graphics/SVG/1.1/DTD/svg11.dtd">
<svg version="1.1" xmlns="http://www.w3.org/2000/svg" xmlns:xlink="http://www.w3.org/1999/xlink" x="0px" y="0px"
	 width="195.01px" height="75.5px" viewBox="0 0 195.01 75.5" style="enable-background:new 0 0 195.01 75.5;" xml:space="preserve"
	>
<g id="mouthSet">
	<path style="fill:none;stroke:#FFFFFF;stroke-width:5;stroke-miterlimit:10;" d="M52.5,66.75c0-6.902-5.597-12.5-12.5-12.5
		s-12.5,5.598-12.5,12.5c0-6.902-5.597-12.5-12.5-12.5S2.5,59.848,2.5,66.75"/>
	<path style="fill:none;stroke:#FFFFFF;stroke-width:5;stroke-miterlimit:10;" d="M111.616,66.75c0,3.302,2.677,5.979,5.979,5.979
		s5.979-2.677,5.979-5.979s-2.677-5.979-5.979-5.979"/>
	<line style="fill:none;stroke:#FFFFFF;stroke-width:5;stroke-miterlimit:10;" x1="90.339" y1="60.771" x2="117.595" y2="60.771"/>
	<path style="fill:none;stroke:#FFFFFF;stroke-width:5;stroke-miterlimit:10;" d="M76.414,14.729c0,3.303-2.676,5.979-5.979,5.979
		c-3.301,0-5.979-2.676-5.979-5.979v0.272c0-3.301-2.678-5.979-5.979-5.979C55.176,9.022,52.5,11.7,52.5,15
		c0,6.904-5.597,12.5-12.5,12.5S27.5,21.904,27.5,15c0-6.902-5.597-12.5-12.5-12.5S2.5,8.098,2.5,15"/>
	<path style="fill:none;stroke:#FFFFFF;stroke-width:5;stroke-miterlimit:10;" d="M192.51,60.5c0,6.904-5.597,12.5-12.5,12.5
		s-12.5-5.596-12.5-12.5"/>
</g>
<g id="Layer_1">
</g>
</svg>
