<?xml version="1.0" encoding="iso-8859-1"?>
<!-- Generator: Adobe Illustrator 16.0.0, SVG Export Plug-In . SVG Version: 6.00 Build 0)  -->
<!DOCTYPE svg PUBLIC "-//W3C//DTD SVG 1.1//EN" "http://www.w3.org/Graphics/SVG/1.1/DTD/svg11.dtd">
<svg version="1.1" xmlns="http://www.w3.org/2000/svg" xmlns:xlink="http://www.w3.org/1999/xlink" x="0px" y="0px"
	 width="128.12px" height="149.691px" viewBox="0 0 128.12 149.691" style="enable-background:new 0 0 128.12 149.691;"
	 xml:space="preserve">
<g id="browR">
	<path style="fill:#FFFAD5;" d="M64.068,45.125c27.434,0,50.827,17.256,59.954,41.498c2.643-7.02,4.098-14.62,4.098-22.563
		C128.12,28.686,99.446,0,64.068,0S0,28.686,0,64.06c0,7.943,1.456,15.543,4.101,22.563C13.231,62.381,36.634,45.125,64.068,45.125z
		"/>
	<path style="fill:#105B63;" d="M64.067,149.691c27.434,0,50.826-17.255,59.953-41.498c-9.127-24.242-32.52-41.499-59.953-41.499
		c-27.436,0-50.838,17.256-59.969,41.499C13.229,132.437,36.632,149.691,64.067,149.691z"/>
</g>
<g id="Layer_1">
</g>
</svg>
