<?xml version="1.0" encoding="iso-8859-1"?>
<!-- Generator: Adobe Illustrator 16.0.0, SVG Export Plug-In . SVG Version: 6.00 Build 0)  -->
<!DOCTYPE svg PUBLIC "-//W3C//DTD SVG 1.1//EN" "http://www.w3.org/Graphics/SVG/1.1/DTD/svg11.dtd">
<svg version="1.1" xmlns="http://www.w3.org/2000/svg" xmlns:xlink="http://www.w3.org/1999/xlink" x="0px" y="0px"
	 width="128.121px" height="149.691px" viewBox="0 0 128.121 149.691" style="enable-background:new 0 0 128.121 149.691;"
	 xml:space="preserve">
<g id="browL">
	<path style="fill:#FFFAD5;" d="M64.068,45.125c27.434,0,50.826,17.256,59.953,41.498c2.645-7.02,4.1-14.62,4.1-22.563
		C128.121,28.686,99.445,0,64.068,0C28.69,0,0,28.686,0,64.06c0,7.943,1.457,15.543,4.101,22.563
		C13.231,62.381,36.634,45.125,64.068,45.125z"/>
	<path style="fill:#BD4932;" d="M64.067,149.691c27.433,0,50.828-17.255,59.955-41.498C114.895,83.951,91.5,66.695,64.067,66.695
		c-27.435,0-50.837,17.256-59.968,41.499C13.23,132.437,36.632,149.691,64.067,149.691z"/>
</g>
<g id="Layer_1">
</g>
</svg>
