<?xml version="1.0" encoding="iso-8859-1"?>
<!-- Generator: Adobe Illustrator 16.0.0, SVG Export Plug-In . SVG Version: 6.00 Build 0)  -->
<!DOCTYPE svg PUBLIC "-//W3C//DTD SVG 1.1//EN" "http://www.w3.org/Graphics/SVG/1.1/DTD/svg11.dtd">
<svg version="1.1" xmlns="http://www.w3.org/2000/svg" xmlns:xlink="http://www.w3.org/1999/xlink" x="0px" y="0px"
	 width="603.496px" height="315.814px" viewBox="0 0 603.496 315.814" style="enable-background:new 0 0 603.496 315.814;"
	 xml:space="preserve">
<g id="head">
	<path style="fill:#105B63;" d="M279.162,56.758C250.196,22.073,206.633,0,157.907,0C70.694,0,0,70.698,0,157.904
		c0,87.211,70.694,157.91,157.907,157.91c48.726,0,92.289-22.073,121.254-56.759c-22.88-27.398-36.653-62.664-36.653-101.151
		C242.508,119.42,256.282,84.155,279.162,56.758z"/>
	<path style="fill:#BD4932;" d="M445.588,0c-48.727,0-92.289,22.073-121.254,56.758c22.879,27.397,36.654,62.662,36.654,101.146
		c0,38.487-13.775,73.753-36.654,101.151c28.965,34.686,72.527,56.759,121.254,56.759c87.213,0,157.908-70.699,157.908-157.91
		C603.496,70.698,532.801,0,445.588,0z"/>
</g>
<g id="Layer_1">
</g>
</svg>
