<?xml version="1.0" encoding="iso-8859-1"?>
<!-- Generator: Adobe Illustrator 16.0.0, SVG Export Plug-In . SVG Version: 6.00 Build 0)  -->
<!DOCTYPE svg PUBLIC "-//W3C//DTD SVG 1.1//EN" "http://www.w3.org/Graphics/SVG/1.1/DTD/svg11.dtd">
<svg version="1.1" xmlns="http://www.w3.org/2000/svg" xmlns:xlink="http://www.w3.org/1999/xlink" x="0px" y="0px"
	 width="94.565px" height="161.852px" viewBox="0 0 94.565 161.852" style="enable-background:new 0 0 94.565 161.852;"
	 xml:space="preserve">
<g id="mouth">
	<path style="fill:#BD4932;" d="M47.284,47.285c17.495,0,32.762,9.513,40.938,23.641c4.026-6.957,6.343-15.027,6.343-23.643
		c0-26.11-21.171-47.281-47.281-47.281C21.172,0.002,0,21.173,0,47.283c0,8.615,2.316,16.686,6.343,23.643
		C14.52,56.798,29.787,47.285,47.284,47.285z"/>
	<path style="fill:#BD4932;" d="M47.284,114.568c-17.497,0-32.765-9.514-40.941-23.642C2.316,97.883,0,105.953,0,114.567
		c0,26.112,21.172,47.284,47.284,47.284c26.11,0,47.281-21.172,47.281-47.284c0-8.614-2.316-16.685-6.343-23.641
		C80.046,105.055,64.779,114.568,47.284,114.568z"/>
	<path style="fill:#105B63;" d="M47.284,103.568c17.495,0,32.762-9.514,40.938-23.642c-8.177-14.128-23.443-23.641-40.938-23.641
		c-17.497,0-32.765,9.513-40.941,23.641C14.52,94.055,29.787,103.568,47.284,103.568z"/>
</g>
<g id="Layer_1">
</g>
</svg>
