<?xml version="1.0" encoding="iso-8859-1"?>
<!-- Generator: Adobe Illustrator 16.0.0, SVG Export Plug-In . SVG Version: 6.00 Build 0)  -->
<!DOCTYPE svg PUBLIC "-//W3C//DTD SVG 1.1//EN" "http://www.w3.org/Graphics/SVG/1.1/DTD/svg11.dtd">
<svg version="1.1" xmlns="http://www.w3.org/2000/svg" xmlns:xlink="http://www.w3.org/1999/xlink" x="0px" y="0px"
	 width="94.565px" height="141.849px" viewBox="0 0 94.565 141.849" style="enable-background:new 0 0 94.565 141.849;"
	 xml:space="preserve">
<g id="mouth">
	<path style="fill:#BD4932;" d="M47.284,47.283c17.495,0,32.762,9.513,40.938,23.641c4.026-6.957,6.343-15.027,6.343-23.643
		C94.565,21.171,73.395,0,47.284,0C21.172,0,0,21.171,0,47.281c0,8.615,2.316,16.686,6.343,23.643
		C14.52,56.796,29.787,47.283,47.284,47.283z"/>
	<path style="fill:#BD4932;" d="M47.284,94.565c-17.497,0-32.765-9.514-40.941-23.642C2.316,77.88,0,85.95,0,94.564
		c0,26.112,21.172,47.284,47.284,47.284c26.11,0,47.281-21.172,47.281-47.284c0-8.614-2.316-16.685-6.343-23.641
		C80.046,85.052,64.779,94.565,47.284,94.565z"/>
	<path style="fill:#105B63;" d="M47.284,94.565c17.495,0,32.762-9.514,40.938-23.642c-8.177-14.128-23.443-23.641-40.938-23.641
		c-17.497,0-32.765,9.513-40.941,23.641C14.52,85.052,29.787,94.565,47.284,94.565z"/>
</g>
<g id="Layer_1">
</g>
</svg>
