<?xml version="1.0" encoding="iso-8859-1"?>
<!-- Generator: Adobe Illustrator 16.0.0, SVG Export Plug-In . SVG Version: 6.00 Build 0)  -->
<!DOCTYPE svg PUBLIC "-//W3C//DTD SVG 1.1//EN" "http://www.w3.org/Graphics/SVG/1.1/DTD/svg11.dtd">
<svg version="1.1" xmlns="http://www.w3.org/2000/svg" xmlns:xlink="http://www.w3.org/1999/xlink" x="0px" y="0px"
	 width="219.775px" height="405.287px" viewBox="0 0 219.775 405.287" style="enable-background:new 0 0 219.775 405.287;"
	 xml:space="preserve">
<g id="eyeL">
	<circle style="fill:none;stroke:#000000;stroke-miterlimit:10;" cx="133.106" cy="73.364" r="26.136"/>
	<circle id="dummy_8_" style="fill:#00FF00;" cx="133.005" cy="73.364" r="3.348"/>
	<g id="Layer_9">
		<line style="fill:none;stroke:#000000;stroke-miterlimit:10;" x1="106.971" y1="73.364" x2="56.359" y2="73.364"/>
		<circle style="fill:none;stroke:#000000;stroke-miterlimit:10;" cx="56.359" cy="73.364" r="9.083"/>
		<circle id="dummy_10_" style="fill:#00FF00;" cx="106.971" cy="73.364" r="3.348"/>
		<g id="Layer_11">
			<line style="fill:none;stroke:#000000;stroke-miterlimit:10;" x1="56.359" y1="73.364" x2="24.114" y2="164.896"/>
			<path style="fill:none;stroke:#000000;stroke-miterlimit:10;" d="M47.729,172.161c0,9.029-7.319,16.349-16.349,16.349H16.849
				c-9.029,0-16.349-7.32-16.349-16.349V157.63c0-9.028,7.319-16.349,16.349-16.349H31.38c9.029,0,16.349,7.32,16.349,16.349
				V172.161z"/>
			<circle id="dummy_11_" style="fill:#00FF00;" cx="56.359" cy="73.364" r="3.348"/>
			<g id="Layer_13">
				<line style="fill:none;stroke:#000000;stroke-miterlimit:10;" x1="24.114" y1="164.896" x2="106.971" y2="272.297"/>
				<circle style="fill:none;stroke:#000000;stroke-miterlimit:10;" cx="106.971" cy="272.297" r="11.149"/>
				<circle id="dummy_13_" style="fill:#00FF00;" cx="24.114" cy="164.896" r="3.348"/>
			</g>
			<g id="Layer_12">
				<line style="fill:none;stroke:#000000;stroke-miterlimit:10;" x1="24.114" y1="164.896" x2="95.822" y2="212.352"/>
				<rect x="84.672" y="201.203" style="fill:none;stroke:#000000;stroke-miterlimit:10;" width="22.298" height="22.298"/>
				<circle id="dummy_12_" style="fill:#00FF00;" cx="24.114" cy="164.896" r="3.348"/>
			</g>
		</g>
	</g>
	<g id="Layer_10">
		<line style="fill:none;stroke:#000000;stroke-miterlimit:10;" x1="133.106" y1="47.229" x2="133.106" y2="17.757"/>
		<rect x="115.85" y="0.5" style="fill:none;stroke:#000000;stroke-miterlimit:10;" width="34.513" height="34.515"/>
		<circle id="dummy_9_" style="fill:#00FF00;" cx="133.106" cy="47.229" r="3.348"/>
	</g>
	<g id="Layer_8">
		<line style="fill:none;stroke:#000000;stroke-miterlimit:10;" x1="133.106" y1="99.5" x2="133.106" y2="133.105"/>
		<circle style="fill:none;stroke:#000000;stroke-miterlimit:10;" cx="133.106" cy="133.105" r="8.176"/>
		<circle id="dummy_14_" style="fill:#00FF00;" cx="133.114" cy="99.5" r="3.348"/>
		<g id="Layer_15">
			<line style="fill:none;stroke:#000000;stroke-miterlimit:10;" x1="133.106" y1="133.105" x2="191.689" y2="377.201"/>
			<rect x="164.104" y="349.615" style="fill:none;stroke:#000000;stroke-miterlimit:10;" width="55.172" height="55.172"/>
			<circle id="dummy_15_" style="fill:#00FF00;" cx="133.114" cy="133.106" r="3.348"/>
		</g>
	</g>
</g>
<g id="Layer_1">
</g>
</svg>
