<?xml version="1.0" encoding="iso-8859-1"?>
<!-- Generator: Adobe Illustrator 16.0.0, SVG Export Plug-In . SVG Version: 6.00 Build 0)  -->
<!DOCTYPE svg PUBLIC "-//W3C//DTD SVG 1.1//EN" "http://www.w3.org/Graphics/SVG/1.1/DTD/svg11.dtd">
<svg version="1.1" xmlns="http://www.w3.org/2000/svg" xmlns:xlink="http://www.w3.org/1999/xlink" x="0px" y="0px"
	 width="276.602px" height="322.871px" viewBox="0 0 276.602 322.871" style="enable-background:new 0 0 276.602 322.871;"
	 xml:space="preserve">
<g id="rootTreeMouth">
	<circle style="fill:none;stroke:#000000;stroke-miterlimit:10;" cx="133.394" cy="128.881" r="15.16"/>
	<circle id="dummy_3_" style="fill:#00FF00;stroke:#000000;stroke-miterlimit:10;" cx="133.394" cy="128.881" r="8.022"/>
	<g id="Layer_35">
		<line style="fill:none;stroke:#000000;stroke-miterlimit:10;" x1="118.233" y1="128.881" x2="30.771" y2="76.258"/>
		<path id="circle_5_" style="fill:none;stroke:#000000;stroke-miterlimit:10;" d="M40.868,76.258
			c0,5.578-4.522,10.096-10.097,10.096c-5.572,0-10.094-4.518-10.094-10.096c0-5.574,4.521-10.092,10.094-10.092
			C36.346,66.166,40.868,70.684,40.868,76.258z"/>
		<circle id="dummy_9_" style="fill:#00FF00;stroke:#000000;stroke-miterlimit:10;" cx="118.233" cy="128.881" r="8.022"/>
	</g>
	<g id="Layer_36">
		<line style="fill:none;stroke:#000000;stroke-miterlimit:10;" x1="148.554" y1="128.881" x2="237.693" y2="76.258"/>
		<circle id="circle_4_" style="fill:none;stroke:#000000;stroke-miterlimit:10;" cx="237.692" cy="76.258" r="18.729"/>
		<circle id="dummy_7_" style="fill:#00FF00;stroke:#000000;stroke-miterlimit:10;" cx="148.554" cy="128.881" r="8.022"/>
	</g>
	<g id="chin">
		<line style="fill:none;stroke:#000000;stroke-miterlimit:10;" x1="133.393" y1="144.041" x2="133.393" y2="288.527"/>
		<circle id="dummy_31_" style="fill:#00FF00;stroke:#000000;stroke-miterlimit:10;" cx="133.393" cy="144.041" r="8.022"/>
		<path style="fill:none;stroke:#000000;stroke-miterlimit:10;" d="M167.233,288.527c0,18.693-15.149,33.844-33.841,33.844
			c-18.689,0-33.839-15.15-33.839-33.844c0-18.688,15.149-33.838,33.839-33.838C152.084,254.689,167.233,269.84,167.233,288.527z"/>
		<g id="chinL">
			<line style="fill:none;stroke:#000000;stroke-miterlimit:10;" x1="99.554" y1="288.527" x2="8.477" y2="229.662"/>
			<circle id="circle" style="fill:none;stroke:#000000;stroke-miterlimit:10;" cx="8.477" cy="229.662" r="7.977"/>
			<circle id="dummy_38_" style="fill:#00FF00;stroke:#000000;stroke-miterlimit:10;" cx="99.37" cy="288.527" r="8.022"/>
		</g>
		<g id="chinR">
			<line style="fill:none;stroke:#000000;stroke-miterlimit:10;" x1="167.233" y1="288.527" x2="256.422" y2="229.662"/>
			<circle id="dummy_37_" style="fill:#00FF00;stroke:#000000;stroke-miterlimit:10;" cx="167.233" cy="288.53" r="8.022"/>
			
				<rect x="242.653" y="215.893" transform="matrix(0.7071 0.7071 -0.7071 0.7071 237.4999 -114.0511)" style="fill:none;stroke:#000000;stroke-miterlimit:10;" width="27.538" height="27.538"/>
		</g>
	</g>
	<g id="nose">
		<circle id="noseCir" style="fill:none;stroke:#000000;stroke-miterlimit:10;" cx="133.394" cy="29.881" r="29.381"/>
		<line style="fill:none;stroke:#000000;stroke-miterlimit:10;" x1="133.393" y1="59.261" x2="133.393" y2="128.881"/>
		<circle id="dummy_1_" style="fill:#00FF00;stroke:#000000;stroke-miterlimit:10;" cx="133.393" cy="128.881" r="8.022"/>
	</g>
</g>
<g id="Layer_1">
</g>
</svg>
