<?xml version="1.0" encoding="iso-8859-1"?>
<!-- Generator: Adobe Illustrator 16.0.0, SVG Export Plug-In . SVG Version: 6.00 Build 0)  -->
<!DOCTYPE svg PUBLIC "-//W3C//DTD SVG 1.1//EN" "http://www.w3.org/Graphics/SVG/1.1/DTD/svg11.dtd">
<svg version="1.1" xmlns="http://www.w3.org/2000/svg" xmlns:xlink="http://www.w3.org/1999/xlink" x="0px" y="0px"
	 width="465.474px" height="530.367px" viewBox="0 0 465.474 530.367" style="enable-background:new 0 0 465.474 530.367;"
	 xml:space="preserve">
<g id="rootTree">
	<path style="fill:none;stroke:#FFFFFF;stroke-miterlimit:10;" d="M304.636,496.023c0,18.693-15.149,33.844-33.841,33.844
		c-18.689,0-33.839-15.15-33.839-33.844c0-18.688,15.149-33.838,33.839-33.838C289.486,462.186,304.636,477.336,304.636,496.023z"/>
	<line style="fill:none;stroke:#FFFFFF;stroke-miterlimit:10;" x1="236.956" y1="496.023" x2="145.879" y2="437.158"/>
	<line style="fill:none;stroke:#FFFFFF;stroke-miterlimit:10;" x1="304.636" y1="496.023" x2="393.824" y2="437.158"/>
	<circle id="dummy_1_" style="fill:#00FF00;stroke:#FFFFFF;stroke-miterlimit:10;" cx="270.795" cy="496.026" r="8.022"/>
	<g id="Layer_23">
		<circle style="fill:none;stroke:#FFFFFF;stroke-miterlimit:10;" cx="270.796" cy="336.377" r="15.16"/>
		<line style="fill:none;stroke:#FFFFFF;stroke-miterlimit:10;" x1="270.795" y1="351.537" x2="270.795" y2="496.023"/>
		<circle id="dummy_31_" style="fill:#00FF00;stroke:#FFFFFF;stroke-miterlimit:10;" cx="270.795" cy="496.026" r="8.022"/>
		<g id="Layer_26">
			<line style="fill:none;stroke:#FFFFFF;stroke-miterlimit:10;" x1="255.636" y1="336.377" x2="168.174" y2="283.754"/>
			<path style="fill:none;stroke:#FFFFFF;stroke-miterlimit:10;" d="M178.271,283.754c0,5.578-4.522,10.096-10.097,10.096
				c-5.572,0-10.094-4.518-10.094-10.096c0-5.574,4.521-10.092,10.094-10.092C173.748,273.662,178.271,278.18,178.271,283.754z"/>
			<circle id="dummy_9_" style="fill:#00FF00;stroke:#FFFFFF;stroke-miterlimit:10;" cx="255.636" cy="336.377" r="8.022"/>
		</g>
		<g id="Layer_25">
			<line style="fill:none;stroke:#FFFFFF;stroke-miterlimit:10;" x1="285.956" y1="336.377" x2="375.096" y2="283.754"/>
			<circle style="fill:none;stroke:#FFFFFF;stroke-miterlimit:10;" cx="375.095" cy="283.754" r="18.729"/>
			<circle id="dummy_7_" style="fill:#00FF00;stroke:#FFFFFF;stroke-miterlimit:10;" cx="285.956" cy="336.377" r="8.022"/>
		</g>
		<g id="Layer_24">
			<circle style="fill:none;stroke:#FFFFFF;stroke-miterlimit:10;" cx="270.796" cy="237.377" r="29.381"/>
			<line style="fill:none;stroke:#FFFFFF;stroke-miterlimit:10;" x1="270.795" y1="266.758" x2="270.795" y2="336.377"/>
			<circle id="dummy_3_" style="fill:#00FF00;stroke:#FFFFFF;stroke-miterlimit:10;" cx="270.796" cy="336.377" r="8.022"/>
			<g id="Layer_29">
				<line style="fill:none;stroke:#FFFFFF;stroke-miterlimit:10;" x1="270.795" y1="237.377" x2="168.174" y2="142.835"/>
				<rect x="152.146" y="126.806" style="fill:none;stroke:#FFFFFF;stroke-miterlimit:10;" width="32.061" height="32.059"/>
				<circle id="dummy_15_" style="fill:#00FF00;stroke:#FFFFFF;stroke-miterlimit:10;" cx="270.796" cy="237.377" r="8.022"/>
			</g>
			<g id="Layer_28">
				<line style="fill:none;stroke:#FFFFFF;stroke-miterlimit:10;" x1="270.795" y1="237.377" x2="349.232" y2="134.808"/>
				<circle style="fill:none;stroke:#FFFFFF;stroke-miterlimit:10;" cx="349.23" cy="134.808" r="44.594"/>
				<circle id="dummy_11_" style="fill:#00FF00;stroke:#FFFFFF;stroke-miterlimit:10;" cx="270.796" cy="237.377" r="8.022"/>
				<g id="Layer_34">
					<line style="fill:none;stroke:#FFFFFF;stroke-miterlimit:10;" x1="349.232" y1="90.213" x2="349.232" y2="23.534"/>
					<circle style="fill:none;stroke:#FFFFFF;stroke-miterlimit:10;" cx="349.231" cy="23.534" r="15.162"/>
					<circle id="dummy_17_" style="fill:#00FF00;stroke:#FFFFFF;stroke-miterlimit:10;" cx="349.232" cy="90.213" r="8.022"/>
					<g id="Layer_36">
						<line style="fill:none;stroke:#FFFFFF;stroke-miterlimit:10;" x1="364.394" y1="23.534" x2="443.324" y2="23.534"/>
						
							<rect x="428.162" y="8.371" transform="matrix(0.7071 0.7071 -0.7071 0.7071 146.4836 -306.5814)" style="fill:none;stroke:#FFFFFF;stroke-miterlimit:10;" width="30.324" height="30.324"/>
						<circle id="dummy_18_" style="fill:#00FF00;stroke:#FFFFFF;stroke-miterlimit:10;" cx="364.394" cy="23.533" r="8.022"/>
					</g>
					<g id="Layer_35">
						<line style="fill:none;stroke:#FFFFFF;stroke-miterlimit:10;" x1="334.069" y1="23.534" x2="300.177" y2="23.534"/>
						<circle style="fill:none;stroke:#FFFFFF;stroke-miterlimit:10;" cx="300.176" cy="23.534" r="8.705"/>
						<circle id="dummy_21_" style="fill:#00FF00;stroke:#FFFFFF;stroke-miterlimit:10;" cx="334.069" cy="23.533" r="8.022"/>
					</g>
				</g>
			</g>
			<g id="Layer_27">
				<line style="fill:none;stroke:#FFFFFF;stroke-miterlimit:10;" x1="145.879" y1="32.239" x2="270.795" y2="237.377"/>
				<circle style="fill:none;stroke:#FFFFFF;stroke-miterlimit:10;" cx="145.877" cy="32.239" r="22.296"/>
				<circle id="dummy_14_" style="fill:#00FF00;stroke:#FFFFFF;stroke-miterlimit:10;" cx="270.796" cy="237.377" r="8.022"/>
				<g id="Layer_30">
					<line style="fill:none;stroke:#FFFFFF;stroke-miterlimit:10;" x1="168.174" y1="32.239" x2="248.002" y2="32.239"/>
					<circle style="fill:none;stroke:#FFFFFF;stroke-miterlimit:10;" cx="248.001" cy="32.239" r="8.706"/>
					<circle id="dummy_23_" style="fill:#00FF00;stroke:#FFFFFF;stroke-miterlimit:10;" cx="168.174" cy="32.24" r="8.022"/>
				</g>
				<g id="Layer_31">
					<line style="fill:none;stroke:#FFFFFF;stroke-miterlimit:10;" x1="123.581" y1="32.239" x2="41.529" y2="32.239"/>
					
						<rect x="19.232" y="9.942" transform="matrix(0.7071 0.7071 -0.7071 0.7071 34.959 -19.9228)" style="fill:none;stroke:#FFFFFF;stroke-miterlimit:10;" width="44.594" height="44.594"/>
					<circle id="dummy_26_" style="fill:#00FF00;stroke:#FFFFFF;stroke-miterlimit:10;" cx="123.581" cy="32.239" r="8.022"/>
					<g id="Layer_32">
						<path style="fill:none;stroke:#FFFFFF;stroke-miterlimit:10;" d="M82.556,190.106c0,22.657-18.37,41.026-41.026,41.026
							c-22.66,0-41.029-18.369-41.029-41.026c0-22.658,18.369-41.029,41.029-41.029C64.186,149.077,82.556,167.448,82.556,190.106z"
							/>
						<line style="fill:none;stroke:#FFFFFF;stroke-miterlimit:10;" x1="41.529" y1="63.771" x2="41.529" y2="149.077"/>
						<circle id="dummy_27_" style="fill:#00FF00;stroke:#FFFFFF;stroke-miterlimit:10;" cx="41.527" cy="63.771" r="8.022"/>
						<g id="Layer_33">
							<line style="fill:none;stroke:#FFFFFF;stroke-miterlimit:10;" x1="41.529" y1="231.132" x2="41.529" y2="265.026"/>
							<path style="fill:none;stroke:#FFFFFF;stroke-miterlimit:10;" d="M60.703,265.026c0,10.589-8.586,19.177-19.174,19.177
								c-10.595,0-19.178-8.588-19.178-19.177c0-10.591,8.583-19.177,19.178-19.177C52.117,245.849,60.703,254.435,60.703,265.026z"
								/>
							<circle id="dummy_29_" style="fill:#00FF00;stroke:#FFFFFF;stroke-miterlimit:10;" cx="41.529" cy="231.399" r="8.022"/>
						</g>
					</g>
				</g>
			</g>
		</g>
	</g>
</g>
<g id="Layer_1">
</g>
</svg>
