<?xml version="1.0" encoding="iso-8859-1"?>
<!-- Generator: Adobe Illustrator 16.0.0, SVG Export Plug-In . SVG Version: 6.00 Build 0)  -->
<!DOCTYPE svg PUBLIC "-//W3C//DTD SVG 1.1//EN" "http://www.w3.org/Graphics/SVG/1.1/DTD/svg11.dtd">
<svg version="1.1" xmlns="http://www.w3.org/2000/svg" xmlns:xlink="http://www.w3.org/1999/xlink" x="0px" y="0px"
	 width="386.766px" height="772.941px" viewBox="0 0 386.766 772.941" style="enable-background:new 0 0 386.766 772.941;"
	 xml:space="preserve">
<g id="rootLamp">
	<circle style="fill:none;stroke:#FFFFFF;stroke-miterlimit:10;" cx="205.133" cy="666.756" r="105.684"/>
	<line style="fill:none;stroke:#FFFFFF;stroke-miterlimit:10;" x1="205.133" y1="666.756" x2="205.133" y2="502.217"/>
	<circle style="fill:none;stroke:#FFFFFF;stroke-miterlimit:10;" cx="205.134" cy="666.756" r="30.343"/>
	<circle id="dummy" style="fill:#00FF00;stroke:#FFFFFF;stroke-miterlimit:10;" cx="205.134" cy="666.756" r="8.022"/>
	<g id="Layer_3">
		<circle style="fill:none;stroke:#FFFFFF;stroke-miterlimit:10;" cx="99.449" cy="445.139" r="57.08"/>
		<line style="fill:none;stroke:#FFFFFF;stroke-miterlimit:10;" x1="205.133" y1="502.217" x2="99.449" y2="445.139"/>
		<circle style="fill:none;stroke:#FFFFFF;stroke-miterlimit:10;" cx="99.449" cy="445.139" r="20.748"/>
		<circle id="dummy_2_" style="fill:#00FF00;stroke:#FFFFFF;stroke-miterlimit:10;" cx="205.135" cy="502.217" r="8.021"/>
		<g id="Layer_4">
			<line style="fill:none;stroke:#FFFFFF;stroke-miterlimit:10;" x1="99.449" y1="388.057" x2="99.449" y2="251.598"/>
			<circle id="dummy_28_" style="fill:#00FF00;stroke:#FFFFFF;stroke-miterlimit:10;" cx="99.45" cy="388.057" r="8.021"/>
			<g id="Layer_11">
				<path style="fill:none;stroke:#FFFFFF;stroke-miterlimit:10;" d="M42.369,308.678c0-31.524,25.554-57.08,57.08-57.08"/>
				<circle style="fill:none;stroke:#FFFFFF;stroke-miterlimit:10;" cx="42.37" cy="308.678" r="14.259"/>
				<circle id="dummy_4_" style="fill:#00FF00;stroke:#FFFFFF;stroke-miterlimit:10;" cx="99.45" cy="251.598" r="8.021"/>
			</g>
			<g id="Layer_10">
				<path style="fill:none;stroke:#FFFFFF;stroke-miterlimit:10;" d="M99.449,251.598c31.524,0,57.079,25.556,57.079,57.08"/>
				<circle style="fill:none;stroke:#FFFFFF;stroke-miterlimit:10;" cx="156.53" cy="308.678" r="14.259"/>
				<circle id="dummy_36_" style="fill:#00FF00;stroke:#FFFFFF;stroke-miterlimit:10;" cx="99.45" cy="251.598" r="8.021"/>
			</g>
			<g id="Layer_6">
				<line style="fill:none;stroke:#FFFFFF;stroke-miterlimit:10;" x1="99.449" y1="251.598" x2="0.439" y2="69.651"/>
				<circle id="dummy_6_" style="fill:#00FF00;stroke:#FFFFFF;stroke-miterlimit:10;" cx="99.45" cy="251.598" r="8.021"/>
			</g>
			<g id="Layer_7">
				<line style="fill:none;stroke:#FFFFFF;stroke-miterlimit:10;" x1="99.449" y1="251.598" x2="56.629" y2="0.083"/>
				<circle id="dummy_33_" style="fill:#00FF00;stroke:#FFFFFF;stroke-miterlimit:10;" cx="99.45" cy="251.598" r="8.021"/>
			</g>
			<g id="Layer_8">
				<line style="fill:none;stroke:#FFFFFF;stroke-miterlimit:10;" x1="99.449" y1="251.598" x2="120.197" y2="69.651"/>
				<circle id="dummy_8_" style="fill:#00FF00;stroke:#FFFFFF;stroke-miterlimit:10;" cx="99.45" cy="251.598" r="8.021"/>
			</g>
			<g id="Layer_9">
				<line style="fill:none;stroke:#FFFFFF;stroke-miterlimit:10;" x1="99.449" y1="251.598" x2="152.291" y2="160.624"/>
				<circle id="dummy_30_" style="fill:#00FF00;stroke:#FFFFFF;stroke-miterlimit:10;" cx="99.45" cy="251.598" r="8.021"/>
			</g>
			<g id="Layer_5">
				<line style="fill:none;stroke:#FFFFFF;stroke-miterlimit:10;" x1="99.449" y1="251.598" x2="0.439" y2="190.057"/>
				<circle id="dummy_10_" style="fill:#00FF00;stroke:#FFFFFF;stroke-miterlimit:10;" cx="99.45" cy="251.598" r="8.021"/>
			</g>
		</g>
	</g>
	<g id="Layer_2">
		<circle style="fill:none;stroke:#FFFFFF;stroke-miterlimit:10;" cx="297.438" cy="445.139" r="57.081"/>
		<line style="fill:none;stroke:#FFFFFF;stroke-miterlimit:10;" x1="205.133" y1="502.217" x2="297.439" y2="445.139"/>
		<circle style="fill:none;stroke:#FFFFFF;stroke-miterlimit:10;" cx="297.439" cy="445.139" r="42.821"/>
		<circle id="dummy_5_" style="fill:#00FF00;stroke:#FFFFFF;stroke-miterlimit:10;" cx="205.135" cy="502.217" r="8.021"/>
		<g id="Layer_4_copy">
			<line style="fill:none;stroke:#FFFFFF;stroke-miterlimit:10;" x1="299.265" y1="388.057" x2="299.265" y2="251.598"/>
			<path id="dummy_13_" style="fill:#00FF00;stroke:#FFFFFF;stroke-miterlimit:10;" d="M307.288,388.057
				c0,4.432-3.591,8.021-8.023,8.021c-4.429,0-8.018-3.59-8.018-8.021c0-4.431,3.589-8.021,8.018-8.021
				C303.697,380.036,307.288,383.625,307.288,388.057z"/>
			<g id="Layer_11_copy">
				<path style="fill:none;stroke:#FFFFFF;stroke-miterlimit:10;" d="M242.185,308.678c0-31.524,25.556-57.08,57.08-57.08"/>
				<circle style="fill:none;stroke:#FFFFFF;stroke-miterlimit:10;" cx="242.186" cy="308.678" r="14.259"/>
				<path id="dummy_24_" style="fill:#00FF00;stroke:#FFFFFF;stroke-miterlimit:10;" d="M307.288,251.598
					c0,4.432-3.591,8.021-8.023,8.021c-4.429,0-8.018-3.59-8.018-8.021s3.589-8.022,8.018-8.022
					C303.697,243.576,307.288,247.166,307.288,251.598z"/>
			</g>
			<g id="Layer_10_copy">
				<path style="fill:none;stroke:#FFFFFF;stroke-miterlimit:10;" d="M299.265,251.598c31.526,0,57.08,25.556,57.08,57.08"/>
				<circle style="fill:none;stroke:#FFFFFF;stroke-miterlimit:10;" cx="356.347" cy="308.678" r="14.259"/>
				<path id="dummy_25_" style="fill:#00FF00;stroke:#FFFFFF;stroke-miterlimit:10;" d="M307.288,251.598
					c0,4.432-3.591,8.021-8.023,8.021c-4.429,0-8.018-3.59-8.018-8.021s3.589-8.022,8.018-8.022
					C303.697,243.576,307.288,247.166,307.288,251.598z"/>
			</g>
			<g id="Layer_6_copy">
				<line style="fill:none;stroke:#FFFFFF;stroke-miterlimit:10;" x1="299.265" y1="251.598" x2="254.618" y2="62.293"/>
				<path id="dummy_20_" style="fill:#00FF00;stroke:#FFFFFF;stroke-miterlimit:10;" d="M307.288,251.598
					c0,4.432-3.591,8.021-8.023,8.021c-4.429,0-8.018-3.59-8.018-8.021s3.589-8.022,8.018-8.022
					C303.697,243.576,307.288,247.166,307.288,251.598z"/>
			</g>
			<g id="Layer_7_copy">
				<line style="fill:none;stroke:#FFFFFF;stroke-miterlimit:10;" x1="299.265" y1="251.598" x2="320.852" y2="0.083"/>
				<path id="dummy_22_" style="fill:#00FF00;stroke:#FFFFFF;stroke-miterlimit:10;" d="M307.288,251.598
					c0,4.432-3.591,8.021-8.023,8.021c-4.429,0-8.018-3.59-8.018-8.021s3.589-8.022,8.018-8.022
					C303.697,243.576,307.288,247.166,307.288,251.598z"/>
			</g>
			<g id="Layer_8_copy">
				<line style="fill:none;stroke:#FFFFFF;stroke-miterlimit:10;" x1="299.265" y1="251.598" x2="379.716" y2="91.057"/>
				<path id="dummy_16_" style="fill:#00FF00;stroke:#FFFFFF;stroke-miterlimit:10;" d="M307.288,251.598
					c0,4.432-3.591,8.021-8.023,8.021c-4.429,0-8.018-3.59-8.018-8.021s3.589-8.022,8.018-8.022
					C303.697,243.576,307.288,247.166,307.288,251.598z"/>
			</g>
			<g id="Layer_9_copy">
				<line style="fill:none;stroke:#FFFFFF;stroke-miterlimit:10;" x1="299.265" y1="251.598" x2="386.404" y2="160.624"/>
				<path id="dummy_19_" style="fill:#00FF00;stroke:#FFFFFF;stroke-miterlimit:10;" d="M307.288,251.598
					c0,4.432-3.591,8.021-8.023,8.021c-4.429,0-8.018-3.59-8.018-8.021s3.589-8.022,8.018-8.022
					C303.697,243.576,307.288,247.166,307.288,251.598z"/>
			</g>
			<g id="Layer_5_copy">
				<line style="fill:none;stroke:#FFFFFF;stroke-miterlimit:10;" x1="299.265" y1="251.598" x2="240.357" y2="156.945"/>
				<path id="dummy_12_" style="fill:#00FF00;stroke:#FFFFFF;stroke-miterlimit:10;" d="M307.288,251.598
					c0,4.432-3.591,8.021-8.023,8.021c-4.429,0-8.018-3.59-8.018-8.021s3.589-8.022,8.018-8.022
					C303.697,243.576,307.288,247.166,307.288,251.598z"/>
			</g>
		</g>
	</g>
</g>
<g id="Layer_1">
</g>
</svg>
