<?xml version="1.0" encoding="iso-8859-1"?>
<!-- Generator: Adobe Illustrator 16.0.0, SVG Export Plug-In . SVG Version: 6.00 Build 0)  -->
<!DOCTYPE svg PUBLIC "-//W3C//DTD SVG 1.1//EN" "http://www.w3.org/Graphics/SVG/1.1/DTD/svg11.dtd">
<svg version="1.1" xmlns="http://www.w3.org/2000/svg" xmlns:xlink="http://www.w3.org/1999/xlink" x="0px" y="0px"
	 width="428.268px" height="133.334px" viewBox="0 0 428.268 133.334" style="enable-background:new 0 0 428.268 133.334;"
	 xml:space="preserve">
<g id="head">
	<path style="fill:#703030;" d="M0,0v22c24.669,0,44.667,19.998,44.667,44.667c0,24.668-19.998,44.667-44.667,44.667v22
		c36.819,0,66.667-29.849,66.667-66.667C66.667,29.848,36.819,0,0,0z"/>
	<path style="fill:#703030;" d="M428.268,133.334v-22c-24.668,0-44.666-19.998-44.666-44.667C383.602,42,403.6,22,428.268,22V0
		c-36.818,0-66.666,29.849-66.666,66.667C361.602,103.486,391.449,133.334,428.268,133.334z"/>
</g>
<g id="Layer_1">
</g>
</svg>
