<?xml version="1.0" encoding="iso-8859-1"?>
<!-- Generator: Adobe Illustrator 16.0.0, SVG Export Plug-In . SVG Version: 6.00 Build 0)  -->
<!DOCTYPE svg PUBLIC "-//W3C//DTD SVG 1.1//EN" "http://www.w3.org/Graphics/SVG/1.1/DTD/svg11.dtd">
<svg version="1.1" xmlns="http://www.w3.org/2000/svg" xmlns:xlink="http://www.w3.org/1999/xlink" x="0px" y="0px"
	 width="85.752px" height="439.003px" viewBox="0 0 85.752 439.003" style="enable-background:new 0 0 85.752 439.003;"
	 xml:space="preserve">
<g id="nose">
	<path style="fill:#703030;" d="M0.209,174.206v22c24.669,0,44.667,19.998,44.667,44.666s-19.998,44.667-44.667,44.667v22
		c36.819,0,66.667-29.849,66.667-66.667S37.028,174.206,0.209,174.206z"/>
	<path style="fill:#C77966;" d="M0.209,305.67v22c24.669,0,44.667,19.998,44.667,44.666s-19.998,44.667-44.667,44.667v22
		c36.819,0,66.667-29.849,66.667-66.667S37.028,305.67,0.209,305.67z"/>
	<path style="fill:#E3CDA4;" d="M0,0v28.297c31.731,0,57.454,25.722,57.454,57.452S31.731,143.203,0,143.203v28.298
		c47.36,0,85.752-38.395,85.752-85.752S47.36,0,0,0z"/>
</g>
<g id="Layer_1">
</g>
</svg>
